<?xml version="1.0" encoding="UTF-8" standalone="no"?>
<svg
   xmlns:dc="http://purl.org/dc/elements/1.1/"
   xmlns:cc="http://creativecommons.org/ns#"
   xmlns:rdf="http://www.w3.org/1999/02/22-rdf-syntax-ns#"
   xmlns:svg="http://www.w3.org/2000/svg"
   xmlns="http://www.w3.org/2000/svg"
   viewBox="0 0 465.98666 140.05333"
   height="140.05333"
   width="465.98666"
   xml:space="preserve"
   id="svg2"
   version="1.1"><metadata
     id="metadata8"><rdf:RDF><cc:Work
         rdf:about=""><dc:format>image/svg+xml</dc:format><dc:type
           rdf:resource="http://purl.org/dc/dcmitype/StillImage" /></cc:Work></rdf:RDF></metadata><defs
     id="defs6" /><g
     transform="matrix(1.3333333,0,0,-1.3333333,0,140.05333)"
     id="g10"><g
       transform="scale(0.1)"
       id="g12"><path
         id="path14"
         style="fill:#1d1b19;fill-opacity:1;fill-rule:evenodd;stroke:none"
         d="M 267.801,300.43 C 240.418,265.32 221.113,238.652 186.363,205.996 136.512,160.008 86.3125,98.582 20.3164,90.8594 11.1914,89.4531 5.57422,92.6055 3.11328,99.2773 c -1.04687,2.4607 -1.75,5.2737 -2.10156,7.7347 v 5.605 c 1.75,14.395 13.33988,28.438 23.51958,40.02 44.9296,50.203 103.2067,76.875 141.8207,129.187 2.457,10.176 9.828,15.801 11.582,24.219 -16.493,16.496 -37.559,49.844 -28.434,78.633 2.809,11.582 5.969,18.254 10.887,23.879 30.886,32.636 66.699,60.722 107.414,82.488 v -57.566 c -20.711,-9.836 -39.668,-22.122 -55.813,-36.516 -4.914,-3.504 -8.429,-14.383 -8.429,-23.172 0,-2.453 4.214,-7.012 9.48,-9.473 13.344,-7.375 39.32,0 54.762,10.184 z m 216.25,66.347 v 72.664 c -25.985,-10.175 -53.711,-16.855 -80.039,-16.855 15.793,15.449 33,36.152 49.843,55.117 5.266,2.461 16.504,4.211 30.196,5.266 v 82.14 c -1.055,-0.703 -1.758,-2.101 -2.461,-2.461 l -16.856,-13.332 c -71.609,-6.32 -139.011,-26.328 -196.933,-58.273 v -57.566 c 17.906,8.425 37.918,15.086 56.875,18.601 l 7.363,1.406 c -10.879,-29.14 -38.961,-57.226 -61.43,-76.531 -0.351,-0.703 -1.754,-1.75 -2.808,-2.453 v -74.07 c 3.512,4.91 7.023,9.824 10.887,14.746 138.664,33.347 166.742,36.152 205.363,51.601 z M 1078.01,229.16 c -1.75,-9.121 -1.75,-20 0,-29.836 v 29.836 z m 0,116.199 -34.4,34.055 -48.446,-46.691 c 2.461,-6.668 4.563,-12.637 8.076,-14.746 l 47.39,-20.352 13.33,22.461 9.13,14.394 c 1.41,3.157 3.86,5.618 4.92,6.672 v 4.207 z M 757.508,826.984 c 6.32,4.215 20.012,4.918 26.68,-3.855 8.078,-10.883 8.078,-22.82 0.703,-30.191 -53.36,-57.575 -116.551,-116.899 -169.903,-176.922 -10.183,-12.993 -21.062,-25.629 -36.16,-42.477 -8.43,-10.531 -12.285,-12.992 -21.418,-25.629 17.207,-4.215 40.02,-9.476 61.789,-14.043 17.196,-3.512 28.789,-5.265 43.875,-7.719 l 157.617,115.836 c 27.383,21.067 60.735,41.782 92.325,49.852 16.152,2.812 24.582,-27.379 16.152,-34.051 -34.402,-29.836 -72.664,-64.242 -108.477,-88.109 -27.722,-17.903 -54.05,-39.321 -78.281,-55.106 12.637,-4.218 29.141,-11.945 40.723,-16.855 51.601,-23.176 80.039,-49.856 121.113,-89.16 30.539,-37.219 50.899,-81.457 55.813,-129.192 4.91,-39.316 0,-72.312 -13.692,-110.222 C 935.137,140 916.531,113.32 900.73,97.5195 835.086,33.6289 734.688,-5.69141 629.023,2.03906 593.223,4.48828 558.816,10.8203 543.016,41 c -16.493,30.8945 2.461,72.672 20.011,94.789 11.59,15.098 42.481,50.195 60.028,33.352 C 644.121,147.723 603.75,109.109 589.012,95.0664 580.586,87.6953 566.543,79.2773 566.543,69.0898 565.84,55.75 578.125,44.1719 590.762,41 c 59.676,-11.5781 115.847,-1.7383 169.207,25.9805 70.558,36.5155 128.476,95.4885 146.379,176.5825 14.394,70.898 -33,124.269 -85.657,169.199 -39.316,29.14 -79.336,50.195 -129.179,64.941 -40.02,-18.965 -65.645,-44.226 -116.895,-69.148 -46.336,-21.77 -69.863,-34.055 -90.566,-41.778 v 72.664 c 29.836,10.879 57.57,26.68 79.679,42.473 -18.253,3.164 -53.351,3.164 -79.679,1.055 v 82.14 c 87.402,94.43 166.738,190.969 273.457,261.875 z M 1078.71,232.676 v -37.559 c -0.35,1.406 -0.35,2.813 -0.7,4.207 v 29.836 c 0.35,1.063 0.35,2.11 0.7,3.516 z m 0,111.98 v -2.449 c -0.35,-0.352 -0.35,-0.703 -0.7,-1.055 v 4.207 l 0.7,-0.703 v 0 z M 2138.5,83.4844 c -29.13,-3.5156 -58.62,-7.3711 -88.45,-10.1758 -62.84,-7.3828 -214.14,-12.9883 -209.23,2.4531 3.87,9.4727 14.75,13.6914 29.84,16.8438 66.7,12.6365 116.91,15.8005 186.06,25.2855 0.69,0 4.21,9.824 4.21,11.23 -0.35,7.723 -13.69,13.34 -19.31,13.34 -24.22,0 -54.05,-2.109 -81.45,-4.563 -57.56,-6.679 -171.29,-10.183 -212.02,-64.5894 -5.97,-8.7773 -5.62,-29.8398 7.37,-35.8086 56.87,-27.3789 259.42,-7.3711 365.08,4.9102 5.97,0.3515 11.94,1.0586 17.9,2.1093 z m 0,656.0936 c -25.27,-4.215 -51.25,-8.426 -76.87,-10.883 -0.7,3.512 -0.7,5.27 -0.7,8.426 l 57.57,100.75 c -1.06,5.27 -5.97,7.371 -7.72,8.426 C 2036,828.742 2000.56,741.336 1940.88,700.613 L 1831.7,656.027 c -11.58,-7.371 -16.86,-21.41 -16.15,-36.507 1.05,-3.161 4.57,-4.207 8.42,-7.368 18.61,-11.937 33.35,9.125 47.75,12.286 2.45,0 2.45,-3.161 2.45,-4.918 -61.78,-67.399 -115.84,-122.508 -188.51,-188.504 -6.67,-6.321 -25.62,-15.098 -25.97,-5.618 -4.21,21.77 5.26,39.668 9.48,56.516 18.25,53.359 47.38,99.344 98.99,130.238 15.09,8.422 21.76,15.094 27.38,25.625 0,9.477 0.35,28.434 -8.77,34.407 -7.73,-1.055 -16.86,-13.696 -20.01,0 0,4.91 0,10.527 0,16.492 -3.52,20.715 -11.24,43.531 -31.25,51.605 -63.89,27.028 -120.05,-17.203 -182.54,-17.203 -8.08,5.617 -10.53,17.203 -20.01,18.258 -24.92,-4.215 -46.69,-12.641 -67.39,-24.223 v -88.465 c 41.06,21.766 83.54,49.149 132.33,63.188 22.82,5.269 67.75,17.902 88.47,1.055 5.26,-4.918 9.48,-15.094 9.48,-23.524 0,-22.113 -10.19,-38.262 -25.28,-53.351 -65.65,-64.95 -133.39,-155.86 -205,-229.934 v -63.543 c 10.17,8.426 20.01,16.856 30.18,25.984 l 72.32,67.747 c 5.26,0.703 7.37,-3.508 8.42,-6.672 2.45,-12.637 -3.51,-21.758 -6.67,-36.153 -3.16,-15.8 3.51,-36.511 14.74,-42.129 10.19,-4.558 16.85,-2.109 28.44,-2.109 89.17,44.238 158.67,137.961 231.69,216.949 18.6,21.059 50.89,54.41 60.38,65.996 10.88,3.864 15.09,4.207 22.46,9.125 4.92,0 4.92,-4.918 4.92,-5.261 -30.9,-59.684 -60.73,-114.094 -87.41,-182.539 -7.02,-18.957 -20.36,-58.977 -5.27,-64.954 49.5,-20.71 138.31,56.172 180.08,84.961 -0.7,-9.129 -1.39,-20.007 10.19,-20.007 41.77,3.503 77.22,24.218 108.46,45.976 v 43.535 c -26.67,-24.57 -54.41,-44.582 -64.23,-29.484 -5.27,9.121 6.31,23.512 17.2,42.816 11.94,18.961 29.13,40.727 37.91,50.907 3.16,3.863 6.31,6.668 9.12,9.828 v 48.093 c -77.57,-78.285 -140.41,-185.695 -242.56,-220.453 -2.82,-1.054 -9.48,3.86 -7.03,8.078 l 124.98,227.469 16.15,22.821 108.46,25.625 v 30.89 z M 1078.71,342.207 c 0.7,1.043 1.05,1.746 0,2.449 v -2.449 z m 0,-147.09 v 37.559 c 0.35,2.461 1.05,4.91 2.46,7.371 43.53,74.414 80.74,144.277 131.99,213.437 48.09,65.289 94.78,115.137 142.17,164.286 35.11,37.562 68.81,74.418 110.24,99.343 v -88.465 c -0.71,-0.699 -0.71,-0.699 -1.41,-1.402 -30.9,-16.851 -61.79,-42.125 -85.3,-67.754 -44.94,-46.679 -80.75,-105.664 -111.63,-170.957 -19.31,-40.722 -55.12,-130.586 -9.14,-127.422 73.37,4.207 141.82,56.864 207.48,124.969 v -63.543 c -64.25,-56.516 -123.23,-108.82 -212.74,-114.082 -14.75,-0.703 -24.92,2.801 -36.51,9.481 -24.92,15.441 -23.52,51.601 -27.73,82.492 -14.74,10.879 -31.25,-13.34 -40.02,-28.438 -19.66,-31.594 -38.97,-58.273 -48.8,-93.379 -0.35,-2.453 -13.34,-7.715 -15.09,-4.211 -2.45,5.618 -4.56,12.637 -5.97,20.715 z M 2298.58,103.145 V 64.8828 C 2243.47,57.5078 2189.75,50.4883 2138.5,44.5195 v 38.9649 c 53.72,5.9687 107.08,12.6367 160.08,19.6606 z m 0,512.871 v -50.907 c -12.63,-12.988 -26.33,-26.328 -38.61,-36.507 -29.14,-24.219 -45.99,-40.723 -75.83,-45.985 -8.42,-2.101 -13.33,8.426 -16.85,15.801 -9.82,-6.32 -18.95,-12.988 -28.79,-18.965 v 43.535 c 14.75,13.332 28.79,28.785 39.67,39.66 13.69,14.399 43.54,59.329 13.35,62.493 -17.2,2.105 -33.36,-8.782 -53.02,-28.086 v 48.093 c 8.78,8.426 16.51,16.149 24.93,23.52 3.86,1.758 9.83,0 11.59,-4.914 18.25,11.582 39.31,10.18 52.3,-3.512 2.82,-5.613 6.67,-12.988 12.64,-10.883 l 29.13,10.883 c 7.03,2.457 15.8,-6.316 15.8,-16.5 0,-8.422 -2.11,-18.601 -6.32,-24.926 -9.13,-12.636 -33.7,-20.355 -33.35,-41.769 4.21,-2.457 17.55,8.074 20.01,8.074 11.24,10.18 22.47,20.359 33.35,30.895 z m 0,159.371 v -29.489 l -160.08,-37.21 v 30.89 c 53.02,9.125 106.72,21.766 160.08,35.809 z m 0,-29.489 134.81,31.239 c 0,0 17.55,4.918 25.27,7.375 v 35.101 c -53.01,-14.742 -106.72,-30.183 -160.08,-44.226 z m 0,-180.789 c 3.17,3.161 6.32,6.321 9.13,9.481 33.35,35.805 74.07,77.226 120.76,118.301 -21.07,-42.477 -63.19,-134.098 -57.57,-161.129 2.45,-11.231 5.26,-16.5 14.39,-16.5 30.89,0 53.01,14.394 73.37,33.351 v 48.442 c -1.05,-1.051 -2.11,-2.457 -3.51,-4.207 1.4,7.367 2.46,14.035 3.51,20.007 v 167.797 c -17.91,-20.007 -53.36,-53.711 -70.92,-73.718 -26.67,-31.95 -57.57,-61.786 -89.16,-90.918 v -50.907 z m 0,-500.2262 c 52.31,6.6602 105.67,14.3945 160.08,22.1094 v 40.0198 c -6.67,-1.055 -12.64,-2.453 -19.32,-3.508 -45.97,-7.02 -93.01,-14.043 -140.76,-20.359 V 64.8828 Z m 366.49,94.4222 v -40.008 c -69.15,-11.594 -138.3,-22.1212 -206.41,-32.3048 v 40.0198 c 69.15,10.535 137.96,20.711 206.41,32.293 z m 0,577.816 c -29.13,-36.859 -49.14,-78.285 -77.58,-109.875 -2.46,-2.105 -8.77,-5.969 -15.45,-5.969 -3.51,0 -8.42,3.161 -7.01,10.536 5.96,38.613 60.37,57.917 45.97,100.394 -3.5,9.828 -21.06,0.703 -25.97,-3.512 -47.38,-45.632 -82.49,-86.711 -126.37,-131.64 v -48.442 c 17.2,15.09 33,32.645 52.31,47.391 0.7,-6.32 2.45,-12.992 5.61,-15.449 8.43,-5.262 12.64,-6.668 17.9,-7.016 34.76,-2.461 62.49,16.848 99,42.477 11.94,-3.864 22.11,-5.27 31.59,-4.215 v 125.32 z m 0,79.692 c -0.71,-0.352 -1.06,-0.352 -1.4,-0.708 -4.22,-3.859 -5.98,-8.777 -5.98,-14.746 0,-4.211 2.47,-6.668 3.52,-6.668 1.41,-0.703 2.46,-1.054 3.86,-1.753 v 23.875 z m 0,74.066 v -37.566 c -9.48,-3.157 -18.96,-5.965 -28.44,-9.477 -23.87,-11.934 -51.25,-14.391 -71.6,-25.977 -14.04,-12.285 -26.34,-34.046 -36.52,-54.054 -15.8,-29.145 -43.52,-77.586 -57.56,-111.633 -5.62,-12.641 -9.13,-24.926 -12.29,-39.317 v 167.797 c 2.1,2.106 3.16,3.161 4.56,4.914 0,0 -2.11,-0.351 -4.56,-1.054 v 35.101 c 8.07,2.461 16.5,4.918 24.57,6.676 40.02,21.762 66.7,67.746 84.25,99.34 5.98,9.836 20.36,15.797 35.81,10.883 7.02,-1.75 7.02,-11.235 4.56,-19.305 -2.8,-9.828 -15.1,-22.469 -19.31,-35.109 0,-3.16 10.19,-5.614 15.8,-8.071 20.01,5.618 40.37,10.883 60.73,16.852 z m 7.02,-99.699 c 3.87,-0.703 8.07,0 11.23,2.808 2.11,2.461 3.51,9.129 3.51,9.129 -2.45,7.371 -5.61,9.824 -9.83,11.582 -0.34,0 -2.8,1.406 -4.91,1.406 z m -7.02,62.133 c 2.46,0.707 4.57,1.41 7.02,2.113 v 37.554 c -2.11,-0.695 -4.56,-1.398 -7.02,-2.101 v -37.566 z m 0,-60.375 v 23.875 c 1.76,0.695 4.57,0 7.02,-0.708 V 791.18 c -2.45,0.351 -4.91,1.054 -7.02,1.758 z m 0,-181.137 c 2.46,0 4.91,0.699 7.02,1.054 v 49.141 c -2.11,0.703 -4.21,1.758 -4.56,3.512 -3.86,5.621 0,12.988 4.56,19.664 v 57.918 c -2.8,-1.754 -5.26,-4.215 -7.02,-5.969 v 0 -125.32 z m 0,-492.504 c 2.46,0.351 4.91,0.691 7.02,1.043 v 40.019 c -2.11,-0.351 -4.56,-0.703 -7.02,-1.054 v -40.008 z m 23.52,43.875 v -40.02 c -5.62,-1.054 -10.89,-1.757 -16.5,-2.812 v 40.019 c 5.61,1.055 10.88,1.758 16.5,2.813 z m 0,500.23 v -44.226 c -5.27,-2.817 -10.53,-5.27 -16.5,-6.321 v 49.141 c 3.16,-0.699 6.32,-0.699 9.13,-0.699 2.1,0 4.56,0.699 7.37,2.105 z m 0,86.707 v -46.687 c -3.86,-4.215 -10.89,-10.883 -16.5,-18.25 v 57.918 c 4.91,3.512 10.88,5.969 16.5,7.019 z m 0,147.086 v -36.507 c -5.62,-1.758 -10.89,-3.512 -16.5,-5.262 v 37.554 c 5.61,1.411 10.88,2.809 16.5,4.215 z m 29.14,-96.886 c -4.92,-0.7 -7.72,-3.161 -10.89,-7.371 -2.46,-4.915 0,-13.34 2.47,-14.043 2.8,-1.055 5.96,-1.758 8.42,-2.457 z m -29.14,60.379 c 9.48,2.808 19.31,5.964 29.14,8.773 v 35.809 c -9.83,-2.805 -19.66,-5.266 -29.14,-8.075 v -36.507 z m 0,-157.266 v 46.687 c 4.56,0.704 9.12,0.704 12.64,-1.406 10.53,-12.637 -6.67,-35.101 -10.88,-43.176 -0.35,-0.347 -1.05,-1.402 -1.76,-2.105 z m 0,-84.246 c 10.18,5.965 19.31,14.738 29.14,24.566 v 45.988 c -10.53,-12.285 -21.06,-22.113 -29.14,-26.328 v -44.226 z m 0,-496.024 c 9.48,1.758 19.31,3.508 29.14,5.266 v 40.02 c -9.83,-2.102 -19.66,-3.868 -29.14,-5.266 v -40.02 z m 35.1,677.157 V 777.84 c -1.4,-0.703 -3.51,-1.402 -5.96,-1.402 v 23.871 c 0.7,0.355 1.05,0.355 1.75,0.355 1.06,0 2.46,0 4.21,-0.355 z m 0,70.91 c -2.11,-0.703 -3.86,-1.406 -5.96,-1.758 v 35.809 c 2.1,0.347 3.85,1.05 5.96,1.406 v -35.457 z m 0,-220.453 c -1.75,-2.11 -3.51,-3.864 -5.26,-5.618 0,-0.703 -0.7,-0.703 -0.7,-1.406 v 45.988 c 2.1,2.458 3.85,4.563 5.96,7.024 v -45.988 z m 0,-521.293 c -2.11,-0.352 -3.86,-0.703 -5.96,-1.055 v 40.02 c 2.1,0.351 3.85,0.703 5.96,1.054 v -40.019 z m 0,648.367 c 0.35,0 0.35,0.351 0.7,0.703 2.46,1.055 4.22,3.512 4.92,6.672 0.7,5.262 -1.75,11.933 -1.75,11.933 -1.41,1.758 -2.81,2.461 -3.87,3.161 z m 769.14,-310.672 v -29.133 c 0,0 0,-0.351 0,-1.055 -3.16,-24.921 -14.75,-58.269 -38.27,-78.281 -90.57,-74.422 -177.28,-104.961 -286.8,-135.847 -106.72,-29.493 -232.39,-54.414 -344.01,-75.832 -33.01,-5.614 -66.36,-11.934 -100.06,-17.547 v 40.019 c 22.82,3.856 45.64,8.418 68.46,12.988 85.65,16.844 171.31,32.645 255.55,51.954 34.41,8.425 82.86,20.711 118.3,29.843 73.37,20 149.55,50.899 206.77,82.84 26.68,14.746 45.99,30.539 60.38,47.383 22.46,26.691 26.33,63.547 12.99,95.84 -35.81,60.023 -107.42,109.875 -157.97,142.519 -19.31,12.637 -51.25,30.895 -69.5,39.325 -43.18,21.41 -99.35,43.875 -147.44,55.105 -23.53,5.621 -55.82,17.207 -63.19,2.109 l -20.37,-50.902 c -3.15,-8.07 -23.16,-9.828 -30.88,-3.16 -13.34,12.637 5.26,44.234 13.34,57.574 0,0 1.74,7.371 -1.41,7.371 l -15.79,1.055 c -9.48,0.699 -6.68,13.336 -4.22,20.008 2.46,6.668 15.8,5.617 24.23,5.617 l 31.59,65.293 -84.95,-75.824 c -14.4,-10.18 -25.98,-21.77 -40.02,-33.352 -31.94,-28.43 -51.96,-61.082 -92.68,-78.633 -9.13,-3.859 -22.46,3.512 -24.92,11.582 -1.05,5.969 -1.05,10.887 -0.7,16.157 0,3.152 24.92,64.937 21.4,64.937 -14.03,-20.008 -28.42,-40.723 -41.41,-61.082 -4.22,-7.371 -10.53,-16.851 -17.56,-25.273 v 45.988 c 5.62,7.723 11.59,15.793 16.5,23.871 12.64,20.008 14.4,54.059 23.17,64.59 7.72,9.476 28.44,16.144 38.61,7.723 4.22,-3.508 5.98,-9.829 9.13,-14.395 9.84,-3.156 21.77,-2.453 22.47,-9.125 0.71,-6.672 -4.22,-14.746 -6.67,-20.715 -5.61,-14.043 -2.46,-20.711 0,-21.762 8.42,-3.16 40.02,22.821 58.98,38.614 58.62,50.906 109.52,126.73 148.84,177.277 l -1.06,1.754 C 2929.4,925.98 2826.55,901.762 2723.69,871.219 v 35.457 c 82.85,23.168 165.34,45.633 249.25,60.379 37.21,5.968 68.45,10.179 95.83,24.922 23.17,13.693 34.74,36.153 52.65,56.873 2.11,0 15.45,0 17.91,0 3.51,0 2.1,-3.51 5.96,-4.92 l -10.88,-29.14 117.6,-2.81 c 2.46,-2.1 8.43,-2.45 5.97,-8.07 0,-4.211 -3.16,-5.969 -5.97,-10.879 l -129.88,-18.254 -69.15,-156.918 c -1.76,-5.613 -7.73,-19.304 -2.46,-20.007 4.91,-0.704 28.08,11.586 32.29,14.394 29.13,21.762 66,50.902 74.07,94.777 -3.86,8.43 -15.45,12.637 -19.66,23.524 0,3.156 2.11,4.918 4.92,8.422 4.91,4.215 14.04,4.215 19.3,0.703 14.05,-12.285 23.87,-40.723 11.59,-60.734 -9.12,-20.008 -22.83,-40.012 -37.56,-56.165 -14.4,-16.496 -44.94,-37.207 -61.79,-49.144 7.73,-2.457 18.26,-5.617 27.38,-8.074 47.04,-11.938 73.72,-24.219 113.39,-41.071 46.69,-21.414 103.56,-55.816 142.87,-84.25 63.2,-44.23 127.43,-103.211 135.51,-173.066 v 0" /><path
         id="path16"
         style="fill:none;stroke:#1d1b19;stroke-width:2.16000009;stroke-linecap:square;stroke-linejoin:miter;stroke-miterlimit:10;stroke-dasharray:none;stroke-opacity:1"
         d="m 757.508,826.984 c 6.32,4.215 20.012,4.918 26.68,-3.855 8.078,-10.883 8.078,-22.82 0.703,-30.191 -53.36,-57.575 -116.551,-116.899 -169.903,-176.922 -10.183,-12.993 -21.062,-25.629 -36.16,-42.477 -8.43,-10.531 -12.285,-12.992 -21.418,-25.629 17.207,-4.215 40.02,-9.476 61.789,-14.043 17.196,-3.512 28.789,-5.265 43.875,-7.719" /><path
         id="path18"
         style="fill:none;stroke:#1d1b19;stroke-width:2.16000009;stroke-linecap:square;stroke-linejoin:miter;stroke-miterlimit:10;stroke-dasharray:none;stroke-opacity:1"
         d="M 663.074,526.148 820.691,641.984" /><path
         id="path20"
         style="fill:none;stroke:#1d1b19;stroke-width:2.16000009;stroke-linecap:square;stroke-linejoin:miter;stroke-miterlimit:10;stroke-dasharray:none;stroke-opacity:1"
         d="m 820.691,641.984 c 27.383,21.067 60.735,41.782 92.325,49.852 16.152,2.812 24.582,-27.379 16.152,-34.051 -34.402,-29.836 -72.664,-64.242 -108.477,-88.109 -27.722,-17.903 -54.05,-39.321 -78.281,-55.106 12.637,-4.218 29.141,-11.945 40.723,-16.855 51.601,-23.176 80.039,-49.856 121.113,-89.16 30.539,-37.219 50.899,-81.457 55.813,-129.192 4.91,-39.316 0,-72.312 -13.692,-110.222 C 935.137,140 916.531,113.32 900.73,97.5195 835.086,33.6289 734.688,-5.69141 629.023,2.03906 593.223,4.48828 558.816,10.8203 543.016,41 c -16.493,30.8945 2.461,72.672 20.011,94.789 11.59,15.098 42.481,50.195 60.028,33.352 C 644.121,147.723 603.75,109.109 589.012,95.0664 580.586,87.6953 566.543,79.2773 566.543,69.0898 565.84,55.75 578.125,44.1719 590.762,41 c 59.676,-11.5781 115.847,-1.7383 169.207,25.9805 70.558,36.5155 128.476,95.4885 146.379,176.5825 14.394,70.898 -33,124.269 -85.657,169.199 -39.316,29.14 -79.336,50.195 -129.179,64.941 C 651.492,458.738 625.867,433.477 574.617,408.555 443.68,346.063 492.469,366.074 278.688,315.176 245.688,271.992 225.68,242.859 186.363,205.996 136.512,160.008 86.3125,98.582 20.3164,90.8594 11.1914,89.4531 5.57422,92.6055 3.11328,99.2773 -4.60547,118.582 11.1914,137.547 24.5313,152.637 69.4609,202.84 127.738,229.512 166.352,281.824 c 2.457,10.176 9.828,15.801 11.582,24.219 -16.493,16.496 -37.559,49.844 -28.434,78.633 2.809,11.582 5.969,18.254 10.887,23.879 75.121,80.73 183.597,130.226 304.347,140.761" /><path
         id="path22"
         style="fill:none;stroke:#1d1b19;stroke-width:2.16000009;stroke-linecap:square;stroke-linejoin:miter;stroke-miterlimit:10;stroke-dasharray:none;stroke-opacity:1"
         d="m 464.734,549.316 16.856,13.332" /><path
         id="path24"
         style="fill:none;stroke:#1d1b19;stroke-width:2.16000009;stroke-linecap:square;stroke-linejoin:miter;stroke-miterlimit:10;stroke-dasharray:none;stroke-opacity:1"
         d="m 481.59,562.648 c 88.808,95.137 168.848,193.43 275.918,264.336" /><path
         id="path26"
         style="fill:none;stroke:#1d1b19;stroke-width:2.16000009;stroke-linecap:square;stroke-linejoin:miter;stroke-miterlimit:10;stroke-dasharray:none;stroke-opacity:1"
         d="m 2727.56,797.148 c 0,0 2.45,-6.671 1.75,-11.933 -0.7,-3.16 -2.46,-5.617 -4.92,-6.672 -2.45,-2.105 -8.41,-2.453 -15.08,0.352 -2.47,0.703 -4.93,9.128 -2.47,14.043 3.52,4.914 7.38,7.371 12.64,7.726 1.76,0 4.91,0 8.08,-3.516" /><path
         id="path28"
         style="fill:none;stroke:#1d1b19;stroke-width:2.16000009;stroke-linecap:square;stroke-linejoin:miter;stroke-miterlimit:10;stroke-dasharray:none;stroke-opacity:1"
         d="m 2677,814.699 c 4.22,-1.758 7.38,-4.211 9.83,-11.582 0,0 -1.4,-6.668 -3.51,-9.129 -6.32,-5.965 -15.79,-2.105 -22.11,0.703 -1.05,0 -3.52,2.457 -3.52,6.668 0,5.969 1.76,10.887 5.98,14.746 3.16,2.458 11.58,-0.703 13.33,-1.406" /><path
         id="path30"
         style="fill:none;stroke:#1d1b19;stroke-width:2.16000009;stroke-linecap:square;stroke-linejoin:miter;stroke-miterlimit:10;stroke-dasharray:none;stroke-opacity:1"
         d="m 2433.39,777.137 29.83,8.429 c -17.2,-20.011 -56.52,-56.871 -75.48,-78.632 -36.15,-43.18 -80.03,-82.496 -122.51,-121.813 -2.46,0 -15.8,-10.531 -20.01,-8.074 -0.35,21.414 24.22,29.133 33.35,41.769 4.21,6.325 6.32,16.504 6.32,24.926 0,10.184 -8.77,18.957 -15.8,16.5" /><path
         id="path32"
         style="fill:none;stroke:#1d1b19;stroke-width:2.16000009;stroke-linecap:square;stroke-linejoin:miter;stroke-miterlimit:10;stroke-dasharray:none;stroke-opacity:1"
         d="m 2269.09,660.242 -29.13,-10.883" /><path
         id="path34"
         style="fill:none;stroke:#1d1b19;stroke-width:2.16000009;stroke-linecap:square;stroke-linejoin:miter;stroke-miterlimit:10;stroke-dasharray:none;stroke-opacity:1"
         d="m 2239.96,649.359 c -5.97,-2.105 -9.82,5.27 -12.64,10.883 -12.99,13.692 -34.05,15.094 -52.3,3.512 -1.76,4.914 -7.73,6.672 -11.59,4.914 -89.52,-78.984 -155.16,-205.711 -267.49,-243.973 -2.82,-1.054 -9.48,3.86 -7.03,8.078" /><path
         id="path36"
         style="fill:none;stroke:#1d1b19;stroke-width:2.16000009;stroke-linecap:square;stroke-linejoin:miter;stroke-miterlimit:10;stroke-dasharray:none;stroke-opacity:1"
         d="m 1888.91,432.773 124.98,227.469 16.15,22.821 403.35,94.074" /><path
         id="path38"
         style="fill:none;stroke:#1d1b19;stroke-width:2.16000009;stroke-linecap:square;stroke-linejoin:miter;stroke-miterlimit:10;stroke-dasharray:none;stroke-opacity:1"
         d="m 1686.37,692.891 c 5.26,-4.918 9.48,-15.094 9.48,-23.524 0,-22.113 -10.19,-38.262 -25.28,-53.351 -125.68,-123.918 -259.07,-345.774 -412.48,-354.903 -45.98,-3.164 -10.17,86.7 9.14,127.422 30.88,65.293 66.69,124.278 111.63,170.957 23.51,25.629 54.4,50.903 85.3,67.754 41.42,22.465 84.6,50.551 133.74,64.59 22.82,5.269 67.75,17.902 88.47,1.055" /><path
         id="path40"
         style="fill:none;stroke:#1d1b19;stroke-width:2.16000009;stroke-linecap:square;stroke-linejoin:miter;stroke-miterlimit:10;stroke-dasharray:none;stroke-opacity:1"
         d="m 2191.52,625.141 c 30.19,-3.164 0.34,-48.094 -13.35,-62.493 -30.89,-32.992 -89.16,-93.019 -103.9,-69.144 -5.27,9.121 6.31,23.512 17.2,42.816 11.94,18.961 29.13,40.727 37.91,50.907 23.17,25.628 42.47,40.019 62.14,37.914" /><path
         id="path42"
         style="fill:none;stroke:#1d1b19;stroke-width:2.16000009;stroke-linecap:square;stroke-linejoin:miter;stroke-miterlimit:10;stroke-dasharray:none;stroke-opacity:1"
         d="m 563.73,481.914 c -41.417,-29.133 -103.203,-59.328 -159.718,-59.328 15.793,15.449 33,36.152 49.843,55.117 16.504,6.672 82.5,9.133 109.875,4.211" /><path
         id="path44"
         style="fill:none;stroke:#1d1b19;stroke-width:2.16000009;stroke-linecap:square;stroke-linejoin:miter;stroke-miterlimit:10;stroke-dasharray:none;stroke-opacity:1"
         d="m 324.676,452.078 7.363,1.406 c -10.879,-29.14 -38.961,-57.226 -61.43,-76.531 -13.687,-11.582 -42.828,-20.715 -57.57,-12.637 -5.266,2.461 -9.48,7.02 -9.48,9.473 0,8.789 3.515,19.668 8.429,23.172 30.887,27.383 72.664,47.394 112.688,55.117" /><path
         id="path46"
         style="fill:none;stroke:#1d1b19;stroke-width:2.16000009;stroke-linecap:square;stroke-linejoin:miter;stroke-miterlimit:10;stroke-dasharray:none;stroke-opacity:1"
         d="m 1043.61,379.414 35.1,-34.758" /><path
         id="path48"
         style="fill:none;stroke:#1d1b19;stroke-width:2.16000009;stroke-linecap:square;stroke-linejoin:miter;stroke-miterlimit:10;stroke-dasharray:none;stroke-opacity:1"
         d="m 1078.71,344.656 c 2.46,-2.097 -3.15,-4.207 -5.62,-10.176" /><path
         id="path50"
         style="fill:none;stroke:#1d1b19;stroke-width:2.16000009;stroke-linecap:square;stroke-linejoin:miter;stroke-miterlimit:10;stroke-dasharray:none;stroke-opacity:1"
         d="m 1073.09,334.48 -9.13,-14.394 -13.33,-22.461 -47.39,20.352" /><path
         id="path52"
         style="fill:none;stroke:#1d1b19;stroke-width:2.16000009;stroke-linecap:square;stroke-linejoin:miter;stroke-miterlimit:10;stroke-dasharray:none;stroke-opacity:1"
         d="m 1003.24,317.977 c -3.513,2.109 -5.615,8.078 -8.076,14.746" /><path
         id="path54"
         style="fill:none;stroke:#1d1b19;stroke-width:2.16000009;stroke-linecap:square;stroke-linejoin:miter;stroke-miterlimit:10;stroke-dasharray:none;stroke-opacity:1"
         d="m 995.164,332.723 48.446,46.691" /><path
         id="path56"
         style="fill:none;stroke:#1d1b19;stroke-width:2.16000009;stroke-linecap:square;stroke-linejoin:miter;stroke-miterlimit:10;stroke-dasharray:none;stroke-opacity:1"
         d="m 3121.42,1048.85 c 2.11,0 15.45,0 17.91,0 3.51,0 2.1,-3.51 5.96,-4.92" /><path
         id="path58"
         style="fill:none;stroke:#1d1b19;stroke-width:2.16000009;stroke-linecap:square;stroke-linejoin:miter;stroke-miterlimit:10;stroke-dasharray:none;stroke-opacity:1"
         d="m 3145.29,1043.93 -10.88,-29.14 117.6,-2.81" /><path
         id="path60"
         style="fill:none;stroke:#1d1b19;stroke-width:2.16000009;stroke-linecap:square;stroke-linejoin:miter;stroke-miterlimit:10;stroke-dasharray:none;stroke-opacity:1"
         d="m 3252.01,1011.98 c 2.46,-2.1 8.43,-2.45 5.97,-8.07 0,-4.211 -3.16,-5.969 -5.97,-10.879" /><path
         id="path62"
         style="fill:none;stroke:#1d1b19;stroke-width:2.16000009;stroke-linecap:square;stroke-linejoin:miter;stroke-miterlimit:10;stroke-dasharray:none;stroke-opacity:1"
         d="M 3252.01,993.031 3122.13,974.777 3052.98,817.859" /><path
         id="path64"
         style="fill:none;stroke:#1d1b19;stroke-width:2.16000009;stroke-linecap:square;stroke-linejoin:miter;stroke-miterlimit:10;stroke-dasharray:none;stroke-opacity:1"
         d="m 3052.98,817.859 c -1.76,-5.613 -7.73,-19.304 -2.46,-20.007 4.91,-0.704 28.08,11.586 32.29,14.394 29.13,21.762 66,50.902 74.07,94.777 -3.86,8.43 -15.45,12.637 -19.66,23.524 0,3.156 2.11,4.918 4.92,8.422 4.91,4.215 14.04,4.215 19.3,0.703 14.05,-12.285 23.87,-40.723 11.59,-60.734 -9.12,-20.008 -22.83,-40.012 -37.56,-56.165 -14.4,-16.496 -44.94,-37.207 -61.79,-49.144 7.73,-2.457 18.26,-5.617 27.38,-8.074 47.04,-11.938 73.72,-24.219 113.39,-41.071 46.69,-21.414 103.56,-55.816 142.87,-84.25 71.61,-50.55 145.69,-119.703 135.51,-203.254 -3.16,-24.921 -14.75,-58.269 -38.27,-78.281 C 3363.99,284.277 3277.28,253.738 3167.76,222.852 3061.04,193.359 2935.37,168.438 2823.75,147.02 2583.28,102.441 2329.12,66.9805 2120.6,42.4102 2014.94,30.1289 1812.39,10.1211 1755.52,37.5 c -12.99,5.9688 -13.34,27.0313 -7.37,35.8086 40.73,54.4064 154.46,57.9104 212.02,64.5894 27.4,2.454 57.23,4.563 81.45,4.563 5.62,0 18.96,-5.617 19.31,-13.34 0,-1.406 -3.52,-11.23 -4.21,-11.23 -69.15,-9.485 -119.36,-12.649 -186.06,-25.2855 -15.09,-3.1524 -25.97,-7.3711 -29.84,-16.8438 -4.91,-15.4414 146.39,-9.8359 209.23,-2.4531 130.58,14.3867 263.97,30.1874 389.29,50.1954 119.02,18.957 235.91,35.109 352.81,58.976 85.65,16.844 171.31,32.645 255.55,51.954 34.41,8.425 82.86,20.711 118.3,29.843 73.37,20 149.55,50.899 206.77,82.84 26.68,14.746 45.99,30.539 60.38,47.383 22.46,26.691 26.33,63.547 12.99,95.84 -35.81,60.023 -107.42,109.875 -157.97,142.519 -19.31,12.637 -51.25,30.895 -69.5,39.325 -43.18,21.41 -99.35,43.875 -147.44,55.105 -23.53,5.621 -55.82,17.207 -63.19,2.109" /><path
         id="path66"
         style="fill:none;stroke:#1d1b19;stroke-width:2.16000009;stroke-linecap:square;stroke-linejoin:miter;stroke-miterlimit:10;stroke-dasharray:none;stroke-opacity:1"
         d="m 3008.04,729.398 -20.37,-50.902" /><path
         id="path68"
         style="fill:none;stroke:#1d1b19;stroke-width:2.16000009;stroke-linecap:square;stroke-linejoin:miter;stroke-miterlimit:10;stroke-dasharray:none;stroke-opacity:1"
         d="m 2987.67,678.496 c -3.15,-8.07 -23.16,-9.828 -30.88,-3.16 -13.34,12.637 5.26,44.234 13.34,57.574 0,0 1.74,7.371 -1.41,7.371" /><path
         id="path70"
         style="fill:none;stroke:#1d1b19;stroke-width:2.16000009;stroke-linecap:square;stroke-linejoin:miter;stroke-miterlimit:10;stroke-dasharray:none;stroke-opacity:1"
         d="m 2968.72,740.281 -15.79,1.055" /><path
         id="path72"
         style="fill:none;stroke:#1d1b19;stroke-width:2.16000009;stroke-linecap:square;stroke-linejoin:miter;stroke-miterlimit:10;stroke-dasharray:none;stroke-opacity:1"
         d="m 2952.93,741.336 c -9.48,0.699 -6.68,13.336 -4.22,20.008 2.46,6.668 15.8,5.617 24.23,5.617" /><path
         id="path74"
         style="fill:none;stroke:#1d1b19;stroke-width:2.16000009;stroke-linecap:square;stroke-linejoin:miter;stroke-miterlimit:10;stroke-dasharray:none;stroke-opacity:1"
         d="m 2972.94,766.961 31.59,65.293 -84.95,-75.824" /><path
         id="path76"
         style="fill:none;stroke:#1d1b19;stroke-width:2.16000009;stroke-linecap:square;stroke-linejoin:miter;stroke-miterlimit:10;stroke-dasharray:none;stroke-opacity:1"
         d="m 2919.58,756.43 c -14.4,-10.18 -25.98,-21.77 -40.02,-33.352 -31.94,-28.43 -51.96,-61.082 -92.68,-78.633 -9.13,-3.859 -22.46,3.512 -24.92,11.582 -1.05,5.969 -1.05,10.887 -0.7,16.157 0,3.152 24.92,64.937 21.4,64.937 -14.03,-20.008 -28.42,-40.723 -41.41,-61.082 -5.26,-9.125 -13.34,-21.41 -22.82,-30.891 -23.17,-24.574 -43.88,-43.175 -84.95,-29.132 -36.51,-25.629 -64.24,-44.938 -99,-42.477 -5.26,0.348 -9.47,1.754 -17.9,7.016 -3.16,2.457 -4.91,9.129 -5.61,15.449 -43.19,-32.996 -69.87,-80.742 -125.68,-80.742 -9.13,0 -11.94,5.269 -14.39,16.5 -5.62,27.031 36.5,118.652 57.57,161.129 -46.69,-41.075 -87.41,-82.496 -120.76,-118.301 -15.09,-15.797 -32.65,-33.352 -47.74,-45.988 -29.14,-24.219 -45.99,-40.723 -75.83,-45.985 -8.42,-2.101 -13.33,8.426 -16.85,15.801 -40.02,-26.328 -82.5,-60.734 -137.25,-64.941 -11.58,0 -10.89,10.878 -10.19,20.007 -41.77,-28.789 -130.58,-105.671 -180.08,-84.961 -15.09,5.977 -1.75,45.997 5.27,64.954 26.68,68.445 56.51,122.855 87.41,182.539 0,0.343 0,5.261 -4.92,5.261 -7.37,-4.918 -11.58,-5.261 -22.46,-9.125 -9.49,-11.586 -41.78,-44.937 -60.38,-65.996 -73.02,-78.988 -142.52,-172.711 -231.69,-216.949 -11.59,0 -18.25,-2.449 -28.44,2.109 -11.23,5.618 -17.9,26.329 -14.74,42.129 3.16,14.395 9.12,23.516 6.67,36.153 -1.05,3.164 -3.16,7.375 -8.42,6.672" /><path
         id="path78"
         style="fill:none;stroke:#1d1b19;stroke-width:2.16000009;stroke-linecap:square;stroke-linejoin:miter;stroke-miterlimit:10;stroke-dasharray:none;stroke-opacity:1"
         d="m 1568.07,416.27 -72.32,-67.747" /><path
         id="path80"
         style="fill:none;stroke:#1d1b19;stroke-width:2.16000009;stroke-linecap:square;stroke-linejoin:miter;stroke-miterlimit:10;stroke-dasharray:none;stroke-opacity:1"
         d="m 1495.75,348.523 c -77.58,-65.644 -140.07,-134.101 -242.92,-140.066 -14.75,-0.703 -24.92,2.801 -36.51,9.481 -24.92,15.441 -23.52,51.601 -27.73,82.492 -14.74,10.879 -31.25,-13.34 -40.02,-28.438 -19.66,-31.594 -38.97,-58.273 -48.8,-93.379 -0.35,-2.453 -13.34,-7.715 -15.09,-4.211 -7.38,16.496 -11.59,45.637 -3.51,65.645 43.53,74.414 80.74,144.277 131.99,213.437 48.09,65.289 94.78,115.137 142.17,164.286 52.66,55.812 101.81,110.925 177.63,123.566 9.48,-1.055 11.93,-12.641 20.01,-18.258 62.49,0 118.65,44.231 182.54,17.203 20.01,-8.074 27.73,-30.89 31.25,-51.605 0,-5.965 0,-11.582 0,-16.492 3.15,-13.696 12.28,-1.055 20.01,0 9.12,-5.973 8.77,-24.93 8.77,-34.407 -5.62,-10.531 -12.29,-17.203 -27.38,-25.625 -51.61,-30.894 -80.74,-76.879 -98.99,-130.238 -4.22,-16.848 -13.69,-34.746 -9.48,-56.516 0.35,-9.48 19.3,-0.703 25.97,5.618 72.67,65.996 126.73,121.105 188.51,188.504 0,1.757 0,4.918 -2.45,4.918 -14.4,-3.161 -29.14,-24.223 -47.75,-12.286 -3.85,3.161 -7.37,4.207 -8.42,7.368 -0.71,15.097 4.57,29.136 16.15,36.507" /><path
         id="path82"
         style="fill:none;stroke:#1d1b19;stroke-width:2.16000009;stroke-linecap:square;stroke-linejoin:miter;stroke-miterlimit:10;stroke-dasharray:none;stroke-opacity:1"
         d="m 1831.7,656.027 109.18,44.586" /><path
         id="path84"
         style="fill:none;stroke:#1d1b19;stroke-width:2.16000009;stroke-linecap:square;stroke-linejoin:miter;stroke-miterlimit:10;stroke-dasharray:none;stroke-opacity:1"
         d="m 1940.88,700.613 c 59.68,40.723 95.12,128.129 169.9,145.684 1.75,-1.055 6.66,-3.156 7.72,-8.426" /><path
         id="path86"
         style="fill:none;stroke:#1d1b19;stroke-width:2.16000009;stroke-linecap:square;stroke-linejoin:miter;stroke-miterlimit:10;stroke-dasharray:none;stroke-opacity:1"
         d="m 2118.5,837.871 -57.57,-100.75" /><path
         id="path88"
         style="fill:none;stroke:#1d1b19;stroke-width:2.16000009;stroke-linecap:square;stroke-linejoin:miter;stroke-miterlimit:10;stroke-dasharray:none;stroke-opacity:1"
         d="m 2060.93,737.121 c 0,-3.156 0,-4.914 0.7,-8.426 136.9,14.043 280.83,58.621 421.6,97.594 40.02,21.762 66.7,67.746 84.25,99.34 5.98,9.836 20.36,15.797 35.81,10.883 7.02,-1.75 7.02,-11.235 4.56,-19.305 -2.8,-9.828 -15.1,-22.469 -19.31,-35.109 0,-3.16 10.19,-5.614 15.8,-8.071 123.57,32.996 244.32,70.559 368.6,93.028 37.21,5.968 68.45,10.179 95.83,24.922 23.17,13.693 34.74,36.153 52.65,56.873" /><path
         id="path90"
         style="fill:none;stroke:#1d1b19;stroke-width:2.16000009;stroke-linecap:square;stroke-linejoin:miter;stroke-miterlimit:10;stroke-dasharray:none;stroke-opacity:1"
         d="m 3033.66,944.586 1.06,-1.754 c -39.32,-50.547 -90.22,-126.371 -148.84,-177.277 -18.96,-15.793 -50.56,-41.774 -58.98,-38.614 -2.46,1.051 -5.61,7.719 0,21.762 2.45,5.969 7.38,14.043 6.67,20.715 -0.7,6.672 -12.63,5.969 -22.47,9.125 -3.15,4.566 -4.91,10.887 -9.13,14.395 -10.17,8.421 -30.89,1.753 -38.61,-7.723 -8.77,-10.531 -10.53,-44.582 -23.17,-64.59 -18.25,-29.492 -45.63,-58.629 -58.97,-59.328 -5.26,0 -11.93,0.699 -13.69,4.211 -8.08,12.988 19.3,34.754 22.82,40.019 4.21,8.075 21.41,30.539 10.88,43.176 -10.19,5.27 -27.73,-2.453 -36.16,-11.582 -29.13,-36.859 -49.14,-78.285 -77.58,-109.875 -2.46,-2.105 -8.77,-5.969 -15.45,-5.969 -3.51,0 -8.42,3.161 -7.01,10.536 5.96,38.613 60.37,57.917 45.97,100.394 -3.5,9.828 -21.06,0.703 -25.97,-3.512 -49.14,-46.687 -84.25,-89.164 -129.88,-135.847 4.21,24.922 8.42,41.066 15.8,59.324 14.04,34.047 41.76,82.488 57.56,111.633 10.18,20.008 22.48,41.769 36.52,54.054 20.35,11.586 47.73,14.043 71.6,25.977 132.7,44.234 264.35,76.883 397.03,100.75" /></g></g></svg>