<?xml version="1.0" standalone="no"?>
<!DOCTYPE svg PUBLIC "-//W3C//DTD SVG 20010904//EN"
 "http://www.w3.org/TR/2001/REC-SVG-20010904/DTD/svg10.dtd">
<svg version="1.0" xmlns="http://www.w3.org/2000/svg"
 width="2560.000000pt" height="918.000000pt" viewBox="0 0 2560.000000 918.000000"
 preserveAspectRatio="xMidYMid meet">

<g transform="translate(0.000000,918.000000) scale(0.100000,-0.100000)"
fill="#000000" stroke="none">
<path d="M23221 8904 c-107 -31 -241 -82 -411 -154 -74 -32 -139 -54 -144 -49
-5 4 -13 36 -18 70 -9 71 -20 89 -55 89 -56 0 -125 -81 -227 -270 l-57 -105
-707 -244 c-389 -134 -1042 -361 -1452 -504 -905 -315 -1402 -484 -1454 -493
l-39 -7 43 79 c24 43 91 160 150 259 176 298 229 406 217 440 -6 15 -9 15 -38
-2 -76 -43 -253 -236 -623 -675 l-249 -296 -671 -242 c-2116 -766 -2949 -1060
-2962 -1047 -12 12 108 227 436 782 195 330 320 555 320 576 0 62 -186 -145
-1033 -1152 l-359 -426 -241 -93 c-429 -165 -686 -277 -716 -314 -24 -29 -25
-90 -1 -160 12 -36 25 -68 30 -71 5 -3 14 14 20 37 40 157 55 180 142 217 119
50 438 112 438 84 0 -45 -309 -451 -714 -938 -402 -482 -718 -832 -882 -976
-161 -141 -271 -201 -309 -169 -20 17 -19 91 1 161 50 168 284 598 881 1615
327 557 364 629 349 687 -3 15 -17 32 -29 36 -51 20 -102 -34 -303 -319 -69
-99 -128 -179 -131 -177 -2 2 -8 82 -14 178 -15 268 -36 329 -153 445 -152
149 -259 165 -552 80 -382 -110 -810 -370 -1249 -758 -71 -63 -250 -232 -396
-374 -146 -142 -278 -265 -292 -273 -69 -37 -34 40 92 196 47 59 205 228 350
376 145 147 260 267 256 267 -12 0 -178 -127 -295 -224 -219 -183 -342 -310
-576 -591 -470 -567 -976 -1399 -1292 -2126 -87 -201 -184 -451 -171 -443 5 3
54 81 109 175 55 93 145 245 199 338 99 166 144 231 162 231 5 0 7 -88 3 -217
-5 -175 -3 -232 9 -288 22 -101 52 -173 95 -230 86 -114 202 -142 369 -90 252
78 581 264 861 487 491 391 1048 943 1708 1694 195 222 255 284 275 284 15 0
-48 -150 -231 -556 -195 -430 -256 -626 -232 -741 19 -92 62 -136 133 -135 52
1 104 30 206 116 184 154 387 379 1128 1251 691 813 973 1132 1030 1167 36 21
74 23 81 4 8 -21 -16 -70 -96 -191 -252 -387 -705 -1497 -745 -1826 -9 -76 7
-97 61 -79 141 46 499 298 840 592 72 62 214 185 315 272 163 141 389 321 394
314 1 -2 -4 -57 -11 -123 -7 -66 -13 -165 -13 -220 -1 -121 21 -178 79 -207
69 -35 217 -19 325 34 87 43 153 95 305 243 223 217 224 217 326 125 100 -91
142 -95 240 -19 99 76 186 182 879 1069 875 1119 1158 1470 1172 1456 10 -10
-114 -282 -352 -776 -228 -472 -374 -801 -409 -919 -28 -95 -17 -223 27 -307
21 -41 73 -84 101 -84 54 0 231 149 599 506 144 140 265 254 268 254 3 0 13
-46 23 -101 21 -119 43 -187 87 -270 35 -64 89 -119 118 -119 22 0 127 109
240 250 128 159 210 249 244 267 28 14 31 14 44 -3 7 -10 13 -33 13 -51 0 -77
59 -151 128 -160 59 -8 123 27 212 117 93 92 170 191 378 486 188 266 289 388
350 420 91 48 93 2 10 -211 -67 -169 -88 -250 -88 -337 0 -61 2 -68 28 -88 22
-18 37 -21 85 -18 125 9 183 78 867 1018 621 853 860 1175 925 1243 62 65 49
1 -68 -328 -230 -644 -323 -871 -393 -955 -16 -18 -53 -49 -84 -68 -73 -46
-108 -79 -131 -124 -26 -51 -24 -93 8 -158 40 -82 36 -156 -16 -355 -25 -94
-45 -194 -48 -242 -6 -79 -5 -83 15 -83 43 0 138 141 297 440 108 204 202 347
257 394 151 129 432 75 1183 -226 863 -347 1396 -650 1768 -1007 282 -271 421
-521 434 -782 3 -62 1 -133 -6 -173 -40 -229 -187 -457 -431 -667 -652 -564
-1674 -941 -4380 -1618 -2592 -649 -4381 -975 -6270 -1142 -294 -26 -702 -32
-793 -11 -107 25 -149 91 -92 148 39 39 195 108 345 153 435 130 990 208 1294
182 179 -15 241 -14 260 5 12 12 16 37 16 105 l0 89 -222 0 c-639 -1 -1083
-36 -1387 -110 -294 -72 -482 -178 -552 -311 -19 -35 -24 -60 -24 -125 0 -71
3 -85 27 -121 53 -80 195 -151 348 -173 225 -33 674 15 1920 205 1314 200
2406 397 3455 621 840 180 1440 330 2370 592 356 101 606 169 1080 297 902
243 1448 431 1940 669 419 203 653 363 920 631 221 221 290 324 335 502 120
467 -158 910 -897 1426 -210 145 -419 268 -678 396 -370 183 -640 290 -1262
498 -211 70 -383 130 -383 133 0 3 75 91 166 195 410 470 586 728 626 919 29
134 -56 239 -193 239 -47 0 -73 -7 -132 -36 -79 -39 -157 -112 -157 -147 0
-30 16 -24 47 16 54 69 153 94 226 58 76 -38 85 -90 32 -195 -89 -175 -498
-734 -646 -880 -71 -70 -124 -96 -218 -105 -63 -6 -76 -4 -86 10 -24 33 6 134
208 691 175 481 302 771 412 936 76 114 128 162 222 208 168 83 605 234 676
235 51 1 54 -1 114 -78 13 -16 27 -25 34 -20 17 10 4 97 -22 150 -38 79 -101
91 -248 48z m-1126 -595 c-4 -12 -22 -47 -40 -78 -156 -265 -1373 -1906 -1571
-2116 l-28 -30 -18 42 c-10 23 -31 120 -48 216 -32 189 -51 253 -81 262 -31
10 -90 -26 -159 -96 -84 -85 -153 -182 -285 -399 -269 -440 -441 -635 -514
-584 -51 36 -15 204 113 527 47 120 86 227 86 237 0 23 -13 32 -34 24 -21 -8
-135 -152 -262 -328 -149 -209 -332 -432 -466 -571 -132 -137 -184 -177 -199
-154 -17 26 18 193 96 459 90 308 99 340 92 347 -17 17 -209 -152 -546 -480
-491 -478 -654 -613 -733 -605 -33 3 -33 4 -32 53 0 65 54 182 425 925 296
592 463 912 504 966 19 25 59 46 202 104 731 299 3410 1296 3491 1299 9 1 11
-6 7 -20z m-4170 -1506 c-139 -217 -1455 -1962 -1652 -2189 -47 -55 -102 -94
-132 -94 -6 0 -15 9 -21 20 -25 46 24 175 209 557 81 166 131 281 129 295 -2
18 -10 24 -35 26 -44 4 -91 -40 -138 -130 -52 -99 -73 -128 -95 -128 -20 0
-23 9 -35 120 -15 131 -106 181 -290 159 -180 -22 -296 -74 -451 -203 -55 -46
-250 -230 -433 -408 -900 -875 -1205 -1150 -1437 -1298 -150 -95 -151 28 -3
380 55 131 782 1587 802 1607 7 6 374 145 817 308 443 163 884 326 980 362
890 330 1762 643 1794 643 4 0 0 -12 -9 -27z m-3398 -746 c-65 -127 -144 -253
-189 -297 -54 -55 -148 -90 -148 -57 0 21 69 123 139 207 98 118 243 272 249
265 3 -3 -20 -56 -51 -118z m-2352 -421 c34 -34 42 -103 23 -196 -52 -248
-344 -800 -618 -1163 -184 -245 -718 -829 -1284 -1404 -377 -383 -598 -579
-826 -733 -168 -113 -293 -161 -424 -162 -67 0 -86 4 -134 29 -209 107 -225
433 -47 968 95 285 199 495 337 678 257 343 912 994 1278 1272 427 323 1049
646 1390 719 36 8 114 15 173 15 101 1 109 -1 132 -23z m3829 -322 c26 -26 18
-69 -28 -157 -113 -217 -463 -686 -689 -924 -127 -134 -241 -212 -292 -199
-47 12 -58 96 -23 179 93 220 488 766 688 950 143 132 296 200 344 151z"/>
<path d="M19180 6788 c-27 -44 -24 -102 6 -106 12 -2 34 8 49 21 34 29 39 82
10 103 -29 21 -43 17 -65 -18z"/>
<path d="M19532 6787 c-33 -39 -18 -138 22 -145 30 -6 66 36 66 79 0 55 -60
100 -88 66z"/>
<path d="M5104 6030 c-186 -94 -812 -735 -1553 -1590 -382 -441 -661 -741
-772 -830 -28 -23 -96 -47 -290 -105 -362 -109 -557 -194 -817 -356 -217 -135
-322 -236 -322 -310 0 -80 103 -117 415 -149 110 -11 203 -22 207 -23 4 -1
-209 -245 -474 -542 -1046 -1174 -1198 -1355 -1198 -1426 0 -32 37 -49 105
-49 l42 0 220 243 c121 133 417 463 658 732 542 606 718 797 910 990 188 188
211 204 310 216 157 20 455 109 820 246 191 72 337 133 705 293 342 148 467
177 736 167 342 -13 667 -87 938 -216 417 -197 721 -524 850 -914 47 -144 60
-237 61 -432 0 -179 -1 -181 -33 -270 -52 -142 -175 -381 -249 -484 -189 -262
-433 -460 -768 -622 -276 -134 -421 -166 -785 -176 -324 -8 -449 18 -522 108
-38 47 -45 97 -23 157 14 36 49 77 154 182 l136 135 -54 3 c-73 4 -180 -15
-220 -39 -63 -38 -127 -236 -119 -363 12 -183 140 -271 467 -322 147 -23 413
-23 555 0 313 51 653 188 941 380 142 94 315 261 392 376 193 288 296 694 264
1039 -43 478 -283 871 -707 1161 -268 183 -540 291 -982 390 -306 69 -312 71
-312 85 0 19 133 142 246 227 54 41 234 173 399 293 1061 772 1361 1032 1405
1214 14 60 5 134 -21 157 -18 16 -20 16 -39 -1 -10 -9 -29 -46 -40 -80 -28
-84 -90 -164 -241 -310 -400 -385 -1110 -900 -1854 -1344 l-320 -191 -420 0
c-470 0 -635 11 -635 41 0 23 376 468 1016 1200 642 735 944 1089 944 1105 0
8 -6 14 -14 14 -7 0 -26 2 -42 5 -19 4 -44 -2 -70 -15z m-1134 -2506 c18 -18
-27 -47 -195 -129 -389 -190 -1079 -435 -1118 -396 -14 14 26 71 236 330 l172
213 447 -4 c310 -2 451 -7 458 -14z m-1384 -168 c22 -58 -318 -481 -430 -536
-105 -51 -471 -49 -575 2 -40 20 -46 27 -49 58 -1 22 5 47 18 67 24 40 117
109 225 168 276 151 787 303 811 241z"/>
<path d="M7335 2779 c-66 -61 -125 -183 -125 -259 0 -42 5 -61 18 -73 79 -71
228 88 240 255 9 124 -47 156 -133 77z"/>
</g>
</svg>
