<svg width="64" height="64" viewBox="0 0 64 64" fill="none" xmlns="http://www.w3.org/2000/svg"><path d="M31.9984 56.5125c14.1385 0 25.6-11.4615 25.6-25.6 0-14.1385-11.4615-25.6-25.6-25.6-14.1385 0-25.59996 11.4615-25.59996 25.6 0 14.1385 11.46146 25.6 25.59996 25.6Z" fill="#c0526f"/><path d="M6.92188 21.6758H56.0131c.2486 0 .4871.0988.663.2746.1758.1758.2746.4143.2746.663v.3251c0 .2487-.0988.4871-.2746.663-.1759.1758-.4144.2746-.663.2746H6.92508" fill="#9FC6E0"/><path d="M6.92188 21.6758H56.0131c.2486 0 .4871.0988.663.2746.1758.1758.2746.4143.2746.663v.3251c0 .2487-.0988.4871-.2746.663-.1759.1758-.4144.2746-.663.2746H6.92508" stroke="#273656" stroke-linecap="round" stroke-linejoin="round"/><path d="M15.8555 35.5665c.6289 0 1.2516-.1239 1.8326-.3646.5811-.2407 1.109-.5935 1.5536-1.0382.4447-.4447.7974-.9726 1.038-1.5537.2406-.581.3644-1.2038.3643-1.8327h-9.5776c0 1.2702.5046 2.4883 1.4027 3.3865.8981.8981 2.1163 1.4027 3.3864 1.4027Z" fill="#fff" stroke="#273656"/><path d="M15.8555 35.5665c.6289 0 1.2516-.1239 1.8326-.3646.5811-.2407 1.109-.5935 1.5536-1.0382.4447-.4447.7974-.9726 1.038-1.5537.2406-.581.3644-1.2038.3643-1.8327h-9.5776c0 1.2702.5046 2.4883 1.4027 3.3865.8981.8981 2.1163 1.4027 3.3864 1.4027Z" fill="#fff" stroke="#273656" stroke-linecap="round" stroke-linejoin="round"/><path d="M28.7351 35.5665c1.2702 0 2.4883-.5046 3.3865-1.4027.8981-.8982 1.4027-2.1163 1.4027-3.3865h-9.5751c-.0002 1.2697.5039 2.4874 1.4014 3.3855.8975.8981 2.1149 1.403 3.3845 1.4037Z" fill="#fff" stroke="#273656"/><path d="M28.7351 35.5665c1.2702 0 2.4883-.5046 3.3865-1.4027.8981-.8982 1.4027-2.1163 1.4027-3.3865h-9.5751c-.0002 1.2697.5039 2.4874 1.4014 3.3855.8975.8981 2.1149 1.403 3.3845 1.4037Z" fill="#fff" stroke="#273656" stroke-linecap="round" stroke-linejoin="round"/><path d="M6.92188 35.5664H56.0131c.2486 0 .4871.0988.663.2746.1758.1759.2746.4143.2746.663v.3251c0 .2487-.0988.4872-.2746.663-.1759.1758-.4144.2746-.663.2746H6.92508" fill="#fff"/><path d="M6.92188 35.5664H56.0131c.2486 0 .4871.0988.663.2746.1758.1759.2746.4143.2746.663v.3251c0 .2487-.0988.4872-.2746.663-.1759.1758-.4144.2746-.663.2746H6.92508" stroke="#273656" stroke-linecap="round" stroke-linejoin="round"/><path d="M54.0009 37.7666H6.92188v6.24H54.0009v-6.24Z" fill="#9FC6E0"/><path d="M6.92188 37.7666H54.0009v6.24H6.92188" stroke="#273656" stroke-linecap="round" stroke-linejoin="round"/><path d="M16.2398 41.9913c.6609 0 1.1968-.5359 1.1968-1.1968 0-.661-.5359-1.1968-1.1968-1.1968-.661 0-1.1968.5358-1.1968 1.1968 0 .6609.5358 1.1968 1.1968 1.1968ZM31.9702 41.9913c.661 0 1.1968-.5359 1.1968-1.1968 0-.661-.5358-1.1968-1.1968-1.1968-.6609 0-1.1968.5358-1.1968 1.1968 0 .6609.5359 1.1968 1.1968 1.1968ZM46.4312 41.9913c.6609 0 1.1968-.5359 1.1968-1.1968 0-.661-.5359-1.1968-1.1968-1.1968-.661 0-1.1968.5358-1.1968 1.1968 0 .6609.5358 1.1968 1.1968 1.1968Z" fill="#fff" stroke="#273656" stroke-linecap="round" stroke-linejoin="round"/><path d="M44.023 35.5636h-7.1949l.3424-7.5226c.0088-.193.0916-.3753.2313-.5088s.3256-.208.5188-.208h5.0093c.1932 0 .3791.0745.5188.208.1397.1335.2225.3158.2313.5088l.343 7.5226Z" fill="#fff" stroke="#273656"/><path d="M44.023 35.5636h-7.1949l.3424-7.5226c.0088-.193.0916-.3753.2313-.5088s.3256-.208.5188-.208h5.0093c.1932 0 .3791.0745.5188.208.1397.1335.2225.3158.2313.5088l.343 7.5226Z" stroke="#273656" stroke-linecap="round" stroke-linejoin="round"/><path d="M44.2112 28.5446h-7.5706v-1.4554c0-.1697.0675-.3325.1875-.4525.12-.1201.2828-.1875.4525-.1875h6.2906c.1697 0 .3325.0674.4525.1875.1201.12.1875.2828.1875.4525v1.4554Z" fill="#9FC6E0" stroke="#273656"/><path d="M44.2112 28.5446h-7.5706v-1.4554c0-.1697.0675-.3325.1875-.4525.12-.1201.2828-.1875.4525-.1875h6.2906c.1697 0 .3325.0674.4525.1875.1201.12.1875.2828.1875.4525v1.4554Z" fill="#9FC6E0" stroke="#273656" stroke-linecap="round" stroke-linejoin="round"/><path d="M53.8129 35.5649H46.618l.3424-5.2973c.0088-.1931.0916-.3753.2313-.5088.1397-.1336.3256-.2081.5188-.208h5.0093c.1933-.0002.3792.0742.519.2078.1397.1335.2225.3159.2311.509l.343 5.2973Z" fill="#fff" stroke="#273656"/><path d="M53.8129 35.5649H46.618l.3424-5.2973c.0088-.1931.0916-.3753.2313-.5088.1397-.1336.3256-.2081.5188-.208h5.0093c.1933-.0002.3792.0742.519.2078.1397.1335.2225.3159.2311.509l.343 5.2973Z" stroke="#273656" stroke-linecap="round" stroke-linejoin="round"/><path d="M54.0005 30.7704h-7.57v-1.4585c0-.1698.0675-.3325.1875-.4526.12-.12.2828-.1874.4525-.1874h6.29c.1697 0 .3325.0674.4525.1874.12.1201.1875.2828.1875.4526v1.4585Z" fill="#9FC6E0" stroke="#273656"/><path d="M54.0005 30.7704h-7.57v-1.4585c0-.1698.0675-.3325.1875-.4526.12-.12.2828-.1874.4525-.1874h6.29c.1697 0 .3325.0674.4525.1874.12.1201.1875.2828.1875.4526v1.4585Z" fill="#9FC6E0" stroke="#273656" stroke-linecap="round" stroke-linejoin="round"/><path d="M25.3595 50.0292v-9.1808c-.0074-.328-.1429-.6401-.3775-.8695-.2346-.2294-.5497-.3578-.8778-.3578-.3282 0-.6432.1284-.8779.3578-.2346.2294-.3701.5415-.3775.8695v9.1808c-.8093.3394-1.4971.9155-1.9732 1.6527-.476.7373-.7181 1.6013-.6943 2.4785 0 2.4103 1.7561 4.3642 3.9225 4.3642s3.9258-1.9507 3.9258-4.3642c.0235-.8775-.2189-1.7417-.6954-2.479-.4765-.7373-1.1649-1.3132-1.9747-1.6522Z" fill="#fff" stroke="#273656"/><path d="M25.3595 50.0292v-9.1808c-.0074-.328-.1429-.6401-.3775-.8695-.2346-.2294-.5497-.3578-.8778-.3578-.3282 0-.6432.1284-.8779.3578-.2346.2294-.3701.5415-.3775.8695v9.1808c-.8093.3394-1.4971.9155-1.9732 1.6527-.476.7373-.7181 1.6013-.6943 2.4785 0 2.4103 1.7561 4.3642 3.9225 4.3642s3.9258-1.9507 3.9258-4.3642c.0235-.8775-.2189-1.7417-.6954-2.479-.4765-.7373-1.1649-1.3132-1.9747-1.6522Z" stroke="#273656" stroke-linecap="round" stroke-linejoin="round"/><path d="M43.6433 50.9995c0-.1665-.0662-.3262-.1839-.444-.1178-.1177-.2775-.1839-.444-.1839h-2.064v-9.5232c-.0074-.328-.1429-.6401-.3775-.8695-.2346-.2294-.5497-.3578-.8778-.3578-.3281 0-.6432.1284-.8778.3578-.2347.2294-.3702.5415-.3776.8695v9.5232h-2.016c-.1665 0-.3262.0662-.4439.1839-.1178.1178-.1839.2775-.1839.444v5.4534c0 .5922.2352 1.1602.654 1.5789.4188.4188.9867.6541 1.5789.6541h3.3805c.2933 0 .5836-.0578.8545-.17.2709-.1122.5171-.2767.7245-.4841.2073-.2073.3718-.4535.484-.7244.1122-.2709.17-.5613.17-.8545v-5.4534Zm-4.8781 5.2614c-.0052.163-.0736.3175-.1907.4309-.1171.1135-.2738.1769-.4368.1769-.1631 0-.3197-.0634-.4368-.1769-.1171-.1134-.1855-.2679-.1907-.4309v-3.6986c-.0027-.084.0115-.1678.0418-.2463.0304-.0785.0762-.1501.1347-.2105.0585-.0604.1286-.1085.2061-.1413.0775-.0328.1607-.0497.2449-.0497.0841 0 .1674.0169.2449.0497.0774.0328.1475.0809.2061.1413.0585.0604.1043.132.1346.2105.0303.0785.0446.1623.0419.2463v3.6986Zm3.1648 0c0 .1665-.0661.3262-.1839.444-.1177.1177-.2774.1838-.4439.1838-.1666 0-.3263-.0661-.444-.1838-.1177-.1178-.1839-.2775-.1839-.444v-3.6986c0-.1665.0662-.3262.1839-.4439.1177-.1177.2774-.1839.444-.1839.1665 0 .3262.0662.4439.1839.1178.1177.1839.2774.1839.4439v3.6986Z" fill="#fff" stroke="#273656"/><path d="M43.6433 50.9995c0-.1665-.0662-.3262-.1839-.444-.1178-.1177-.2775-.1839-.444-.1839h-2.064v-9.5232c-.0074-.328-.1429-.6401-.3775-.8695-.2346-.2294-.5497-.3578-.8778-.3578-.3281 0-.6432.1284-.8778.3578-.2347.2294-.3702.5415-.3776.8695v9.5232h-2.016c-.1665 0-.3262.0662-.4439.1839-.1178.1178-.1839.2775-.1839.444v5.4534c0 .5922.2352 1.1602.654 1.5789.4188.4188.9867.6541 1.5789.6541h3.3805c.2933 0 .5836-.0578.8545-.17.2709-.1122.5171-.2767.7245-.4841.2073-.2073.3718-.4535.484-.7244.1122-.2709.17-.5613.17-.8545v-5.4534Zm-4.8781 5.2614c-.0052.163-.0736.3175-.1907.4309-.1171.1135-.2738.1769-.4368.1769-.1631 0-.3197-.0634-.4368-.1769-.1171-.1134-.1855-.2679-.1907-.4309v-3.6986c-.0027-.084.0115-.1678.0418-.2463.0304-.0785.0762-.1501.1347-.2105.0585-.0604.1286-.1085.2061-.1413.0775-.0328.1607-.0497.2449-.0497.0841 0 .1674.0169.2449.0497.0774.0328.1475.0809.2061.1413.0585.0604.1043.132.1346.2105.0303.0785.0446.1623.0419.2463v3.6986Zm3.1648 0c0 .1665-.0661.3262-.1839.444-.1177.1177-.2774.1838-.4439.1838-.1666 0-.3263-.0661-.444-.1838-.1177-.1178-.1839-.2775-.1839-.444v-3.6986c0-.1665.0662-.3262.1839-.4439.1177-.1177.2774-.1839.444-.1839.1665 0 .3262.0662.4439.1839.1178.1177.1839.2774.1839.4439v3.6986Z" fill="#fff" stroke="#273656" stroke-linecap="round" stroke-linejoin="round"/><path d="M14.7123 17.9197c1.1888.4468 2.5065.4031 3.6631-.1215 1.1567-.5246 2.0576-1.4872 2.5045-2.676l-8.9651-3.3683c-.4462 1.1886-.4022 2.5058.1223 3.662.5246 1.1562 1.4868 2.0568 2.6752 2.5038Z" fill="#fff" stroke="#273656"/><path d="M14.7123 17.9197c1.1888.4468 2.5065.4031 3.6631-.1215 1.1567-.5246 2.0576-1.4872 2.5045-2.676l-8.9651-3.3683c-.4462 1.1886-.4022 2.5058.1223 3.662.5246 1.1562 1.4868 2.0568 2.6752 2.5038Z" fill="#fff" stroke="#273656" stroke-linecap="round" stroke-linejoin="round"/><path d="M15.8554 21.6352c1.27 0 2.488-.5045 3.386-1.4026.898-.898 1.4025-2.1159 1.4025-3.3859h-9.5776c0 .6289.1239 1.2516.3645 1.8326.2407.581.5935 1.1089 1.0382 1.5536.4447.4446.9727.7973 1.5537 1.0379.5811.2406 1.2038.3644 1.8327.3644Z" fill="#fff" stroke="#273656"/><path d="M15.8554 21.6352c1.27 0 2.488-.5045 3.386-1.4026.898-.898 1.4025-2.1159 1.4025-3.3859h-9.5776c0 .6289.1239 1.2516.3645 1.8326.2407.581.5935 1.1089 1.0382 1.5536.4447.4446.9727.7973 1.5537 1.0379.5811.2406 1.2038.3644 1.8327.3644ZM46.8791 21.6429h-.896c-1.5602.0051-3.0592-.6069-4.1702-1.7024-.0137-.0141-.0228-.032-.0262-.0513-.0035-.0193-.001-.0393.007-.0572.0079-.018.0211-.0331.0377-.0436.0167-.0104.0361-.0156.0557-.0149h9.088c.0197-.0007.039.0045.0557.0149.0167.0105.0298.0256.0378.0436.008.0179.0104.0379.007.0572-.0034.0193-.0126.0372-.0262.0513-1.111 1.0955-2.61 1.7075-4.1703 1.7024ZM46.8794 19.7435h-.896c-1.5603.0051-3.0593-.6069-4.1703-1.7024-.0136-.0141-.0228-.032-.0262-.0513-.0034-.0194-.001-.0393.007-.0572.008-.018.0211-.0332.0378-.0436.0166-.0104.036-.0156.0557-.0149h9.088c.0196-.0007.039.0045.0556.0149.0167.0104.0299.0256.0378.0436.008.0179.0105.0378.007.0572-.0034.0193-.0125.0372-.0262.0513-1.111 1.0955-2.61 1.7075-4.1702 1.7024Z" fill="#fff" stroke="#273656" stroke-linecap="round" stroke-linejoin="round"/><path d="M39.0348 19.9693h-.8121v-1.8951h.8121c.2139 0 .419.085.5702.2362.1513.1512.2362.3563.2362.5702v.2791c.0004.1061-.0201.2113-.0605.3095-.0403.0982-.0996.1875-.1745.2627-.075.0753-.164.1349-.2621.1757-.098.0407-.2031.0617-.3093.0617Z" fill="#D6E6F2" stroke="#273656" stroke-linecap="round" stroke-linejoin="round"/><path d="M36.4019 21.6371h-.7443c-.2823 0-.5619-.0556-.8227-.1636-.2608-.1081-.4978-.2664-.6974-.4661-.1997-.1996-.358-.4366-.466-.6974-.1081-.2608-.1637-.5404-.1637-.8227v-1.4131h5.0445v1.4131c0 .2824-.0556.562-.1637.8229-.1081.2608-.2665.4978-.4662.6975-.1997.1996-.4367.3579-.6976.4659-.2609.108-.5405.1636-.8229.1635Z" fill="#fff" stroke="#273656" stroke-linecap="round" stroke-linejoin="round"/><path d="M31.167 19.9693h-.8115v-1.8951h.8115c.2139 0 .419.085.5702.2362.1512.1512.2362.3563.2362.5702v.2791c.0004.1061-.0201.2113-.0605.3095-.0403.0982-.0996.1875-.1746.2627-.0749.0753-.1639.1349-.262.1757-.098.0407-.2031.0617-.3093.0617Z" fill="#D6E6F2" stroke="#273656" stroke-linecap="round" stroke-linejoin="round"/><path d="M28.5347 21.6371h-.7443c-.2823 0-.5619-.0556-.8227-.1636-.2608-.1081-.4978-.2664-.6974-.4661-.1997-.1996-.358-.4366-.466-.6974-.1081-.2608-.1637-.5404-.1637-.8227v-1.4131h5.0445v1.4131c0 .2824-.0556.562-.1637.8229-.1081.2608-.2665.4978-.4662.6975-.1997.1996-.4367.3579-.6976.4659-.2609.108-.5405.1636-.8229.1635Z" fill="#fff" stroke="#273656" stroke-linecap="round" stroke-linejoin="round"/></svg>
