<svg width="64" height="64" viewBox="0 0 64 64" fill="none" xmlns="http://www.w3.org/2000/svg"><path d="M31.9984 57.5984c14.1385 0 25.6-11.4615 25.6-25.6 0-14.1385-11.4615-25.59996-25.6-25.59996-14.1385 0-25.59996 11.46146-25.59996 25.59996 0 14.1385 11.46146 25.6 25.59996 25.6Z" fill="#c0526f"/><path d="M37.5589 16.2128c-.0058-.3978.0675-.7927.2157-1.1619.1482-.3691.3683-.7051.6475-.9884.2792-.2833.612-.5083.9789-.6619.367-.1535.7608-.2326 1.1586-.2326.3977 0 .7915.0791 1.1585.2326.3669.1536.6997.3786.9789.6619.2792.2833.4993.6193.6475.9884.1482.3692.2215.7641.2157 1.1619v21.0035h-6.0013V16.2128Z" fill="#9FC6E0"/><path d="M37.5589 16.2128c-.0058-.3978.0675-.7927.2157-1.1619.1482-.3691.3683-.7051.6475-.9884.2792-.2833.612-.5083.9789-.6619.367-.1535.7608-.2326 1.1586-.2326.3977 0 .7915.0791 1.1585.2326.3669.1536.6997.3786.9789.6619.2792.2833.4993.6193.6475.9884.1482.3692.2215.7641.2157 1.1619v21.0035h-6.0013V16.2128Z" stroke="#273656" stroke-linecap="round" stroke-linejoin="round"/><path d="M43.5599 25.9648h-6.0013v2.2503h6.0013v-2.2503Z" fill="#fff" stroke="#273656" stroke-linecap="round" stroke-linejoin="round"/><path d="M46.5615 13.625H12.8053v2.2502h33.7562V13.625Z" fill="#9FC6E0"/><path d="M46.5615 13.625H12.8053v2.2502h33.7562V13.625Z" stroke="#273656" stroke-linecap="round" stroke-linejoin="round"/><path d="M40.5592 13.2109c-.3941 0-.7843.0777-1.1484.2285-.364.1508-.6948.3719-.9734.6505-.2786.2787-.4996.6095-.6503.9736-.1508.3641-.2283.7543-.2283 1.1484v27.833c0 .1782-.0707.3491-.1968.4751-.126.1261-.2969.1969-.4751.1969H17.2267c-.1782 0-.3492-.0708-.4752-.1969-.126-.126-.1968-.2969-.1968-.4751v-27.833c0-.7959.3162-1.5592.8789-2.122.5628-.5628 1.3261-.879 2.122-.879h21.0036Z" fill="#fff"/><path d="M40.5592 13.2109c-.3941 0-.7843.0777-1.1484.2285-.364.1508-.6948.3719-.9734.6505-.2786.2787-.4996.6095-.6504.9736-.1507.3641-.2282.7543-.2282 1.1484v27.833c0 .1782-.0708.3491-.1968.4751-.126.1261-.2969.1969-.4752.1969H17.2267c-.1782 0-.3492-.0708-.4752-.1969-.126-.126-.1968-.2969-.1968-.4751v-27.833c0-.7959.3162-1.5592.8789-2.122.5628-.5628 1.3261-.879 2.122-.879h21.0036Z" stroke="#273656" stroke-linecap="round" stroke-linejoin="round"/><path d="M37.5588 39.4648H16.5547v2.2503h21.0041v-2.2503ZM37.5588 34.2148H16.5547v2.2503h21.0041v-2.2503Z" fill="#9FC6E0" stroke="#273656" stroke-linecap="round" stroke-linejoin="round"/><path d="M11.68 17.3756c1.4499 0 2.6252-1.1754 2.6252-2.6253 0-1.4499-1.1753-2.6253-2.6252-2.6253s-2.62531 1.1754-2.62531 2.6253c0 1.4499 1.17541 2.6253 2.62531 2.6253Z" fill="#fff" stroke="#273656"/><path d="M11.68 17.3756c1.4499 0 2.6252-1.1754 2.6252-2.6253 0-1.4499-1.1753-2.6253-2.6252-2.6253s-2.62531 1.1754-2.62531 2.6253c0 1.4499 1.17541 2.6253 2.62531 2.6253Z" stroke="#273656" stroke-linecap="round" stroke-linejoin="round"/><path d="M46.9339 17.3756c1.4499 0 2.6253-1.1754 2.6253-2.6253 0-1.4499-1.1754-2.6253-2.6253-2.6253-1.4499 0-2.6253 1.1754-2.6253 2.6253 0 1.4499 1.1754 2.6253 2.6253 2.6253Z" fill="#fff" stroke="#273656"/><path d="M46.9339 17.3756c1.4499 0 2.6253-1.1754 2.6253-2.6253 0-1.4499-1.1754-2.6253-2.6253-2.6253-1.4499 0-2.6253 1.1754-2.6253 2.6253 0 1.4499 1.1754 2.6253 2.6253 2.6253Z" stroke="#273656" stroke-linecap="round" stroke-linejoin="round"/><path d="M43.6722 52.684c0-.6105-1.9802-1.1059-4.4224-1.1059-2.4422 0-4.4224.4954-4.4224 1.1059 0 .6106 1.9802 1.1053 4.4224 1.1053 2.4422 0 4.4224-.4947 4.4224-1.1053Z" fill="#9FC6E0"/><path d="m43.509 38.3761-2.3137 3.6981 3.6981 2.3137 2.3137-3.6981-3.6981-2.3137Z" fill="#fff" stroke="#273656"/><path d="m43.509 38.3761-2.3137 3.6981 3.6981 2.3137 2.3137-3.6981-3.6981-2.3137Z" stroke="#273656" stroke-linecap="round" stroke-linejoin="round"/><path d="M51.9531 29.8871c-2.1613-1.3548-9.1975-3.2992-13.8093-4.4038-.1369-.0328-.2807-.0217-.411.0316-.1303.0532-.2406.1461-.3154.2654l-2.6125 4.1753c-.0746.1194-.1098.2592-.1006.3996.0092.1405.0623.2745.1518.3831 3.008 3.6621 7.8349 9.1386 9.9962 10.4909.7448.4785 1.5772.8045 2.4489.959.8717.1545 1.7654.1345 2.6293-.0589.8639-.1933 1.6808-.5562 2.4035-1.0676.7227-.5113 1.3367-1.161 1.8064-1.9114.4698-.7503.786-1.5865.9303-2.4599.1443-.8734.1139-1.7668-.0896-2.6284-.2034-.8616-.5758-1.6743-1.0956-2.3909-.5198-.7166-1.1766-1.323-1.9324-1.784Z" fill="#9FC6E0" stroke="#273656"/><path d="m33.75 29.3293 1.0419.6521 2.6445-4.224-1.0425-.6521c-.1439-.09-.3176-.1192-.483-.0812-.1654.0381-.3089.1402-.399.2841l-1.9654 3.1392c-.0445.0712-.0746.1506-.0885.2335-.0139.0829-.0113.1677.0076.2496s.0538.1592.1026.2277c.0488.0684.1105.1265.1818.1711Z" fill="#fff" stroke="#273656"/><path d="m33.75 29.3293 1.0419.6521 2.6445-4.224-1.0425-.6521c-.1439-.09-.3176-.1192-.483-.0812-.1654.0381-.3089.1402-.399.2841l-1.9654 3.1392c-.0445.0712-.0746.1506-.0885.2335-.0139.0829-.0113.1677.0076.2496s.0538.1592.1026.2277c.0488.0684.1105.1265.1818.1711v0Z" stroke="#273656" stroke-linecap="round" stroke-linejoin="round"/><path d="M51.9531 29.8871c-2.1613-1.3548-9.1975-3.2992-13.8093-4.4038-.1369-.0328-.2807-.0217-.411.0316-.1303.0532-.2406.1461-.3154.2654l-2.6125 4.1753c-.0746.1194-.1098.2592-.1006.3996.0092.1405.0623.2745.1518.3831 3.008 3.6621 7.8349 9.1386 9.9962 10.4909.7448.4785 1.5772.8045 2.4489.959.8717.1545 1.7654.1345 2.6293-.0589.8639-.1933 1.6808-.5562 2.4035-1.0676.7227-.5113 1.3367-1.161 1.8064-1.9114.4698-.7503.786-1.5865.9303-2.4599.1443-.8734.1139-1.7668-.0896-2.6284-.2034-.8616-.5758-1.6743-1.0956-2.3909-.5198-.7166-1.1766-1.323-1.9324-1.784v0ZM44.7183 41.1409l7.095-11.3401" stroke="#273656" stroke-linecap="round" stroke-linejoin="round"/><path d="M50.3797 36.794c.365-.5834-.2853-1.6483-1.4524-2.3785-1.1671-.7302-2.4092-.8492-2.7742-.2658-.365.5834.2852 1.6483 1.4524 2.3785 1.1671.7302 2.4091.8492 2.7742.2658Z" fill="#fff" stroke="#273656"/><path d="M50.3797 36.794c.365-.5834-.2853-1.6483-1.4524-2.3785-1.1671-.7302-2.4092-.8492-2.7742-.2658-.365.5834.2852 1.6483 1.4524 2.3785 1.1671.7302 2.4091.8492 2.7742.2658Z" stroke="#273656" stroke-linecap="round" stroke-linejoin="round"/><path d="m41.2912 41.3984 3.6172 2.6964c.1118.0818.1928.1987.23.3321.0373.1334.0286.2754-.0245.4032-.6099 1.3928-1.3833 2.7081-2.304 3.9181-.8605 1.1472-1.8123 2.2229-2.8461 3.2166-.124.1201-.2715.2131-.4333.2732-.1617.0602-.3342.0861-.5065.0763-.1723-.0099-.3407-.0554-.4945-.1336-.1538-.0782-.2898-.1874-.3993-.3208l-1.6339-1.9981c-.2037-.249-.3031-.5672-.2775-.8879.0257-.3206.1744-.619.4151-.8324.8029-.7158 1.5319-1.5104 2.176-2.3719.9805-1.3644 1.8123-2.8298 2.4813-4.3712Z" fill="#9FC6E0" stroke="#273656"/><path d="m41.2912 41.3984 3.6172 2.6964c.1118.0818.1928.1987.23.3321.0373.1333.0286.2754-.0245.4032-.6099 1.3928-1.3833 2.7081-2.304 3.9181-.8605 1.1472-1.8123 2.2229-2.8461 3.2166-.124.1201-.2715.2131-.4333.2732-.1617.0602-.3342.0861-.5065.0763-.1723-.0099-.3407-.0554-.4945-.1336-.1538-.0782-.2898-.1874-.3993-.3208l-1.6339-1.9981c-.2037-.249-.3031-.5672-.2775-.8879.0257-.3206.1744-.619.4151-.8324.8029-.7158 1.5319-1.5104 2.176-2.3719.9805-1.3644 1.8123-2.8298 2.4813-4.3712Z" stroke="#273656" stroke-linecap="round" stroke-linejoin="round"/><path d="m41.1868 44.6634-.1472.1976c-.2678.3594-.1936.8678.1658 1.1356l1.1973.8921c.3594.2678.8678.1936 1.1356-.1658l.1472-.1976c.2678-.3594.1936-.8678-.1658-1.1356l-1.1973-.8921c-.3594-.2678-.8678-.1936-1.1356.1658Z" fill="#fff" stroke="#273656" stroke-linecap="round" stroke-linejoin="round"/></svg>
