<svg width="64" height="64" viewBox="0 0 64 64" fill="none" xmlns="http://www.w3.org/2000/svg"><path d="M31.9984 57.5984c14.1385 0 25.6-11.4615 25.6-25.6 0-14.1385-11.4615-25.59996-25.6-25.59996-14.1385 0-25.59996 11.46146-25.59996 25.59996 0 14.1385 11.46146 25.6 25.59996 25.6Z" fill="#c0526f"/><path d="M25.8229 52.457c1.9591.6331 3.9543 1.1484 5.975 1.543 2.2726.4576 4.6298.2329 6.7751-.6458 2.1062-.8582 5.0227-2.1286 8.1043-3.7203.2502-.1225.4538-.3231.5802-.5713.1263-.2483.1687-.5309.1206-.8053-.0344-.1668-.1028-.3248-.2009-.4639-.0982-.1392-.224-.2567-.3696-.345-.1456-.0884-.3078-.1457-.4766-.1685-.1688-.0229-.3405-.0106-.5043.0359l-7.4912 3.2237c-.283.1219-.5879.1846-.896.1843h-1.6902c1.5897 0 2.5977-.4889 2.9581-1.4355.0466-.1302.0612-.2696.0426-.4067-.0187-.137-.07-.2675-.1497-.3805-.0797-.113-.1855-.2051-.3083-.2686-.1229-.0635-.2592-.0965-.3974-.0962h-3.9168c-.544 0-2.3354-2.5894-4.8935-2.5894h-3.264l.0026 6.9101Z" fill="#fff" stroke="#273656" stroke-miterlimit="10"/><path d="M23.2344 53.3114h1.9494c.1698 0 .3325-.0675.4526-.1875.12-.12.1874-.2828.1874-.4525v-7.3517c0-.1698-.0674-.3325-.1874-.4526-.1201-.12-.2828-.1874-.4526-.1874h-1.9494v8.6317Z" fill="#fff" stroke="#273656" stroke-miterlimit="10"/><path d="M23.2344 53.3114h1.9494c.1698 0 .3325-.0675.4526-.1875.12-.12.1874-.2828.1874-.4525v-7.3517c0-.1698-.0674-.3325-.1874-.4526-.1201-.12-.2828-.1874-.4526-.1874h-1.9494v8.6317Z" stroke="#273656" stroke-linecap="round" stroke-linejoin="round"/><path d="M22.5936 43.8164h-3.8989c-.3535 0-.64.2865-.64.64v9.0784c0 .3535.2865.64.64.64h3.8989c.3534 0 .64-.2865.64-.64v-9.0784c0-.3535-.2866-.64-.64-.64Z" fill="#9FC6E0" stroke="#273656" stroke-linecap="round" stroke-linejoin="round"/><path d="M22.5936 43.8164h-3.8989c-.3535 0-.64.2865-.64.64v9.0784c0 .3535.2865.64.64.64h3.8989c.3534 0 .64-.2865.64-.64v-9.0784c0-.3535-.2866-.64-.64-.64Z" stroke="#273656" stroke-linecap="round" stroke-linejoin="round"/><path d="M21.8465 51.5854c0 .2378-.0705.4703-.2026.6681-.1322.1977-.32.3519-.5397.4429-.2198.091-.4616.1148-.6948.0684-.2333-.0464-.4476-.1609-.6158-.3291-.1682-.1682-.2827-.3824-.3291-.6157s-.0226-.4751.0684-.6948c.0911-.2198.2452-.4076.443-.5397.1977-.1322.4302-.2027.6681-.2027.3189.0002.6246.1269.8501.3524.2255.2255.3523.5313.3524.8502Z" fill="#fff" stroke="#273656" stroke-linecap="round" stroke-linejoin="round"/><path d="M25.8229 52.457c1.9591.6331 3.9543 1.1484 5.975 1.543 2.2726.4576 4.6298.2329 6.7751-.6458 2.1062-.8582 5.0227-2.1286 8.1043-3.7203.2502-.1225.4538-.3231.5802-.5713.1263-.2483.1687-.5309.1206-.8053-.0344-.1668-.1028-.3248-.2009-.4639-.0982-.1392-.224-.2567-.3696-.345-.1456-.0884-.3078-.1457-.4766-.1685-.1688-.0229-.3405-.0106-.5043.0359l-7.4912 3.2237c-.283.1219-.5879.1846-.896.1843h-1.6902c1.5897 0 2.5977-.4889 2.9581-1.4355.0466-.1302.0612-.2696.0426-.4067-.0187-.137-.07-.2675-.1497-.3805-.0797-.113-.1855-.2051-.3083-.2686-.1229-.0635-.2592-.0965-.3974-.0962h-3.9168c-.544 0-2.3354-2.5894-4.8935-2.5894h-3.264l.0026 6.9101ZM35.7506 50.7227h-3.2858" stroke="#273656" stroke-linecap="round" stroke-linejoin="round"/><path d="M31.9822 9.36719c-7.3926.00896-14.9549 5.23201-14.9549 17.16991h2.2157c0-10.6163 5.5386-14.4 12.736-14.9555 7.2007.5542 12.7399 4.3392 12.7399 14.9555h2.215c.0032-11.9379-7.5584-17.16095-14.9517-17.16991Z" fill="#fff" stroke="#273656" stroke-linecap="round" stroke-linejoin="round"/><path d="M20.2634 38.1665h-3.7907V26.5352h3.7907c.1697 0 .3325.0674.4525.1874.12.12.1875.2828.1875.4526v10.3513c0 .1698-.0675.3325-.1875.4526-.12.12-.2828.1874-.4525.1874Z" fill="#9FC6E0" stroke="#273656" stroke-linecap="round" stroke-linejoin="round"/><path d="M16.4743 38.1665c-2.4473 0-4.4313-2.6041-4.4313-5.8157 0-3.2115 1.984-5.8156 4.4313-5.8156v11.6313Z" fill="#fff" stroke="#273656" stroke-miterlimit="10"/><path d="M16.4743 38.1665c-2.4473 0-4.4313-2.6041-4.4313-5.8157 0-3.2115 1.984-5.8156 4.4313-5.8156v11.6313Z" stroke="#273656" stroke-linecap="round" stroke-linejoin="round"/><path d="M43.7025 38.1665h3.7914V26.5352h-3.7914c-.1697 0-.3325.0674-.4525.1874-.1201.12-.1875.2828-.1875.4526v10.3513c0 .1698.0674.3325.1875.4526.12.12.2828.1874.4525.1874Z" fill="#9FC6E0" stroke="#273656" stroke-linecap="round" stroke-linejoin="round"/><path d="M47.4913 38.1665c2.4474 0 4.4308-2.6041 4.4308-5.8157 0-3.2115-1.984-5.8156-4.4308-5.8156v11.6313Z" fill="#fff" stroke="#273656" stroke-miterlimit="10"/><path d="M47.4913 38.1665c2.4474 0 4.4308-2.6041 4.4308-5.8157 0-3.2115-1.984-5.8156-4.4308-5.8156v11.6313Z" stroke="#273656" stroke-linecap="round" stroke-linejoin="round"/><path d="M38.7786 10.3383c-2.0498-1.24336-4.4013-1.9008-6.7988-1.9008-2.3974 0-4.7489.65744-6.7987 1.9008-.392.2493-.6699.6432-.7734 1.0961-.1036.4529-.0243.9284.2204 1.3233.2448.3949.6354.6773 1.0871.7861.4517.1087.9281.035 1.3258-.2052 1.4894-.9022 3.1975-1.3791 4.9388-1.3791 1.7414 0 3.4495.4769 4.9389 1.3791.1971.1253.417.2103.6471.25.2301.0397.4659.0334.6935-.0186.2276-.0521.4427-.1487.6327-.2845.19-.1357.3512-.3078.4743-.5063.123-.1985.2054-.4194.2425-.65.037-.2305.0279-.4661-.0267-.6932-.0547-.227-.1538-.4409-.2918-.6294-.1379-.1884-.3119-.3476-.5117-.4683Z" fill="#9FC6E0" stroke="#273656" stroke-linecap="round" stroke-linejoin="round"/><path d="M47.493 38.168s-1.3439 4.3622-7.95 4.3622" stroke="#273656" stroke-linecap="round" stroke-linejoin="round"/><path d="M40.0153 42.4497c0 .313-.1243.6132-.3456.8345-.2214.2213-.5215.3457-.8345.3457h-2.7136c-.313 0-.6132-.1244-.8345-.3457-.2214-.2213-.3457-.5215-.3457-.8345 0-.313.1243-.6132.3457-.8345.2213-.2213.5215-.3457.8345-.3457h2.7136c.155-.0001.3085.0304.4517.0897.1432.0593.2734.1462.383.2558.1096.1096.1965.2397.2558.383.0592.1432.0897.2967.0896.4517Z" fill="#9FC6E0" stroke="#273656" stroke-linecap="round" stroke-linejoin="round"/><path d="M38.7786 10.3383c-2.0498-1.24336-4.4013-1.9008-6.7988-1.9008-2.3974 0-4.7489.65744-6.7987 1.9008-.392.2493-.6699.6432-.7734 1.0961-.1036.4529-.0243.9284.2204 1.3233.2448.3949.6354.6773 1.0871.7861.4517.1087.9281.035 1.3258-.2052 1.4894-.9022 3.1975-1.3791 4.9388-1.3791 1.7414 0 3.4495.4769 4.9389 1.3791.1971.1253.417.2103.6471.25.2301.0397.4659.0334.6935-.0186.2277-.0521.4427-.1487.6327-.2845.19-.1357.3512-.3078.4743-.5063.123-.1985.2054-.4194.2425-.65.037-.2305.0279-.4661-.0267-.6932-.0547-.227-.1538-.4409-.2918-.6294-.1379-.1884-.3119-.3476-.5117-.4683v0Z" stroke="#273656" stroke-linecap="round" stroke-linejoin="round"/></svg>
