<svg width="64" height="64" viewBox="0 0 64 64" fill="none" xmlns="http://www.w3.org/2000/svg"><path d="M31.9984 58.5594c14.1385 0 25.6-11.4615 25.6-25.6 0-14.1385-11.4615-25.60002-25.6-25.60002-14.1385 0-25.59996 11.46152-25.59996 25.60002s11.46146 25.6 25.59996 25.6Z" fill="#c0526f"/><path d="M47.8461 38.7275H16.1508c-.5427.0009-1.0627.217-1.4461.601-.3834.384-.5987.9044-.5987 1.447v3.577c5.9019 1.0776 11.8932 1.5904 17.8924 1.5315 5.9994.0575 11.9907-.4569 17.8925-1.536v-3.5757c-.0008-.542-.2165-1.0616-.5998-1.4449s-.9029-.599-1.445-.5999Z" fill="#fff" stroke="#273656"/><path d="M47.8461 38.7275H16.1508c-.5427.0009-1.0627.217-1.4461.601-.3834.384-.5987.9044-.5987 1.447v3.577c5.9019 1.0776 11.8932 1.5904 17.8924 1.5315 5.9994.0575 11.9907-.4569 17.8925-1.536v-3.5757c-.0008-.542-.2165-1.0616-.5998-1.4449s-.9029-.599-1.445-.5999v0Z" stroke="#273656" stroke-linecap="round" stroke-linejoin="round"/><path d="M21.2617 41.2795c.0112.2084-.0201.4169-.0921.6128-.072.1959-.1831.375-.3267.5265-.1435.1515-.3164.2722-.5081.3547-.1917.0824-.3982.1249-.6069.1249s-.4152-.0425-.6069-.1249c-.1917-.0825-.3646-.2032-.5082-.3547-.1435-.1515-.2546-.3306-.3266-.5265-.072-.1959-.1033-.4044-.0921-.6128v-2.5529h3.0676v2.5529ZM26.3752 41.2805c.0112.2084-.0201.4169-.0921.6128-.072.1959-.1831.375-.3266.5265-.1436.1515-.3165.2722-.5082.3546-.1917.0825-.3982.125-.6069.125s-.4152-.0425-.6069-.125c-.1917-.0824-.3646-.2031-.5081-.3546-.1436-.1515-.2547-.3306-.3267-.5265-.072-.1959-.1033-.4044-.092-.6128v-2.553h3.0675v2.553ZM31.487 41.2805c.0121.2088-.0186.4179-.0902.6145-.0716.1965-.1826.3763-.3262.5285-.1436.1521-.3167.2733-.5088.3561-.192.0828-.399.1255-.6082.1255-.2092 0-.4161-.0427-.6082-.1255-.1921-.0828-.3652-.204-.5088-.3561-.1436-.1522-.2546-.332-.3262-.5285-.0716-.1966-.1023-.4057-.0902-.6145v-2.553h3.0668v2.553ZM41.7114 41.2805c.0121.2088-.0186.4179-.0902.6145-.0716.1965-.1826.3763-.3262.5285-.1436.1521-.3167.2733-.5088.3561-.1921.0828-.3991.1255-.6082.1255-.2092 0-.4162-.0427-.6083-.1255-.192-.0828-.3652-.204-.5087-.3561-.1436-.1522-.2546-.332-.3262-.5285-.0716-.1966-.1023-.4057-.0903-.6145v-2.553h3.0669v2.553ZM46.8237 41.2805c.0121.2088-.0186.4179-.0902.6145-.0716.1965-.1826.3763-.3262.5285-.1436.1521-.3167.2733-.5088.3561-.1921.0828-.3991.1255-.6082.1255-.2092 0-.4162-.0427-.6083-.1255-.192-.0828-.3652-.204-.5087-.3561-.1436-.1522-.2546-.332-.3262-.5285-.0716-.1966-.1023-.4057-.0903-.6145v-2.553h3.0669v2.553Z" fill="#9FC6E0" stroke="#273656" stroke-linecap="round" stroke-linejoin="round"/><path d="M20.2388 38.7289h2.048V24.4146c0-.2716-.1079-.532-.3-.7241-.192-.192-.4524-.2999-.724-.2999-.2716 0-.5321.1079-.7241.2999-.192.1921-.2999.4525-.2999.7241v14.3143ZM43.7555 38.7289h-2.048V24.4146c0-.2716.1079-.532.2999-.7241.1921-.192.4525-.2999.7241-.2999.2716 0 .5321.1079.7241.2999.192.1921.2999.4525.2999.7241v14.3143ZM31.9984 45.8837c-5.9994.0573-11.9906-.457-17.8924-1.536l5.1123 4.6009h25.5603l5.1123-4.5965c-5.902 1.0775-11.8932 1.5904-17.8925 1.5316Z" fill="#fff" stroke="#273656" stroke-linecap="round" stroke-linejoin="round"/><path d="M45.351 10.97c.2319.2317.3622.546.3623.8738.0001.3277-.13.6421-.3617.874-.2317.2319-.546.3622-.8738.3623-.3277.0001-.6421-.13-.874-.3616-3.0779-3.07716-7.2519-4.8058-11.6042-4.8058-4.3522 0-8.5262 1.72864-11.6041 4.8058-.2318.2317-.5462.3619-.8739.3619-.3278 0-.6422-.1302-.874-.3619-.2317-.2318-.362-.5462-.362-.874s.1303-.6421.362-.8739c3.5415-3.54034 8.3441-5.52919 13.3517-5.52919s9.8102 1.98885 13.3517 5.52919V10.97Z" fill="#9FC6E0" stroke="#273656" stroke-linecap="round" stroke-linejoin="round"/><path d="M41.0102 15.3086c.2319.2317.3622.546.3623.8738.0002.3278-.1299.6422-.3616.874-.2317.2319-.546.3622-.8738.3623-.3278.0002-.6422-.1299-.8741-.3616-.9539-.954-2.0864-1.7107-3.3327-2.227-1.2464-.5162-2.5822-.782-3.9313-.782-1.349 0-2.6849.2658-3.9312.782-1.2464.5163-2.3789 1.273-3.3328 2.227-.1147.1148-.2509.2059-.4009.2681-.1499.0622-.3107.0942-.473.0942s-.3231-.032-.473-.0942c-.15-.0622-.2862-.1533-.4009-.2681-.2316-.2318-.3617-.546-.3617-.8736 0-.3277.1301-.6419.3617-.8736 2.39-2.3895 5.6313-3.7318 9.0109-3.7318 3.3796 0 6.6208 1.3423 9.0108 3.7318l.0013-.0013ZM36.6676 19.6493l.0039.0044c.1177.1142.2115.2506.2759.4013.0645.1508.0983.3128.0995.4768.0013.1639-.0302.3265-.0924.4781-.0622.1517-.154.2895-.27.4054-.116.1158-.2539.2075-.4056.2695-.1518.0621-.3143.0933-.4783.0919-.1639-.0014-.326-.0354-.4766-.1-.1507-.0646-.287-.1586-.401-.2764h-.0038c-.7751-.7736-1.8253-1.2081-2.9204-1.2081-1.095 0-2.1453.4345-2.9203 1.2081-.1147.1148-.2509.206-.4009.2681-.1499.0622-.3107.0942-.473.0942s-.3231-.032-.473-.0942c-.15-.0621-.2862-.1533-.4009-.2681-.2315-.2318-.3615-.546-.3615-.8736s.13-.6418.3615-.8736c1.238-1.2379 2.9169-1.9336 4.6677-1.9343 1.7507-.0008 3.4301.6936 4.6692 1.9305Z" fill="#9FC6E0" stroke="#273656" stroke-linecap="round" stroke-linejoin="round"/></svg>
