<svg width="64" height="64" viewBox="0 0 64 64" fill="none" xmlns="http://www.w3.org/2000/svg"><path d="M31.4821 58.493c14.1385 0 25.6-11.4615 25.6-25.6 0-14.1385-11.4615-25.60003-25.6-25.60003-14.1385 0-25.60002 11.46153-25.60002 25.60003s11.46152 25.6 25.60002 25.6Z" fill="#c0526f"/><path d="M31.9998 53.2245c13.8225 0 25.0278-.5209 25.0278-1.1635s-11.2053-1.1635-25.0278-1.1635-25.02788.5209-25.02788 1.1635 11.20538 1.1635 25.02788 1.1635Z" fill="#9FC6E0"/><path d="M58.2714 28.2842H5.728c-.49591 0-.89792.402-.89792.8979v1.4208c0 .4959.40201.8979.89792.8979h52.5434c.4959 0 .8979-.402.8979-.8979v-1.4208c0-.4959-.402-.8979-.8979-.8979ZM18.9598 43.3193H9.31885v2.8282h9.64095v-2.8282Z" fill="#9FC6E0" stroke="#273656" stroke-linecap="round" stroke-linejoin="round"/><path d="M9.80508 51.2546c-.04383.1998-.15471.3786-.31421.5066-.15951.1281-.35803.1977-.56259.1974H7.7366c-.1341.0002-.26655-.0296-.38757-.0874-.12103-.0578-.22754-.142-.31169-.2464-.08415-.1044-.14379-.2264-.17451-.3569-.03073-.1306-.03176-.2663-.00303-.3973l4.249-19.3696h3.0297L9.80508 51.2546Z" fill="#fff" stroke="#273656" stroke-linecap="round" stroke-linejoin="round"/><path d="M18.4716 51.2546c.0439.1998.1547.3786.3142.5066.1595.1281.3581.1977.5626.1974h1.1949c.1341.0002.2666-.0296.3876-.0874.121-.0578.2275-.142.3117-.2464.0841-.1044.1438-.2264.1745-.3569.0307-.1306.0317-.2663.003-.3973L17.1679 31.501h-3.0297l4.3334 19.7536Z" fill="#fff" stroke="#273656" stroke-linecap="round" stroke-linejoin="round"/><path d="M18.9595 33.4319c0 .2376-.0944.4655-.2625.6335-.168.1681-.3959.2625-.6335.2625h-7.8471c-.1176 0-.23414-.0232-.34285-.0683-.10871-.045-.20748-.111-.29068-.1942-.0832-.0832-.1492-.182-.19423-.2907-.04503-.1087-.06821-.2252-.06821-.3428V31.501h9.63907v1.9309Z" fill="#9FC6E0"/><path d="M54.682 43.3193h-9.641v2.8282h9.641v-2.8282Z" fill="#9FC6E0" stroke="#273656" stroke-linecap="round" stroke-linejoin="round"/><path d="M45.5271 51.2546c-.0438.1998-.1547.3786-.3142.5066-.1595.1281-.358.1977-.5626.1974h-1.1917c-.1341.0002-.2665-.0296-.3875-.0874-.1211-.0578-.2276-.142-.3117-.2464-.0842-.1044-.1438-.2264-.1745-.3569-.0308-.1306-.0318-.2663-.0031-.3973l4.249-19.3696h3.0298l-4.3335 19.7536ZM54.1951 51.2546c.0439.1998.1547.3786.3143.5066.1595.1281.358.1977.5625.1974h1.1917c.1341.0002.2666-.0296.3876-.0874.121-.0578.2275-.142.3117-.2464.0841-.1044.1438-.2264.1745-.3569.0307-.1306.0317-.2663.003-.3973L52.8915 31.501h-3.0298l4.3334 19.7536Z" fill="#fff" stroke="#273656" stroke-linecap="round" stroke-linejoin="round"/><path d="M54.6812 33.4319c0 .2376-.0944.4655-.2624.6335-.1681.1681-.396.2625-.6336.2625h-7.8477c-.2376 0-.4655-.0944-.6336-.2625-.168-.168-.2624-.3959-.2624-.6335V31.501h9.6397v1.9309Z" fill="#9FC6E0"/><path d="M18.9595 33.4319c0 .2376-.0944.4655-.2625.6335-.168.1681-.3959.2625-.6335.2625h-7.8471c-.1176 0-.23414-.0232-.34285-.0683-.10871-.045-.20748-.111-.29068-.1942-.0832-.0832-.1492-.182-.19423-.2907-.04503-.1087-.06821-.2252-.06821-.3428V31.501h9.63907v1.9309ZM54.6812 33.4319c0 .2376-.0944.4655-.2624.6335-.1681.1681-.396.2625-.6336.2625h-7.8477c-.2376 0-.4655-.0944-.6336-.2625-.168-.168-.2624-.3959-.2624-.6335V31.501h9.6397v1.9309Z" stroke="#273656" stroke-linecap="round" stroke-linejoin="round"/><path d="M46.8483 28.2866c0-.9128.3626-1.7883 1.0081-2.4338.6455-.6454 1.5209-1.0081 2.4338-1.0081.9128 0 1.7883.3627 2.4338 1.0081.6455.6455 1.0081 1.521 1.0081 2.4338h-6.8838ZM43.8937 9.99452c1.2393 0 2.2439-1.00461 2.2439-2.24384 0-1.23924-1.0046-2.24384-2.2439-2.24384-1.2392 0-2.2438 1.0046-2.2438 2.24384 0 1.23923 1.0046 2.24384 2.2438 2.24384ZM54.1962 17.7572c1.1347 0 2.0544-.9197 2.0544-2.0544 0-1.1346-.9197-2.0544-2.0544-2.0544-1.1346 0-2.0544.9198-2.0544 2.0544 0 1.1347.9198 2.0544 2.0544 2.0544Z" fill="#fff" stroke="#273656" stroke-linecap="round" stroke-linejoin="round"/><path d="m53.8288 17.7227-2.5229 7.2723M46.1377 7.75l6.9389 6.2298" stroke="#273656" stroke-linecap="round" stroke-linejoin="round"/><path d="M39.1529 13.754c1.3014 0 2.3564-1.0551 2.3564-2.3565 0-1.3015-1.055-2.35648-2.3564-2.35648-1.3015 0-2.3565 1.05498-2.3565 2.35648 0 1.3014 1.055 2.3565 2.3565 2.3565Z" fill="#fff" stroke="#273656" stroke-linecap="round" stroke-linejoin="round"/><path d="M34.2432 9.80575c.2092-.64472.5433-1.24192.9833-1.7575.44-.51559.9772-.93947 1.581-1.24743s1.2624-.49398 1.938-.54744c.6757-.05345 1.3553.0267 2.0001.23589.6447.20919 1.2419.54332 1.7575.98331.5156.43999.9394.97722 1.2474 1.58103.308.6038.494 1.26239.5474 1.93809.0535.6756-.0267 1.3553-.2359 2l-9.8188-3.18595Z" fill="#9FC6E0" stroke="#273656" stroke-linecap="round" stroke-linejoin="round"/><path d="m33.3901 9.52832 11.5264 3.73888" stroke="#273656" stroke-linecap="round" stroke-linejoin="round"/><path d="M40.0908 26.5283H24.2879c-.485 0-.8781.3931-.8781.8781 0 .4849.3931.8781.8781.8781h15.8029c.4849 0 .878-.3932.878-.8781 0-.485-.3931-.8781-.878-.8781ZM40.9688 24.7725H25.1653c-.4849 0-.8781.3929-.8781.8777s.3932.8778.8781.8778h15.8035c.485 0 .8781-.393.8781-.8778s-.3931-.8777-.8781-.8777Z" fill="#fff" stroke="#273656" stroke-linecap="round" stroke-linejoin="round"/><path d="m11.1858 15.9482-2.26185.5684 2.15995 8.5948 2.2619-.5684-2.16-8.5948Z" fill="#9FC6E0" stroke="#273656" stroke-linecap="round" stroke-linejoin="round"/><path d="m11.1855 15.9489-2.26117.5683-.33728-1.3395c-.06085-.2442-.0224-.5026.10692-.7185.12932-.216.33897-.3718.583-.4335l.41728-.1049c.24432-.0609.50275-.0223.71875.1071.2159.1295.3718.3393.4333.5834l.3392 1.3376Z" fill="#fff" stroke="#273656" stroke-linecap="round" stroke-linejoin="round"/><path d="m14.403 16.9747-1.8728 6.3036 2.9809.8857 1.8729-6.3037-2.981-.8856Z" fill="#9FC6E0" stroke="#273656" stroke-linecap="round" stroke-linejoin="round"/><path d="m17.3842 17.8608-2.9843-.8851.1824-.6138c.1667-.4667.4881-.8624.9107-1.1213.2732-.1292.5823-.1612.8762-.0908l.3603.1068c.2846.1017.526.2974.6842.5549l.1452.2675c.1292.273.1614.5818.0916.8756l-.2663.9062Z" fill="#fff" stroke="#273656" stroke-linecap="round" stroke-linejoin="round"/><path d="M17.1589 26.4893c0 .4756-.1887.9317-.5247 1.2683-.336.3365-.7917.526-1.2673.5269h-4.4013c-.4756 0-.9317-.1887-1.26826-.5247-.33657-.336-.52608-.7917-.52693-1.2673v-4.8608c.00068-.2072.08329-.4058.22981-.5523.14652-.1465.34506-.2291.55227-.2298h6.42431c.2072.0007.4058.0833.5523.2298.1465.1465.2291.3451.2298.5523v4.8576Z" fill="#fff"/><path d="M17.1589 26.4893c0 .4756-.1887.9317-.5247 1.2683-.336.3365-.7917.526-1.2673.5269h-4.4013c-.4756 0-.9317-.1887-1.26826-.5247-.33657-.336-.52608-.7917-.52693-1.2673v-4.8608c.00068-.2072.08329-.4058.22981-.5523.14652-.1465.34506-.2291.55227-.2298h6.42431c.2072.0007.4058.0833.5523.2298.1465.1465.2291.3451.2298.5523v4.8576Z" stroke="#273656" stroke-linecap="round" stroke-linejoin="round"/><path d="M14.4968 20.8525h-2.6631v7.4317h2.6631v-7.4317Z" stroke="#273656" stroke-linecap="round" stroke-linejoin="round"/></svg>
