<svg width="24" height="24" fill="none" xmlns="http://www.w3.org/2000/svg"><path clip-rule="evenodd" d="M1.5 2.5a1 1 0 011-1h19a1 1 0 011 1v19a1 1 0 01-1 1h-19a1 1 0 01-1-1v-19z" stroke="#d9043e" stroke-width="1.5" stroke-linecap="round" stroke-linejoin="round"/><path d="M6 11.625a.375.375 0 110 .75.375.375 0 010-.75M12 11.625a.375.375 0 110 .75.375.375 0 010-.75M18 11.625a.375.375 0 110 .75.375.375 0 010-.75M9 14.625a.375.375 0 110 .75.375.375 0 010-.75M15 14.625a.375.375 0 110 .75.375.375 0 010-.75M6 17.625a.375.375 0 110 .75.375.375 0 010-.75M12 17.625a.375.375 0 110 .75.375.375 0 010-.75M18 17.625a.375.375 0 110 .75.375.375 0 010-.75" stroke="#d9043e" stroke-width="1.5" stroke-linecap="round" stroke-linejoin="round"/></svg>
