<svg width="24" height="24" fill="none" xmlns="http://www.w3.org/2000/svg"><path d="M8.25 11.5h7.5" stroke="#d9043e" stroke-width="1.5" stroke-linecap="round" stroke-linejoin="round"/><path clip-rule="evenodd" d="M6.75 17.5a1.5 1.5 0 01-1.5-1.5V7a1.5 1.5 0 113 0v9a1.5 1.5 0 01-1.5 1.5z" stroke="#d9043e" stroke-width="1.5" stroke-linecap="round" stroke-linejoin="round"/><path d="M2.25 11.5H.75" stroke="#d9043e" stroke-width="1.5" stroke-linecap="round" stroke-linejoin="round"/><path clip-rule="evenodd" d="M3.75 8.5a1.5 1.5 0 00-1.5 1.5v3a1.5 1.5 0 003 0v-3a1.5 1.5 0 00-1.5-1.5zM17.25 17.5a1.5 1.5 0 001.5-1.5V7a1.5 1.5 0 00-3 0v9a1.5 1.5 0 001.5 1.5z" stroke="#d9043e" stroke-width="1.5" stroke-linecap="round" stroke-linejoin="round"/><path d="M21.75 11.5h1.5" stroke="#d9043e" stroke-width="1.5" stroke-linecap="round" stroke-linejoin="round"/><path clip-rule="evenodd" d="M20.25 8.5a1.5 1.5 0 011.5 1.5v3a1.5 1.5 0 01-3 0v-3a1.5 1.5 0 011.5-1.5z" stroke="#d9043e" stroke-width="1.5" stroke-linecap="round" stroke-linejoin="round"/></svg>
