<svg width="24" height="24" fill="none" xmlns="http://www.w3.org/2000/svg"><path clip-rule="evenodd" d="M2.25 3.18a1.5 1.5 0 011.5-1.5h16.5a1.5 1.5 0 011.5 1.5v18.6a1.5 1.5 0 01-1.5 1.5H3.75a1.5 1.5 0 01-1.5-1.5V3.18z" stroke="#d9043e" stroke-width="1.5" stroke-linecap="round" stroke-linejoin="round"/><path d="M5.25 4.56h3M2.25 7.44h19.5" stroke="#d9043e" stroke-width="1.5" stroke-linecap="round" stroke-linejoin="round"/><path clip-rule="evenodd" d="M12 20.4c2.9 0 5.25-2.256 5.25-5.04 0-2.783-2.35-5.04-5.25-5.04s-5.25 2.257-5.25 5.04c0 2.784 2.35 5.04 5.25 5.04z" stroke="#d9043e" stroke-width="1.5" stroke-linecap="round" stroke-linejoin="round"/><path d="M18 4.2c.207 0 .375.161.375.36 0 .199-.168.36-.375.36a.368.368 0 01-.375-.36c0-.199.168-.36.375-.36M13.5 4.2c.207 0 .375.161.375.36 0 .199-.168.36-.375.36a.368.368 0 01-.375-.36c0-.199.168-.36.375-.36M9.75 15.36c0-1.193 1.007-2.16 2.25-2.16" stroke="#d9043e" stroke-width="1.5" stroke-linecap="round" stroke-linejoin="round"/></svg>
