<?xml version="1.0" standalone="no"?>
<!DOCTYPE svg PUBLIC "-//W3C//DTD SVG 20010904//EN"
 "http://www.w3.org/TR/2001/REC-SVG-20010904/DTD/svg10.dtd">
<svg version="1.0" xmlns="http://www.w3.org/2000/svg"
 width="512.000000pt" height="512.000000pt" viewBox="0 0 512.000000 512.000000"
 preserveAspectRatio="xMidYMid meet">

<g transform="translate(0.000000,512.000000) scale(0.100000,-0.100000)"
fill="#000000" stroke="none">
<path d="M2370 5113 c-379 -36 -661 -116 -980 -278 -378 -193 -717 -497 -965
-865 -104 -156 -232 -419 -294 -605 -49 -150 -89 -321 -113 -490 -17 -118 -17
-512 0 -630 42 -295 120 -553 242 -800 137 -280 272 -468 494 -691 221 -220
412 -357 681 -489 188 -92 309 -137 500 -185 500 -126 1002 -102 1490 71 149
53 407 182 540 271 299 199 573 480 769 788 72 113 188 353 235 486 235 662
194 1372 -115 1993 -124 250 -263 447 -458 648 -216 224 -428 378 -711 518
-296 146 -572 225 -900 255 -102 9 -333 11 -415 3z m253 -1287 c48 -20 997
-984 1020 -1037 31 -68 4 -151 -66 -203 -28 -20 -41 -21 -418 -24 l-389 -3 0
-557 c0 -521 -2 -560 -19 -597 -76 -164 -298 -166 -382 -3 -18 35 -19 66 -19
597 l0 560 -389 3 c-377 3 -390 4 -418 24 -38 28 -71 79 -79 121 -14 75 1 93
516 615 266 270 498 497 515 504 39 17 88 17 128 0z"/>
</g>
</svg>
