<?xml version="1.0" standalone="no"?>
<!DOCTYPE svg PUBLIC "-//W3C//DTD SVG 20010904//EN"
 "http://www.w3.org/TR/2001/REC-SVG-20010904/DTD/svg10.dtd">
<svg version="1.0" xmlns="http://www.w3.org/2000/svg"
 width="512.000000pt" height="512.000000pt" viewBox="0 0 512.000000 512.000000"
 preserveAspectRatio="xMidYMid meet">

<g transform="translate(0.000000,512.000000) scale(0.100000,-0.100000)"
fill="#000000" stroke="none">
<path d="M930 5105 c-230 -50 -431 -247 -484 -475 -14 -57 -16 -278 -16 -1789
l0 -1724 23 20 c40 38 121 81 202 110 l80 28 1978 3 1977 2 0 1743 c0 1937 5
1789 -69 1904 -45 69 -123 134 -203 166 l-53 22 -1685 2 c-1414 1 -1695 -1
-1750 -12z m1373 -1074 c85 -22 140 -48 210 -97 l47 -34 49 35 c105 75 233
115 375 115 291 0 534 -195 617 -497 30 -105 29 -256 0 -368 -86 -325 -436
-738 -922 -1086 -61 -43 -114 -79 -118 -79 -13 0 -231 158 -321 233 -394 327
-648 656 -721 932 -83 316 60 657 336 798 135 69 297 86 448 48z"/>
<path d="M2075 3615 c-85 -31 -155 -142 -155 -246 0 -92 73 -245 185 -384 109
-136 421 -435 455 -435 35 0 375 329 474 458 102 133 166 273 166 361 0 72
-29 143 -79 192 -59 60 -109 75 -189 58 -80 -16 -135 -71 -151 -151 l-12 -58
-209 0 -209 0 -11 56 c-13 62 -56 119 -105 140 -52 21 -117 25 -160 9z"/>
<path d="M725 832 c-120 -41 -205 -117 -258 -230 -30 -63 -32 -74 -32 -177 0
-105 2 -114 34 -180 38 -76 103 -148 171 -188 104 -60 -19 -57 2107 -57 l1943
0 0 425 0 425 -1957 0 c-1831 -1 -1961 -2 -2008 -18z"/>
</g>
</svg>
