<?xml version="1.0" standalone="no"?>
<!DOCTYPE svg PUBLIC "-//W3C//DTD SVG 20010904//EN"
 "http://www.w3.org/TR/2001/REC-SVG-20010904/DTD/svg10.dtd">
<svg version="1.0" xmlns="http://www.w3.org/2000/svg"
 width="512.000000pt" height="512.000000pt" viewBox="0 0 512.000000 512.000000"
 preserveAspectRatio="xMidYMid meet">

<g transform="translate(0.000000,512.000000) scale(0.100000,-0.100000)"
fill="#000000" stroke="none">
<path d="M1755 5114 c-16 -2 -64 -9 -105 -15 -105 -15 -279 -62 -381 -103
-546 -220 -978 -684 -1168 -1252 -95 -287 -103 -386 -99 -1179 4 -630 4 -641
26 -713 82 -269 282 -467 548 -544 79 -23 81 -23 714 -23 468 0 661 3 735 13
720 95 1327 508 1628 1109 376 749 165 1706 -498 2261 -267 224 -574 365 -930
427 -86 15 -405 28 -470 19z m-664 -1623 c69 -33 112 -74 150 -143 31 -58 34
-70 34 -148 0 -78 -3 -90 -34 -148 -38 -70 -70 -100 -145 -140 -43 -22 -64
-26 -136 -26 -78 -1 -90 2 -148 33 -69 37 -109 80 -144 151 -32 66 -31 196 2
265 42 86 123 152 215 176 49 13 158 2 206 -20z m960 0 c69 -33 112 -74 150
-143 31 -58 34 -70 34 -148 0 -78 -3 -90 -34 -148 -38 -70 -70 -100 -145 -140
-43 -22 -64 -26 -136 -26 -78 -1 -90 2 -148 33 -69 37 -109 80 -144 151 -32
66 -31 196 2 265 42 86 123 152 215 176 49 13 158 2 206 -20z m960 0 c69 -33
112 -74 150 -143 31 -58 34 -70 34 -148 0 -78 -3 -90 -34 -148 -38 -70 -70
-100 -145 -140 -43 -22 -64 -26 -136 -26 -78 -1 -90 2 -148 33 -69 37 -109 80
-144 151 -32 66 -31 196 2 265 42 86 123 152 215 176 49 13 158 2 206 -20z"/>
<path d="M4260 3091 c0 -189 -58 -472 -140 -684 -264 -683 -871 -1223 -1622
-1442 -140 -41 -344 -82 -455 -91 -45 -4 -87 -10 -94 -15 -17 -10 92 -174 187
-279 287 -318 646 -510 1060 -565 159 -21 1317 -21 1419 0 235 49 441 255 490
490 22 104 22 1253 0 1418 -63 482 -327 913 -727 1188 -126 86 -118 87 -118
-20z"/>
</g>
</svg>
