<?xml version="1.0" encoding="UTF-8"?>
<!DOCTYPE svg PUBLIC "-//W3C//DTD SVG 1.1//EN" "http://www.w3.org/Graphics/SVG/1.1/DTD/svg11.dtd">
<svg xmlns="http://www.w3.org/2000/svg" version="1.1" width="512px" height="512px" style="shape-rendering:geometricPrecision; text-rendering:geometricPrecision; image-rendering:optimizeQuality; fill-rule:evenodd; clip-rule:evenodd" xmlns:xlink="http://www.w3.org/1999/xlink">
<g><path style="opacity:0.991" fill="#000000" d="M 141.5,-0.5 C 146.167,-0.5 150.833,-0.5 155.5,-0.5C 161.77,1.90425 166.27,6.23758 169,12.5C 170.42,22.0862 170.92,31.7529 170.5,41.5C 227.167,41.5 283.833,41.5 340.5,41.5C 340.08,31.7529 340.58,22.0862 342,12.5C 344.73,6.23758 349.23,1.90425 355.5,-0.5C 360.167,-0.5 364.833,-0.5 369.5,-0.5C 375.813,2.31434 380.313,6.98101 383,13.5C 383.5,22.8274 383.666,32.1607 383.5,41.5C 424.585,36.9105 459.085,49.5772 487,79.5C 500.099,95.6938 508.266,114.027 511.5,134.5C 511.5,146.5 511.5,158.5 511.5,170.5C 340.833,170.5 170.167,170.5 -0.5,170.5C -0.5,158.5 -0.5,146.5 -0.5,134.5C 7.37161,90.1203 32.7049,60.6203 75.5,46C 92.6002,42.0358 109.934,40.5358 127.5,41.5C 127.334,32.1607 127.5,22.8274 128,13.5C 130.687,6.98101 135.187,2.31434 141.5,-0.5 Z"/></g>
<g><path style="opacity:0.995" fill="#000000" d="M -0.5,212.5 C 170.167,212.5 340.833,212.5 511.5,212.5C 511.5,281.5 511.5,350.5 511.5,419.5C 501.167,470.5 470.5,501.167 419.5,511.5C 310.167,511.5 200.833,511.5 91.5,511.5C 40.5,501.167 9.83333,470.5 -0.5,419.5C -0.5,350.5 -0.5,281.5 -0.5,212.5 Z M 142.5,309.5 C 169.552,309.381 181.718,322.714 179,349.5C 172.035,367.231 159.202,374.398 140.5,371C 123.222,364.957 115.722,352.79 118,334.5C 121.683,321.651 129.85,313.318 142.5,309.5 Z M 249.5,309.5 C 267.928,308.123 280.095,316.123 286,333.5C 288.347,356.317 278.18,369.317 255.5,372.5C 232.82,369.317 222.653,356.317 225,333.5C 229.094,321.239 237.26,313.239 249.5,309.5 Z M 355.5,309.5 C 374.585,308.103 387.085,316.436 393,334.5C 394.184,359.316 382.351,371.816 357.5,372C 337.009,366.509 328.509,353.342 332,332.5C 335.779,320.553 343.612,312.886 355.5,309.5 Z"/></g>
</svg>
