<?xml version="1.0" encoding="UTF-8"?>
<svg version="1.1" xmlns="http://www.w3.org/2000/svg" width="512" height="512">
<path d="M0 0 C1.30677352 -0.00367669 2.61354704 -0.00735338 3.95991975 -0.01114148 C7.57680035 -0.0211172 11.19366437 -0.02487112 14.81055677 -0.02753079 C18.71610867 -0.0314472 22.62164759 -0.04102474 26.52719116 -0.04974365 C35.95567097 -0.06947321 45.38415179 -0.07957105 54.81264707 -0.08847144 C59.26056946 -0.09286119 63.70849067 -0.09822631 68.15641212 -0.10346031 C82.95689617 -0.12047114 97.7573795 -0.13496223 112.55787182 -0.14220905 C116.39562163 -0.14411873 120.23337143 -0.14603909 124.07112122 -0.147995 C125.02489445 -0.14847874 125.97866769 -0.14896248 126.96134315 -0.14946087 C142.38948924 -0.15774969 157.81755752 -0.18306781 173.24566969 -0.21557567 C189.11136352 -0.24873089 204.97701792 -0.26666554 220.84274656 -0.26985329 C229.74011488 -0.27201087 238.63736982 -0.28064827 247.53470421 -0.30631447 C255.11706493 -0.32813764 262.69928471 -0.33601539 270.28167327 -0.32634769 C274.14244288 -0.32183597 278.00292242 -0.32350372 281.86365128 -0.34310913 C314.56767619 -0.49976799 340.79782055 4.3574756 367.06843567 25.14717102 C367.72714661 25.6499054 368.38585754 26.15263977 369.06452942 26.67060852 C374.56868509 31.06884838 378.78635479 36.59265686 383.06843567 42.14717102 C384.00042786 43.35566711 384.00042786 43.35566711 384.95124817 44.58857727 C426.67526696 101.37440554 404.06843567 210.16288455 404.06843567 257.14717102 C235.10843567 257.14717102 66.14843567 257.14717102 -107.93156433 257.14717102 C-107.93156433 78.68050435 -107.93156433 78.68050435 -96.93156433 58.14717102 C-96.47007996 57.20873352 -96.00859558 56.27029602 -95.53312683 55.30342102 C-91.88227469 48.12273947 -87.16081299 42.23978531 -81.93156433 36.14717102 C-81.14781433 35.11592102 -80.36406433 34.08467102 -79.55656433 33.02217102 C-59.16374682 10.68718041 -29.6564 -0.0044858 0 0 Z " fill="#000000" transform="translate(107.93156433105469,20.852828979492188)"/>
<path d="M0 0 C167.64 0 335.28 0 508 0 C507.27093701 5.83250395 506.44666938 10.36006523 504.375 15.6875 C504.10848633 16.37884033 503.84197266 17.07018066 503.56738281 17.7824707 C492.545999 45.62074532 471.79049384 66.03211582 444.609375 78.08984375 C429.29640791 84.58997772 413.41972264 86.32532225 396.90454102 86.22705078 C395.58561859 86.22734283 394.26669617 86.22763489 392.9078064 86.22793579 C389.34470181 86.22850178 385.78173618 86.21687207 382.21866345 86.20278788 C378.47512372 86.19015247 374.73157962 86.18910005 370.98802185 86.18673706 C363.92300571 86.18055947 356.85805263 86.16419991 349.79306406 86.14403808 C341.739674 86.12156213 333.68628068 86.11065646 325.63286698 86.10064721 C309.08853542 86.07982967 292.54429055 86.04320092 276 86 C276 99.86 276 113.72 276 128 C282.5484375 127.94199219 289.096875 127.88398438 295.84375 127.82421875 C300.00002487 127.79866163 304.15620244 127.77459137 308.3125 127.75585938 C314.90515339 127.72600586 321.49745852 127.69074401 328.08984375 127.62280273 C333.40668039 127.56835214 338.72314341 127.53855172 344.04023743 127.52561378 C346.0655963 127.51639737 348.09093544 127.49839966 350.11613464 127.47134972 C352.96002896 127.43488609 355.80239275 127.43006189 358.64648438 127.43237305 C359.47799011 127.41439667 360.30949585 127.39642029 361.16619873 127.37789917 C367.25890344 127.43123906 371.25080475 129.1961642 376 133 C380.76095417 138.13681897 382.28987758 141.86205012 382.3125 148.875 C382.32925781 150.06867188 382.34601563 151.26234375 382.36328125 152.4921875 C381.7058067 158.84070516 378.8020878 162.94490363 374 167 C368.24473898 170.69874969 363.35498667 171.58080578 356.60134888 171.5146637 C355.22960567 171.52508199 355.22960567 171.52508199 353.83015049 171.53571075 C350.78251102 171.55392725 347.7356547 171.54373121 344.68798828 171.53344727 C342.49615906 171.54050847 340.30433471 171.54925433 338.11251831 171.55955505 C332.17028129 171.58203715 326.22831079 171.57911177 320.28604746 171.57023358 C315.32088444 171.5651193 310.35577131 171.57241995 305.39061344 171.57970566 C293.00514356 171.5976724 280.61980343 171.59129791 268.23434065 171.57353585 C257.49413261 171.55884513 246.75420449 171.57346138 236.0140325 171.60230602 C224.96895696 171.63174711 213.92401669 171.642151 202.87890422 171.63312382 C196.68474293 171.62819949 190.49079911 171.63038368 184.29666519 171.65091133 C178.4704789 171.66929556 172.64481168 171.66327556 166.81865311 171.63871193 C164.68459836 171.6337127 162.55050389 171.63717062 160.41648102 171.64986038 C138.99155276 171.76714925 138.99155276 171.76714925 132 166 C126.14642615 159.72382172 125.59249369 153.81230165 125.65234375 145.52734375 C126.27277973 139.23235852 129.04772494 135.80942567 133.5625 131.625 C134.366875 131.08875 135.17125 130.5525 136 130 C136.52672302 129.6411673 137.05344604 129.28233459 137.59613037 128.91262817 C141.29034856 127.51011967 145.00227473 127.73982117 148.89941406 127.77294922 C149.79732666 127.77265717 150.69523926 127.77236511 151.62036133 127.77206421 C154.58554783 127.77345652 157.55048244 127.7890132 160.515625 127.8046875 C162.5725694 127.80841798 164.62951559 127.81126479 166.6864624 127.81326294 C172.09847933 127.82089665 177.51038879 127.84054296 182.92236328 127.8626709 C189.41683735 127.88673333 195.91134737 127.89591155 202.40585327 127.90757751 C212.27064357 127.92696744 222.13519811 127.96529194 232 128 C232 114.14 232 100.28 232 86 C228.00994873 86.01571045 224.01989746 86.0314209 219.90893555 86.04760742 C206.66564244 86.09751226 193.42235057 86.13068557 180.17898846 86.15543652 C172.15646724 86.17083216 164.13403581 86.19177987 156.11157227 86.22631836 C149.11009094 86.25644663 142.10867471 86.27562788 135.10713035 86.28226548 C131.40811167 86.28613858 127.70927904 86.29508342 124.01032066 86.31719017 C87.13099075 86.52880503 55.26369408 81.00786462 27.875 54.3125 C14.62509483 40.87168637 0 19.58487118 0 0 Z " fill="#000000" transform="translate(2,320)"/>
</svg>
