<?xml version="1.0" standalone="no"?>
<!DOCTYPE svg PUBLIC "-//W3C//DTD SVG 20010904//EN"
 "http://www.w3.org/TR/2001/REC-SVG-20010904/DTD/svg10.dtd">
<svg version="1.0" xmlns="http://www.w3.org/2000/svg"
 width="512.000000pt" height="512.000000pt" viewBox="0 0 512.000000 512.000000"
 preserveAspectRatio="xMidYMid meet">

<g transform="translate(0.000000,512.000000) scale(0.100000,-0.100000)"
fill="#000000" stroke="none">
<path d="M866 4685 c-222 -45 -413 -150 -570 -316 -131 -137 -213 -284 -267
-479 l-24 -85 -3 -1185 c-3 -1065 -1 -1195 14 -1285 69 -419 368 -749 783
-863 l96 -27 778 -3 777 -3 0 221 0 221 -49 60 c-96 119 -187 305 -224 459
l-22 89 -465 3 c-454 3 -466 4 -505 25 -77 41 -115 105 -115 193 0 84 53 161
132 194 32 14 104 16 492 16 l456 0 4 23 c33 148 68 252 121 358 l25 49 -538
0 -539 0 -44 23 c-24 13 -57 43 -74 66 -27 39 -30 50 -30 121 0 71 3 82 30
121 17 23 50 53 74 66 l44 23 728 0 729 0 87 50 c430 246 931 235 1344 -31
112 -73 293 -250 361 -354 146 -223 218 -459 218 -714 0 -281 -86 -541 -251
-760 l-69 -93 0 -184 c0 -169 1 -184 18 -184 33 0 171 68 259 126 213 142 370
362 440 619 l28 100 3 1170 c2 843 0 1195 -8 1260 -31 237 -144 459 -322 631
-128 123 -293 217 -468 265 l-85 24 -1650 2 c-1365 1 -1662 -1 -1719 -12z
m3069 -1082 c22 -11 50 -32 62 -45 75 -80 68 -224 -13 -300 -66 -62 23 -58
-1424 -58 -1171 0 -1325 2 -1358 16 -79 33 -132 110 -132 194 0 105 56 179
160 211 14 4 619 7 1345 6 l1320 -2 40 -22z"/>
<path d="M3272 2549 c-86 -15 -201 -57 -282 -102 -103 -57 -260 -214 -317
-317 -144 -257 -150 -554 -17 -811 40 -76 125 -186 183 -236 l41 -35 0 -472 0
-473 23 -34 c42 -64 124 -86 183 -50 16 10 95 104 175 209 79 105 148 190 153
188 5 -1 73 -85 150 -186 146 -190 187 -230 240 -230 41 0 95 28 120 63 20 28
21 41 24 505 l3 476 68 71 c166 173 243 357 244 590 0 228 -73 416 -228 583
-104 112 -263 207 -415 247 -77 20 -273 28 -348 14z"/>
</g>
</svg>
