<?xml version="1.0" encoding="UTF-8"?>
<svg version="1.1" xmlns="http://www.w3.org/2000/svg" width="512" height="512">
<path d="M0 0 C4.16347012 3.4964018 8.08707008 7.22822917 12 11 C12.71800781 11.65484375 13.43601562 12.3096875 14.17578125 12.984375 C20.46536293 18.88322115 25.23469978 25.86116307 30 33 C30.63035156 33.93457031 31.26070312 34.86914062 31.91015625 35.83203125 C49.23044184 63.41034475 53.95913247 99.78984875 46.83911133 131.37744141 C40.84333447 155.12223889 28.91829939 175.44853072 12 193 C11.34515625 193.71800781 10.6903125 194.43601563 10.015625 195.17578125 C4.11677885 201.46536293 -2.86116307 206.23469978 -10 211 C-10.93457031 211.63035156 -11.86914062 212.26070312 -12.83203125 212.91015625 C-40.41034475 230.23044184 -76.78984875 234.95913247 -108.37744141 227.83911133 C-131.57300651 221.98202063 -151.76553935 210.50045466 -169 194 C-170.11955078 192.97519531 -170.11955078 192.97519531 -171.26171875 191.9296875 C-177.88236958 185.66722196 -182.97963336 178.55651738 -188 171 C-188.6290625 170.06671875 -189.258125 169.1334375 -189.90625 168.171875 C-207.23601593 140.60179284 -211.95805078 104.20535241 -204.83911133 72.62255859 C-198.84333447 48.87776111 -186.91829939 28.55146928 -170 11 C-169.34515625 10.28199219 -168.6903125 9.56398437 -168.015625 8.82421875 C-162.11677885 2.53463707 -155.13883693 -2.23469978 -148 -7 C-147.06542969 -7.63035156 -146.13085938 -8.26070312 -145.16796875 -8.91015625 C-101.47012457 -36.35415281 -40.12596623 -31.83598863 0 0 Z " fill="#000000" transform="translate(335,26)"/>
<path d="M0 0 C2.37602335 0.1415037 4.72715277 0.38487786 7.09365845 0.63800049 C8.74633434 0.73787134 10.39953647 0.82937262 12.0531311 0.91265869 C16.0079101 1.14046347 19.93551617 1.49220325 23.87350464 1.91833496 C25.65394231 2.11074391 27.43691241 2.27941536 29.22012329 2.44415283 C58.08148879 5.21569204 83.78399527 19.78871666 102.31289673 41.80987549 C115.10719892 57.68798013 123.15412405 77.30705851 125.02676392 97.59381104 C125.15246167 98.94763775 125.15246167 98.94763775 125.28069878 100.32881451 C126.24299825 111.74047624 126.15604404 123.15187393 126.10147095 134.59503174 C126.09851965 136.69834283 126.09648593 138.8016554 126.09536743 140.90496826 C126.08500602 148.58683517 126.05708461 156.26867035 126.03115845 163.95050049 C125.98990845 181.17237549 125.94865845 198.39425049 125.90615845 216.13800049 C76.07615845 216.13800049 26.24615845 216.13800049 -25.09384155 216.13800049 C-32.068697 183.58867508 -32.068697 183.58867508 -35.28033447 167.58602905 C-35.51377438 166.42356785 -35.74721428 165.26110664 -35.98772812 164.06341934 C-36.22641743 162.87373425 -36.46510674 161.68404915 -36.71102905 160.45831299 C-36.95927555 159.22273525 -37.20752205 157.98715752 -37.46329117 156.71413803 C-38.63634602 150.87542161 -39.80813538 145.03645405 -40.97759616 139.19701684 C-42.31469391 132.52058541 -43.6569047 125.84520733 -45.00327194 119.17063916 C-46.18293784 113.32073045 -47.35626406 107.46956153 -48.52728653 101.61791611 C-49.02216139 99.14958282 -49.51895452 96.6816333 -50.0177269 94.21408463 C-50.70982965 90.78760492 -51.39467142 87.35975023 -52.07772827 83.93145752 C-52.28336899 82.9216835 -52.4890097 81.91190948 -52.70088196 80.87153625 C-55.01009521 69.18632971 -55.01009521 69.18632971 -53.08709717 64.88737488 C-52.61414215 64.18238358 -52.14118713 63.47739227 -51.65390015 62.7510376 C-50.85077896 61.53202003 -50.85077896 61.53202003 -50.03143311 60.28837585 C-49.44101227 59.42277542 -48.85059143 58.55717499 -48.24227905 57.66534424 C-47.63179718 56.74701309 -47.02131531 55.82868195 -46.39233398 54.88252258 C-44.43062667 51.93806305 -42.45020947 49.00675665 -40.46884155 46.07550049 C-38.55070594 43.20728074 -36.63637084 40.33656382 -34.7233429 37.4649353 C-33.44185333 35.55322418 -32.15040931 33.64814932 -30.84922791 31.74978638 C-27.57107803 26.95378237 -24.48455599 22.14588004 -21.64828491 17.07403564 C-11.80032816 -0.09359502 -11.80032816 -0.09359502 0 0 Z " fill="#000000" transform="translate(323.0938415527344,295.86199951171875)"/>
<path d="M0 0 C10.55359962 -2.21028614 22.82625586 -4.3267613 32.79418945 0.86547852 C43.63500434 9.77729487 50.45128763 23.93677685 56.94647217 36.12054443 C59.6405833 41.16130543 62.45291584 45.94945845 65.75170898 50.62182617 C66.73283409 52.01338676 66.73283409 52.01338676 67.73377991 53.43305969 C68.98726575 55.17947777 70.26445298 56.90923092 71.56932068 58.61759949 C76.21705618 65.1042498 75.95057703 69.17679928 74.79418945 76.86547852 C74.02625053 81.4163078 73.13623866 85.9365508 72.21801758 90.45922852 C71.95299677 91.78591817 71.68847995 93.11270858 71.42442322 94.43959045 C70.71272238 98.00827124 69.9939218 101.57548693 69.27364159 105.14244461 C68.51877696 108.88649117 67.77022484 112.63179989 67.02087402 116.37695312 C65.76379378 122.65499633 64.502399 128.93215966 63.23803711 135.20874023 C61.61501442 143.26591223 59.99918922 151.32451016 58.38559723 159.38357544 C56.99610646 166.32307514 55.60334077 173.2619169 54.21004295 180.20065308 C53.76292371 182.42805693 53.31625425 184.65555064 52.86964417 186.88305664 C52.1689357 190.37681619 51.46618678 193.87015942 50.76184273 197.36318779 C50.38029102 199.25758407 50.00059881 201.15235457 49.62095642 203.0471344 C49.28028893 204.73334145 49.28028893 204.73334145 48.93273926 206.45361328 C48.73585258 207.43209732 48.53896591 208.41058136 48.33611298 209.41871643 C47.79418945 211.86547852 47.79418945 211.86547852 46.79418945 214.86547852 C-2.70581055 214.86547852 -52.20581055 214.86547852 -103.20581055 214.86547852 C-103.26768555 195.20985352 -103.32956055 175.55422852 -103.39331055 155.30297852 C-103.42062256 149.12248779 -103.44793457 142.94199707 -103.47607422 136.57421875 C-103.48962402 128.96130371 -103.48962402 128.96130371 -103.49214172 125.38465881 C-103.4967145 122.91446811 -103.50719433 120.44428364 -103.52253723 117.97413635 C-103.72380611 83.83037639 -95.83233523 55.76330012 -71.51831055 30.67797852 C-59.51255043 18.75216581 -43.88477035 9.96446872 -27.76831055 5.05297852 C-27.13747559 4.85792725 -26.50664062 4.66287598 -25.85668945 4.46191406 C-20.1028989 2.83671556 -14.2660984 2.1479507 -8.33935547 1.43603516 C-5.5245583 1.07800922 -2.7746508 0.59270099 0 0 Z " fill="#000000" transform="translate(167.205810546875,297.134521484375)"/>
</svg>
