<?xml version="1.0" standalone="no"?>
<!DOCTYPE svg PUBLIC "-//W3C//DTD SVG 20010904//EN"
 "http://www.w3.org/TR/2001/REC-SVG-20010904/DTD/svg10.dtd">
<svg version="1.0" xmlns="http://www.w3.org/2000/svg"
 width="512.000000pt" height="512.000000pt" viewBox="0 0 512.000000 512.000000"
 preserveAspectRatio="xMidYMid meet">

<g transform="translate(0.000000,512.000000) scale(0.100000,-0.100000)"
fill="#000000" stroke="none">
<path d="M2367 4894 c-96 -17 -209 -54 -291 -95 -33 -17 -401 -193 -816 -391
-415 -198 -794 -380 -841 -404 -267 -138 -436 -438 -416 -739 17 -245 142
-468 339 -603 25 -17 382 -192 792 -387 411 -195 801 -382 867 -416 264 -132
482 -172 729 -134 140 21 186 37 390 135 102 49 496 238 875 419 l690 329 5
-906 5 -907 28 -47 c32 -54 95 -97 157 -105 97 -13 203 56 228 147 10 35 12
339 10 1345 -3 1231 -4 1303 -22 1365 -65 230 -210 408 -415 514 -47 24 -417
202 -821 394 -404 193 -766 367 -805 386 -196 101 -466 140 -688 100z"/>
<path d="M850 1633 c0 -164 5 -336 10 -383 41 -360 254 -671 570 -834 282
-145 855 -228 1349 -196 313 20 655 85 832 159 324 135 557 420 636 776 18 83
32 775 16 775 -10 0 -669 -313 -968 -460 -241 -118 -375 -158 -603 -180 -279
-26 -573 33 -847 172 -104 52 -295 144 -853 409 -68 33 -128 59 -133 59 -5 0
-9 -125 -9 -297z"/>
</g>
</svg>
