<?xml version="1.0" encoding="UTF-8"?>
<svg version="1.1" xmlns="http://www.w3.org/2000/svg" width="512" height="512">
<path d="M0 0 C0.9077417 0.00215515 1.8154834 0.0043103 2.75073242 0.00653076 C16.02564891 0.05712025 28.86069705 0.50060937 41.875 3.3125 C42.82052734 3.50054199 43.76605469 3.68858398 44.74023438 3.88232422 C74.63820483 9.88579848 103.20688621 22.32068284 127.875 40.3125 C128.44734375 40.72935059 129.0196875 41.14620117 129.609375 41.57568359 C147.79899525 54.99769786 163.55612586 71.07820349 176.875 89.3125 C177.47199707 90.12485107 177.47199707 90.12485107 178.08105469 90.95361328 C184.05857742 99.19534918 188.96321077 107.92599681 193.6875 116.9375 C194.22673096 117.96198242 194.76596191 118.98646484 195.3215332 120.04199219 C206.57256343 141.92588335 206.57256343 141.92588335 204.875 154.3125 C202.8805539 160.08589661 199.24368269 163.63709029 194.3125 167.125 C187.9479468 169.32366383 180.78877983 169.51145 174.5 166.875 C166.42623649 162.00748414 163.41369351 152.28556184 159.8359375 144.04394531 C151.44214609 124.71740078 139.24120796 108.56120359 124.875 93.3125 C123.83085938 92.16974609 123.83085938 92.16974609 122.765625 91.00390625 C95.93536522 62.66574427 53.24671602 43.51470033 14.16845703 42.18652344 C9.75826129 42.09190641 5.34861776 42.06591042 0.9375 42.0625 C0.1539917 42.06182526 -0.6295166 42.06115051 -1.43676758 42.06045532 C-12.94494101 42.07620825 -23.91102106 42.53253015 -35.125 45.3125 C-35.89118652 45.48942383 -36.65737305 45.66634766 -37.44677734 45.84863281 C-69.507921 53.27845157 -97.96190229 69.22395836 -121.70751953 91.95800781 C-122.91870912 93.11537602 -124.14355337 94.25842609 -125.37109375 95.3984375 C-147.04866622 116.07282251 -161.63125049 145.76267994 -168.9375 174.4375 C-169.21146606 175.50713989 -169.21146606 175.50713989 -169.4909668 176.59838867 C-171.58270784 185.39143037 -172.76695376 194.38361783 -174.125 203.3125 C-173.57900146 203.30361755 -173.03300293 203.29473511 -172.47045898 203.2855835 C-166.7598727 203.19671721 -161.04948459 203.13660387 -155.33837891 203.09277344 C-153.21036798 203.07272532 -151.08241168 203.04547946 -148.95458984 203.01074219 C-145.88625567 202.96192452 -142.81865327 202.93946274 -139.75 202.921875 C-138.80697021 202.90122986 -137.86394043 202.88058472 -136.89233398 202.85931396 C-129.99636386 202.85699988 -124.31675036 204.16140888 -119.28515625 209.12890625 C-118.92292969 209.70511719 -118.56070313 210.28132812 -118.1875 210.875 C-117.61708984 211.74318359 -117.61708984 211.74318359 -117.03515625 212.62890625 C-114.81276488 216.73985337 -114.97673486 220.678178 -114.97782898 225.21220398 C-114.97415229 226.0258332 -114.9704756 226.83946242 -114.9666875 227.67774707 C-114.95564361 230.4136704 -114.95180562 233.14955576 -114.94799805 235.88549805 C-114.94173391 237.84337993 -114.93508715 239.80126063 -114.92808533 241.75914001 C-114.91067062 247.08577179 -114.90012216 252.41239458 -114.8918798 257.73904777 C-114.88673037 261.0667084 -114.8806546 264.39436625 -114.87436867 267.72202492 C-114.85531481 278.13271248 -114.84108438 288.54339294 -114.8327567 298.95409459 C-114.82298419 310.97278539 -114.79666501 322.99129201 -114.75625581 335.00991791 C-114.72609752 344.29835088 -114.71128807 353.58673104 -114.70797569 362.87521201 C-114.70562479 368.42328133 -114.69665914 373.97115395 -114.67151451 379.51917076 C-114.64823408 384.74028643 -114.64400056 389.96107588 -114.65427589 395.18223 C-114.65477138 397.09621389 -114.64844732 399.01021383 -114.63471985 400.92414856 C-114.61699457 403.54244779 -114.62410992 406.15957708 -114.63725281 408.77787781 C-114.62628356 409.53071838 -114.61531432 410.28355894 -114.60401267 411.05921286 C-114.67876715 417.25114434 -116.52673981 422.68071387 -120.94140625 427.15234375 C-121.51761719 427.51457031 -122.09382812 427.87679688 -122.6875 428.25 C-123.26628906 428.63027344 -123.84507812 429.01054687 -124.44140625 429.40234375 C-127.86318325 431.25216751 -130.72309233 431.45102305 -134.53588867 431.48950195 C-135.64522263 431.50233719 -136.75455658 431.51517242 -137.89750671 431.52839661 C-139.10050919 431.53578354 -140.30351166 431.54317047 -141.54296875 431.55078125 C-142.78814774 431.558853 -144.03332672 431.56692474 -145.3162384 431.57524109 C-147.96175859 431.58909155 -150.6071539 431.60010147 -153.25268555 431.60766602 C-157.25142338 431.62075616 -161.24953474 431.66860292 -165.24804688 431.71289062 C-181.68243852 431.81453896 -196.77542011 431.49838387 -211.5625 423.5 C-212.22660889 423.15235596 -212.89071777 422.80471191 -213.57495117 422.4465332 C-218.89860202 419.58766821 -223.65540575 416.39875314 -228.125 412.3125 C-229.01703125 411.51199219 -229.9090625 410.71148437 -230.828125 409.88671875 C-245.69259982 395.85481697 -254.87384815 376.76015856 -255.48610592 356.23025799 C-255.56225749 351.6466498 -255.5678256 347.06459773 -255.55859375 342.48046875 C-255.56316668 340.47471441 -255.56847551 338.46896163 -255.57447815 336.46321106 C-255.58336675 332.27675986 -255.58103559 328.09049985 -255.57104492 323.90405273 C-255.55957193 318.58210944 -255.57976337 313.26083137 -255.60896206 307.93897533 C-255.62745366 303.80096862 -255.6270058 299.66311746 -255.62132454 295.52507973 C-255.62117285 293.56499614 -255.62708908 291.60490097 -255.63961601 289.64485741 C-255.72195672 274.65062215 -254.60376079 260.3547801 -247.3125 246.875 C-246.96485596 246.21089111 -246.61721191 245.54678223 -246.2590332 244.86254883 C-241.02557314 235.11703298 -232.76107961 223.42628356 -222.81469727 218.06787109 C-217.9069699 215.44568377 -217.9069699 215.44568377 -215.28125 210.75512695 C-214.92371778 207.58649761 -214.82645762 204.50111722 -214.8125 201.3125 C-214.71599838 198.96445806 -214.61038083 196.61677474 -214.49609375 194.26953125 C-214.44437012 193.09729004 -214.39264648 191.92504883 -214.33935547 190.71728516 C-211.24400698 141.55130563 -185.10309681 97.35803101 -152.125 62.3125 C-151.50882812 61.65378906 -150.89265625 60.99507812 -150.2578125 60.31640625 C-111.76111513 20.43824844 -54.60426269 -0.23327691 0 0 Z M-204.08203125 256.0703125 C-215.25662823 268.33459293 -215.28494129 282.88561086 -215.29296875 298.546875 C-215.29618925 300.03127066 -215.29955389 301.51566601 -215.30305481 303.00006104 C-215.30901944 306.10323827 -215.31089751 309.20638776 -215.31030273 312.30957031 C-215.31020136 316.25416267 -215.3238398 320.19857403 -215.34107494 324.14312363 C-215.35228381 327.20779206 -215.35421922 330.27241798 -215.35369301 333.3371048 C-215.35486031 334.78972241 -215.35921037 336.2423416 -215.36702538 337.69493866 C-215.44733198 354.16491338 -214.03562894 367.83053235 -202.3671875 380.26953125 C-188.73091506 392.6942185 -173.05062064 391.3125 -155.125 391.3125 C-155.125 342.4725 -155.125 293.6325 -155.125 243.3125 C-182.25687668 242.81722951 -182.25687668 242.81722951 -204.08203125 256.0703125 Z " fill="#000000" transform="translate(255.125,-0.3125)"/>
<path d="M0 0 C1.10933395 -0.01283524 2.21866791 -0.02567047 3.36161804 -0.03889465 C4.56462051 -0.04628159 5.76762299 -0.05366852 7.00708008 -0.0612793 C8.25225906 -0.06935104 9.49743805 -0.07742279 10.78034973 -0.08573914 C13.42586992 -0.09958959 16.07126522 -0.11059951 18.71679688 -0.11816406 C22.71553471 -0.1312542 26.71364607 -0.17910096 30.7121582 -0.22338867 C47.14654985 -0.325037 62.23953144 -0.00888192 77.02661133 7.98950195 C77.69072021 8.337146 78.3548291 8.68479004 79.0390625 9.04296875 C84.36271335 11.90183374 89.11951708 15.09074882 93.58911133 19.17700195 C94.9271582 20.37776367 94.9271582 20.37776367 96.29223633 21.6027832 C111.15671115 35.63468498 120.33795948 54.7293434 120.95021725 75.25924397 C121.02636882 79.84285215 121.03193693 84.42490423 121.02270508 89.0090332 C121.02727801 91.01478754 121.03258684 93.02054032 121.03858948 95.02629089 C121.04747807 99.21274209 121.04514691 103.3990021 121.03515625 107.58544922 C121.02368326 112.90739251 121.0438747 118.22867059 121.07307339 123.55052662 C121.09156499 127.68853333 121.09111712 131.82638449 121.08543587 135.96442223 C121.08528417 137.92450581 121.09120041 139.88460099 121.10372734 141.84464455 C121.18606805 156.8388798 120.06787211 171.13472185 112.77661133 184.61450195 C112.25514526 185.61066528 112.25514526 185.61066528 111.72314453 186.62695312 C108.86427954 191.95060397 105.67536446 196.7074077 101.58911133 201.17700195 C100.78860352 202.0690332 99.9880957 202.96106445 99.16333008 203.88012695 C86.15636233 217.65885401 67.77998474 227.61898492 48.53979492 228.41601562 C44.28383229 228.5047731 40.03224895 228.4409851 35.77661133 228.36450195 C34.29420326 228.34940681 32.81178009 228.33572706 31.3293457 228.32348633 C27.74894589 228.29091146 24.16913048 228.23940508 20.58911133 228.17700195 C20.60796387 228.9671167 20.62681641 229.75723145 20.64624023 230.57128906 C20.87069139 246.71327357 15.04665896 260.20458914 3.92895508 271.89575195 C-9.46251436 284.95187575 -24.07431726 289.50485789 -42.407444 289.32913589 C-44.77065568 289.3094864 -47.13326639 289.30748959 -49.49655151 289.31100464 C-56.20998142 289.32064574 -62.92280859 289.32092861 -69.63598633 289.25610352 C-73.75649477 289.21759374 -77.87544146 289.21800493 -81.9960289 289.24367905 C-83.55970629 289.2460876 -85.12347749 289.23407453 -86.68692398 289.2070961 C-95.16774436 288.75657282 -95.16774436 288.75657282 -102.65931702 291.94384766 C-104.17487425 293.96103027 -105.2903919 295.92453642 -106.41088867 298.17700195 C-114.67053905 306.45153458 -123.99752368 309.53434943 -135.47338867 309.67700195 C-142.48469711 309.59691806 -148.2524914 308.74531517 -154.41088867 305.17700195 C-155.1869043 304.75290039 -155.96291992 304.32879883 -156.76245117 303.8918457 C-166.68792753 297.93324033 -171.83324969 288.90991891 -175.41088867 278.17700195 C-176.01794687 268.29489067 -176.51761441 258.99047877 -171.41088867 250.17700195 C-170.98678711 249.40098633 -170.56268555 248.6249707 -170.12573242 247.82543945 C-164.16712705 237.8999631 -155.14380563 232.75464094 -144.41088867 229.17700195 C-130.57783758 228.31946525 -119.84204334 229.20372055 -108.57885742 238.00512695 C-106.41088867 240.17700195 -106.41088867 240.17700195 -105.36650085 242.10916138 C-103.9271506 244.60909203 -102.62874467 246.3164084 -100.41088867 248.17700195 C-95.86430162 249.32985801 -91.42917915 249.15640541 -86.76245117 249.02856445 C-85.4225764 249.01870076 -84.0826739 249.01211335 -82.74276733 249.00863647 C-79.93950723 248.99339287 -77.13830345 248.95241846 -74.33569336 248.89038086 C-70.76270959 248.81138511 -67.19106118 248.775182 -63.61730385 248.7557621 C-60.18634292 248.73569941 -56.75569726 248.69605285 -53.32495117 248.65356445 C-52.05076324 248.63879059 -50.77657532 248.62401672 -49.46377563 248.60879517 C-40.5478136 248.41827006 -32.53260495 248.16571792 -25.41088867 242.17700195 C-20.31994655 235.49209073 -20.26232364 228.37145169 -20.27958679 220.34707642 C-20.27747108 219.46963064 -20.27535536 218.59218486 -20.27317554 217.68814981 C-20.26719428 214.75424545 -20.26817435 211.82038432 -20.26904297 208.88647461 C-20.26601027 206.78036934 -20.26248851 204.67426472 -20.2585144 202.56816101 C-20.25063422 198.0354467 -20.24548384 193.50274023 -20.24222374 188.97002029 C-20.2363076 181.80106453 -20.21976205 174.63215825 -20.20088196 167.46322632 C-20.19454488 165.0078297 -20.18821925 162.55243304 -20.18190479 160.09703636 C-20.17873898 158.86751582 -20.17557317 157.63799528 -20.17231143 156.37121654 C-20.13024702 139.68376568 -20.09725141 122.99633825 -20.08496094 106.30883789 C-20.07658241 95.04842154 -20.05410138 83.78812812 -20.01560527 72.52777326 C-19.99584188 66.5706573 -19.98344115 60.6137251 -19.98843956 54.65657425 C-19.9930837 49.05371438 -19.979293 43.45120307 -19.95142746 37.84841347 C-19.94451249 35.79415722 -19.94439238 33.73986496 -19.95162773 31.68560982 C-19.96051995 28.87695759 -19.94481628 26.06945391 -19.92314148 23.26089478 C-19.93580529 22.04715712 -19.93580529 22.04715712 -19.94872493 20.80889952 C-19.8581874 14.44622931 -18.14645216 8.94786303 -13.59448242 4.3371582 C-13.01827148 3.97493164 -12.44206055 3.61270508 -11.84838867 3.23950195 C-11.26959961 2.85922852 -10.69081055 2.47895508 -10.09448242 2.0871582 C-6.67270542 0.23733444 -3.81279634 0.0384789 0 0 Z M20.58911133 40.17700195 C20.58911133 89.01700195 20.58911133 137.85700195 20.58911133 188.17700195 C47.72098801 188.67227244 47.72098801 188.67227244 69.54614258 175.41918945 C80.72073956 163.15490902 80.74905261 148.60389109 80.75708008 132.94262695 C80.76030057 131.45823129 80.76366522 129.97383594 80.76716614 128.48944092 C80.77313077 125.38626369 80.77500884 122.28311419 80.77441406 119.17993164 C80.77431269 115.23533928 80.78795113 111.29092792 80.80518627 107.34637833 C80.81639514 104.2817099 80.81833055 101.21708397 80.81780434 98.15239716 C80.81897164 96.69977954 80.8233217 95.24716036 80.8311367 93.79456329 C80.91144331 77.32458857 79.49974027 63.6589696 67.83129883 51.2199707 C54.19502639 38.79528345 38.51473196 40.17700195 20.58911133 40.17700195 Z " fill="#000000" transform="translate(391.410888671875,202.822998046875)"/>
</svg>
