<?xml version="1.0" encoding="UTF-8"?>
<svg version="1.1" xmlns="http://www.w3.org/2000/svg" width="512" height="512">
<path d="M0 0 C6.4234066 3.81965479 10.48333513 8.85203635 12.48046875 16.08984375 C12.70751953 19.06591797 12.70751953 19.06591797 12.67578125 22.14453125 C12.67078613 23.14468262 12.66579102 24.14483398 12.66064453 25.17529297 C12.64243652 26.42584473 12.62422852 27.67639648 12.60546875 28.96484375 C12.56421875 32.96609375 12.52296875 36.96734375 12.48046875 41.08984375 C26.34046875 41.08984375 40.20046875 41.08984375 54.48046875 41.08984375 C54.2836312 32.234558 54.2836312 32.234558 54.0300293 23.38085938 C53.9472547 15.97707251 54.39134549 10.71024911 59.48046875 5.08984375 C64.61728772 0.32888958 68.34251887 -1.20003383 75.35546875 -1.22265625 C76.54914063 -1.23941406 77.7428125 -1.25617187 78.97265625 -1.2734375 C85.32117391 -0.61596295 89.42537238 2.28775595 93.48046875 7.08984375 C98.03879832 14.21119013 97.96574172 20.29074605 97.73046875 28.58984375 C97.64796875 32.71484375 97.56546875 36.83984375 97.48046875 41.08984375 C111.34046875 41.08984375 125.20046875 41.08984375 139.48046875 41.08984375 C139.28411383 32.98275936 139.28411383 32.98275936 139.0300293 24.87744141 C138.93766503 17.25351613 139.97830851 11.38062771 144.48046875 5.08984375 C150.68666778 -0.80317882 156.71807429 -1.31730203 164.953125 -1.2578125 C171.24811023 -0.63737652 174.67104308 2.13756869 178.85546875 6.65234375 C181.90176628 11.22179005 182.72654526 14.02142718 182.67578125 19.60546875 C182.67078613 20.73243164 182.66579102 21.85939453 182.66064453 23.02050781 C182.64243652 24.44588867 182.62422852 25.87126953 182.60546875 27.33984375 C182.56421875 31.87734375 182.52296875 36.41484375 182.48046875 41.08984375 C196.34046875 41.08984375 210.20046875 41.08984375 224.48046875 41.08984375 C224.32329392 33.26711699 224.32329392 33.26711699 224.12011719 25.44555664 C224.04278191 17.76129865 224.77783905 10.99304103 230.26074219 5.21313477 C236.56479595 -0.50830414 241.49099171 -1.42147988 249.9921875 -1.2890625 C256.34559897 -0.5989383 260.14571281 2.42936824 264.35546875 7.02734375 C267.92788622 12.17582775 268.73007452 16.82499458 268.89453125 23.01953125 C268.93320312 24.30859375 268.971875 25.59765625 269.01171875 26.92578125 C269.04316633 28.27213082 269.07441386 29.61848507 269.10546875 30.96484375 C269.14369916 32.33465889 269.18275376 33.7044513 269.22265625 35.07421875 C269.3166959 38.41262638 269.40234932 41.75103189 269.48046875 45.08984375 C270.90794434 45.72623779 270.90794434 45.72623779 272.36425781 46.37548828 C288.87524792 53.86458983 300.59258548 66.20777692 307.48046875 83.08984375 C310.31779789 91.33808967 310.91089022 98.95184918 310.8681488 107.629776 C310.87233023 108.96700579 310.87781216 110.30423202 310.88446862 111.64145178 C310.89883695 115.28743122 310.89470567 118.93318295 310.8873018 122.5791744 C310.8825507 126.52280532 310.89509736 130.46638835 310.90531921 134.41000366 C310.92247709 142.1262317 310.92335315 149.84237819 310.91810631 157.55862034 C310.91405624 163.83633935 310.9155181 170.11403437 310.92085457 176.39175224 C310.92160299 177.28705724 310.92235141 178.18236225 310.92312251 179.1047977 C310.92465409 180.92398267 310.92619244 182.74316763 310.92773748 184.56235259 C310.9414527 201.60759513 310.93603267 218.65279172 310.92455227 235.69803321 C310.91463025 251.25984849 310.92754446 266.8215447 310.95148646 282.38334162 C310.97592809 298.3915448 310.98547234 314.39969265 310.97883373 330.4079141 C310.97535154 339.38339317 310.9775067 348.35878081 310.99508476 357.33424568 C311.00987061 364.97843207 311.01035989 372.62246273 310.99301385 380.26664627 C310.98455188 384.15958738 310.98223482 388.05225107 310.99766541 391.94517708 C311.1307013 428.13340793 303.18755854 456.18206803 277.96875 482.734375 C256.18562528 503.91704606 227.97369478 511.7488084 198.36328125 511.60742188 C196.41940796 511.61285849 194.4755388 511.61998968 192.53167725 511.62866211 C187.30845555 511.64671556 182.08555403 511.63990313 176.86232758 511.62714577 C171.36149823 511.61692392 165.86069386 511.62643667 160.35986328 511.63269043 C151.12722927 511.63994034 141.89472381 511.63044922 132.66210938 511.61132812 C122.03173837 511.58956461 111.40167439 511.59661786 100.77131081 511.61863375 C91.59704295 511.63686381 82.4228668 511.63930908 73.24858665 511.62887907 C67.78987989 511.62268576 62.3313168 511.62169254 56.87261963 511.63502502 C51.73740727 511.64669437 46.6025856 511.63835828 41.46741486 511.615448 C39.59795018 511.61021949 37.72845184 511.61157223 35.85900116 511.62049866 C3.94045231 511.75869769 -22.15836078 500.42844436 -45.1640625 478.578125 C-69.37220531 453.68376711 -74.15669696 422.96743067 -74.04242992 389.72941756 C-74.03327926 385.78257185 -74.0473979 381.83579354 -74.05834961 377.88896179 C-74.0760319 370.18236043 -74.07234172 362.47591588 -74.06069905 354.76930866 C-74.05162677 348.50220629 -74.05045702 342.23514753 -74.05479431 335.96804047 C-74.05540724 335.072529 -74.05602018 334.17701754 -74.05665168 333.25436936 C-74.05793071 331.4346122 -74.05922756 329.61485505 -74.06054205 327.79509792 C-74.071917 310.77758754 -74.05888139 293.76016371 -74.03734058 276.74266753 C-74.01946012 262.16580413 -74.02258751 247.58906815 -74.04101562 233.01220703 C-74.06245583 216.04502575 -74.07083152 199.07792001 -74.05856657 182.11072707 C-74.05729249 180.29927938 -74.056035 178.48783168 -74.05479431 176.67638397 C-74.05417721 175.78532788 -74.05356011 174.89427179 -74.05292431 173.97621401 C-74.04948176 167.72031235 -74.05527576 161.46445894 -74.06471252 155.20856476 C-74.07596845 147.57979657 -74.07281679 139.95119286 -74.05158955 132.32244334 C-74.04112912 128.43603047 -74.03687107 124.54989116 -74.05018616 120.66348076 C-74.06222019 117.09689446 -74.05536957 113.53083191 -74.03427595 109.96429226 C-74.02778359 108.08263617 -74.04064648 106.20094289 -74.05450487 104.31932664 C-73.89866294 87.15476902 -67.66601221 72.81098611 -55.8984375 60.40625 C-48.70068391 53.39759995 -41.70857783 49.06961398 -32.51953125 45.08984375 C-32.51018555 44.258479 -32.50083984 43.42711426 -32.49121094 42.57055664 C-32.44683066 39.44457532 -32.38505521 36.31952479 -32.31201172 33.1940918 C-32.27037248 31.19277604 -32.24826575 29.19108435 -32.2265625 27.18945312 C-32.01989452 18.98473438 -31.642918 11.42324924 -25.74121094 5.22094727 C-18.50284806 -1.37384591 -9.51619132 -3.4376319 0 0 Z M18.45703125 154.8359375 C13.81045 160.65087877 11.97393265 164.98435525 12.17578125 172.53125 C12.89890266 178.60361572 15.53283438 182.63645668 20.23046875 186.46484375 C25.95338964 190.76905736 32.96637537 191.33912685 39.90499878 191.35054016 C40.9582249 191.35627848 40.9582249 191.35627848 42.03272831 191.36213273 C44.36157829 191.37236739 46.69017731 191.36848894 49.01904297 191.36450195 C50.69855983 191.36885373 52.37807471 191.37403843 54.05758667 191.37998962 C58.60311647 191.39334103 63.14856291 191.39396258 67.69410849 191.39142632 C71.49612629 191.39035396 75.29812742 191.39524679 79.10014164 191.40003175 C88.07377257 191.41111367 97.04736164 191.41157179 106.02099609 191.40551758 C115.26185316 191.3994787 124.50255793 191.41178965 133.74338901 191.43308765 C141.69269524 191.45073167 149.64195312 191.45670058 157.5912782 191.4534499 C162.3322248 191.45164132 167.07306277 191.45423073 171.81399155 191.46816444 C176.2743046 191.48078377 180.73438109 191.47876004 185.1946907 191.46575356 C186.82563102 191.46339711 188.4565882 191.46608882 190.08750916 191.47437668 C204.81675935 191.71536521 204.81675935 191.71536521 217.91796875 185.71484375 C222.6066019 180.91185369 224.56577365 176.48828981 224.79296875 169.83984375 C224.69671552 163.97802197 222.83803141 159.60941901 218.83203125 155.328125 C213.24770245 150.2924748 208.67826102 148.8417735 201.09953308 148.82241821 C200.36586606 148.8178871 199.63219904 148.81335599 198.87629968 148.80868757 C196.42292119 148.79604805 193.96976482 148.79766363 191.51635742 148.79931641 C189.75522069 148.79333085 187.99408659 148.78652524 186.23295593 148.77896118 C181.45186157 148.76129613 176.6708388 148.75660557 171.88971496 148.75532961 C168.90141223 148.75390767 165.91312769 148.74963723 162.92482948 148.74433517 C152.49601715 148.72583279 142.06725594 148.71766477 131.63842773 148.71923828 C121.923249 148.72043953 112.20829248 148.69934088 102.49316996 148.66775095 C94.14735502 148.64158234 85.80161262 148.63087124 77.45575696 148.6321491 C72.47334151 148.63265859 67.49112353 148.62698271 62.50874901 148.605793 C57.82108309 148.58640096 53.1338028 148.58629276 48.44612312 148.60082626 C46.72887482 148.6029143 45.01160233 148.59821373 43.29439545 148.58610535 C29.92331035 148.40957357 29.92331035 148.40957357 18.45703125 154.8359375 Z M17.04296875 241.52734375 C12.54536664 247.43278253 11.59371562 252.73765007 12.48046875 260.08984375 C14.27654688 266.18790541 18.10019508 270.75109685 23.48046875 274.08984375 C28.08395584 275.92430765 31.95846783 276.34448639 36.89900208 276.35726929 C37.62465085 276.3618004 38.35029963 276.36633151 39.09793776 276.37099993 C41.51823829 276.38361335 43.93831291 276.38202556 46.35864258 276.38037109 C48.09860014 276.38635827 49.83855504 276.39316425 51.57850647 276.40072632 C56.29762747 276.41837453 61.01667592 276.42308121 65.73582673 276.42435789 C68.68645304 276.42578075 71.63706098 276.4300529 74.58768272 276.43535233 C84.8879755 276.45384889 95.18821656 276.46202343 105.48852539 276.46044922 C115.07930615 276.45924801 124.6698618 276.48034732 134.26058561 276.51193655 C142.50367724 276.53811637 150.74669542 276.54881579 158.98982829 276.5475384 C163.90910458 276.54702926 168.82818078 276.55268603 173.74741554 276.5738945 C178.37600347 276.59330555 183.004201 276.59338179 187.63280296 276.57886124 C189.32705635 276.57677558 191.02133435 276.58145953 192.71554565 276.59358215 C206.5598623 276.8746907 206.5598623 276.8746907 218.33831501 270.35028648 C223.39368884 264.91635179 224.97548889 260.02872947 224.7890625 252.6484375 C223.97920215 245.93377255 220.49036174 241.58638804 215.45703125 237.31640625 C210.54050871 234.26544167 205.74641685 233.83712596 200.06193542 233.82241821 C199.33628665 233.8178871 198.61063787 233.81335599 197.86299974 233.80868757 C195.44269921 233.79607415 193.02262459 233.79766194 190.60229492 233.79931641 C188.86233736 233.79332923 187.12238246 233.78652325 185.38243103 233.77896118 C180.66331003 233.76131297 175.94426158 233.75660629 171.22511077 233.75532961 C168.27448446 233.75390675 165.32387652 233.7496346 162.37325478 233.74433517 C152.072962 233.72583861 141.77272094 233.71766407 131.47241211 233.71923828 C121.88163135 233.72043949 112.2910757 233.69934018 102.70035189 233.66775095 C94.45726026 233.64157113 86.21424208 233.63087171 77.97110921 233.6321491 C73.05183292 233.63265824 68.13275672 233.62700147 63.21352196 233.605793 C58.58493403 233.58638195 53.9567365 233.58630571 49.32813454 233.60082626 C47.63388115 233.60291192 45.93960315 233.59822797 44.24539185 233.58610535 C29.21338257 233.46417519 29.21338257 233.46417519 17.04296875 241.52734375 Z M16.48046875 327.08984375 C12.46486511 332.71168884 11.42956397 338.28604785 12.48046875 345.08984375 C14.32910662 351.25926245 18.12717545 355.59517827 23.48046875 359.08984375 C26.93066273 360.67435561 29.64308959 361.3421599 33.43171692 361.35726929 C34.88874779 361.37006424 34.88874779 361.37006424 36.37521362 361.38311768 C37.95642502 361.38175812 37.95642502 361.38175812 39.56958008 361.38037109 C40.68887405 361.38708832 41.80816803 361.39380554 42.96138 361.40072632 C46.66179849 361.41972491 50.36203577 361.42363155 54.0625 361.42578125 C56.63693822 361.43220806 59.2113757 361.43893634 61.78581238 361.44595337 C67.18348189 361.45793095 72.5810796 361.46171941 77.97875977 361.46044922 C84.20396993 361.45924867 90.42883292 361.48033641 96.65395528 361.51193655 C102.65701572 361.5413159 108.65988874 361.54842327 114.66303062 361.54722977 C117.21027735 361.54958749 119.75752674 361.55842057 122.30472755 361.5738945 C125.87116768 361.5935307 129.43671882 361.58772461 133.00317383 361.57568359 C134.05124207 361.58692261 135.0993103 361.59816162 136.17913818 361.60974121 C143.51811066 361.54690632 148.79436443 360.27070983 154.50390625 355.34375 C159.1504875 349.52880873 160.98700485 345.19533225 160.78515625 337.6484375 C160.06203484 331.57607178 157.42810312 327.54323082 152.73046875 323.71484375 C146.04048537 318.68330163 137.81379209 318.794664 129.81689453 318.81518555 C128.25915817 318.80751915 128.25915817 318.80751915 126.66995239 318.79969788 C123.25516918 318.78585842 119.84058909 318.78675445 116.42578125 318.7890625 C114.03978399 318.78517244 111.65378743 318.78083713 109.26779175 318.77607727 C104.27306877 318.76862716 99.2784165 318.76889757 94.28369141 318.77416992 C87.89956133 318.77996241 81.51572158 318.7630327 75.13163948 318.73982525 C70.20553917 318.72505631 65.27950827 318.72422054 60.35338974 318.72733498 C58.00038961 318.72682334 55.64738543 318.72161539 53.29440689 318.71152306 C49.9970262 318.69911508 46.70020452 318.70597685 43.40283203 318.7175293 C41.96079407 318.70606369 41.96079407 318.70606369 40.48962402 318.69436646 C31.37814706 318.76452758 22.87872137 320.23457308 16.48046875 327.08984375 Z " fill="#000000" transform="translate(73.51953125,0.91015625)"/>
<path d="M0 0 C2.04797755 1.44951732 3.92445633 2.98889561 5.80859375 4.64453125 C6.41445313 5.14597656 7.0203125 5.64742187 7.64453125 6.1640625 C13.73875648 11.6328978 18.25641636 19.56506691 19.80859375 27.64453125 C19.90257879 29.98851619 19.93772162 32.33504188 19.94002151 34.68090916 C19.94207415 35.39303429 19.94412678 36.10515943 19.94624162 36.83886412 C19.95191915 39.23736566 19.95045343 41.63580992 19.94903564 44.03431702 C19.95161886 45.76647125 19.9546319 47.49862488 19.95803905 49.23077768 C19.96611763 54.00056909 19.9678991 58.77034545 19.96863651 63.54014289 C19.97048561 68.68075775 19.97803229 73.82136476 19.98477173 78.9619751 C19.99836233 90.20798486 20.00438109 101.45399107 20.00878239 112.70000768 C20.01154395 119.72145301 20.01578118 126.74289696 20.02028656 133.76434135 C20.03248087 153.20218475 20.04277941 172.64002704 20.04616165 192.07787418 C20.046491 193.94455919 20.046491 193.94455919 20.046827 195.848955 C20.04715442 197.72013098 20.04715442 197.72013098 20.04748845 199.62910849 C20.04793192 202.15695449 20.04837848 204.68480049 20.04882812 207.21264648 C20.04904955 208.46654788 20.04927098 209.72044928 20.04949912 211.01234769 C20.05344632 231.32573814 20.07089724 251.63909271 20.09418765 271.9524693 C20.11790305 292.80476931 20.13036361 313.65705131 20.13152957 334.50936502 C20.1324463 346.21835594 20.13819795 357.92730011 20.15634918 369.63627815 C20.17175278 379.60805295 20.17686913 389.57976656 20.16861108 399.55155099 C20.16470533 404.63843198 20.16563054 409.72518977 20.17966843 414.81205559 C20.19241183 419.4725253 20.19120589 424.13277928 20.17907771 428.79324871 C20.17712147 430.47568456 20.18019578 432.15813571 20.18892208 433.84055007 C20.246482 445.69217046 18.99837312 455.99079042 13.62109375 466.70703125 C13.09128906 467.79113281 12.56148438 468.87523437 12.015625 469.9921875 C6.79349439 479.21570773 -0.97247562 486.8238151 -8.40185547 494.28051758 C-9.96568814 495.85650182 -11.50988219 497.45030765 -13.0546875 499.04492188 C-14.05224138 500.05191585 -15.05089796 501.05781895 -16.05078125 502.0625 C-16.94249023 502.96766357 -17.83419922 503.87282715 -18.75292969 504.80541992 C-21.19140625 506.64453125 -21.19140625 506.64453125 -23.13671875 506.77758789 C-26.28323535 505.04244251 -28.68713347 502.6166225 -31.20703125 500.09765625 C-32.0690213 499.24708649 -32.0690213 499.24708649 -32.94842529 498.3793335 C-34.16593518 497.17263052 -35.37948731 495.96192321 -36.58935547 494.74755859 C-38.40733039 492.92862508 -40.24534412 491.13194046 -42.0859375 489.3359375 C-57.62922096 473.95206894 -66.31795635 457.03358171 -66.45963369 434.84065953 C-66.46371143 432.50603629 -66.45798405 430.17154716 -66.45210266 427.83692932 C-66.45512637 426.13259414 -66.45901695 424.42826031 -66.46369523 422.72392887 C-66.47395556 418.05888559 -66.47179843 413.39391933 -66.46751463 408.7288698 C-66.46504387 403.69060656 -66.47406588 398.6523617 -66.48155212 393.61410522 C-66.49429097 383.75110342 -66.49609386 373.88812885 -66.49375186 364.02512021 C-66.49196779 356.00771497 -66.49372025 347.99031799 -66.4979763 339.97291374 C-66.49857149 338.8312204 -66.49916668 337.68952706 -66.49977991 336.51323695 C-66.50099167 334.19379433 -66.50220581 331.87435172 -66.50342228 329.5549091 C-66.51429449 307.811544 -66.51213672 286.06819441 -66.50603744 264.32482844 C-66.50086742 244.43860721 -66.51212654 224.55243495 -66.53113566 204.66622341 C-66.55051238 184.23861491 -66.55877042 163.81102958 -66.5550124 143.38341182 C-66.55310026 131.91819995 -66.55558936 120.45302977 -66.56972694 108.98782539 C-66.58163951 99.22845833 -66.58304692 89.46915864 -66.57093678 79.70979065 C-66.56504753 74.73223466 -66.56395005 69.7548019 -66.57593918 64.7772541 C-66.58679558 60.21693973 -66.58369745 55.6568515 -66.56967749 51.09654772 C-66.56702994 49.4506323 -66.56939894 47.80469918 -66.57741336 46.15880115 C-66.64790985 30.59565387 -64.16263027 17.40325556 -53.34375 5.56640625 C-39.09514765 -7.15648369 -16.47762547 -10.19204285 0 0 Z " fill="#000000" transform="translate(492.19140625,5.35546875)"/>
</svg>
