<?xml version="1.0" standalone="no"?>
<!DOCTYPE svg PUBLIC "-//W3C//DTD SVG 20010904//EN"
 "http://www.w3.org/TR/2001/REC-SVG-20010904/DTD/svg10.dtd">
<svg version="1.0" xmlns="http://www.w3.org/2000/svg"
 width="512.000000pt" height="512.000000pt" viewBox="0 0 512.000000 512.000000"
 preserveAspectRatio="xMidYMid meet">

<g transform="translate(0.000000,512.000000) scale(0.100000,-0.100000)"
fill="#000000" stroke="none">
<path d="M3529 5092 c-84 -44 -108 -91 -119 -233 -4 -63 -16 -144 -25 -179
-83 -320 -344 -526 -765 -606 -85 -16 -189 -18 -1010 -24 -993 -6 -945 -4
-1083 -62 -274 -116 -470 -365 -517 -658 -13 -85 -13 -606 1 -690 26 -168 106
-325 227 -452 115 -120 230 -190 395 -240 71 -22 83 -22 997 -29 1026 -7 987
-4 1203 -76 146 -48 262 -118 363 -218 66 -66 89 -97 127 -175 58 -117 75
-184 86 -326 10 -128 26 -169 83 -219 105 -89 260 -57 322 66 l26 53 0 1954
c0 1518 -3 1964 -12 1996 -16 53 -81 118 -134 134 -64 19 -107 15 -165 -16z"/>
<path d="M4868 4263 c-15 -2 -135 -58 -267 -123 -308 -154 -339 -184 -329
-321 8 -112 93 -189 209 -189 54 0 74 8 307 124 265 132 300 158 322 236 24
87 -9 186 -78 233 -31 22 -114 50 -132 45 -3 0 -17 -3 -32 -5z"/>
<path d="M4400 3184 c-78 -34 -130 -111 -130 -194 0 -88 38 -152 115 -193 38
-21 53 -22 310 -22 l270 0 47 28 c121 71 142 234 44 332 -61 60 -88 65 -372
65 -200 -1 -256 -4 -284 -16z"/>
<path d="M4418 2336 c-57 -21 -85 -42 -115 -87 -31 -47 -41 -128 -23 -184 25
-75 60 -100 323 -231 227 -113 253 -124 303 -124 184 0 281 213 159 349 -26
28 -94 67 -279 159 -260 129 -302 143 -368 118z"/>
<path d="M563 1518 c81 -195 557 -1234 583 -1273 89 -135 254 -229 423 -242
97 -7 178 8 269 52 228 108 350 379 277 617 -10 34 -273 618 -350 780 l-18 36
-521 5 c-326 3 -540 9 -571 16 -27 6 -61 13 -74 16 -17 4 -22 2 -18 -7z"/>
</g>
</svg>
