<?xml version="1.0" standalone="no"?>
<!DOCTYPE svg PUBLIC "-//W3C//DTD SVG 20010904//EN"
 "http://www.w3.org/TR/2001/REC-SVG-20010904/DTD/svg10.dtd">
<svg version="1.0" xmlns="http://www.w3.org/2000/svg"
 width="512.000000pt" height="512.000000pt" viewBox="0 0 512.000000 512.000000"
 preserveAspectRatio="xMidYMid meet">

<g transform="translate(0.000000,512.000000) scale(0.100000,-0.100000)"
fill="#000000" stroke="none">
<path d="M1780 5114 c-84 -11 -201 -39 -280 -66 -191 -68 -331 -157 -481 -307
-188 -188 -299 -392 -355 -651 -26 -119 -26 -381 0 -500 56 -259 167 -462 355
-651 185 -186 394 -300 651 -355 119 -26 381 -26 500 0 259 56 462 167 651
355 186 185 300 394 355 651 26 119 26 381 0 500 -55 257 -169 466 -355 651
-185 185 -380 293 -631 350 -83 19 -331 33 -410 23z"/>
<path d="M3447 2544 c-497 -90 -861 -503 -884 -1004 -23 -503 310 -951 805
-1081 100 -27 300 -36 413 -20 109 16 242 61 348 117 l85 45 280 -280 c291
-290 329 -320 405 -321 121 -1 222 100 221 221 -1 76 -31 114 -321 405 l-280
280 45 85 c95 179 133 348 123 558 -6 138 -27 234 -77 354 -98 235 -308 455
-533 557 -200 90 -427 121 -630 84z"/>
<path d="M1720 2124 c-14 -2 -69 -11 -124 -20 -359 -57 -716 -236 -994 -498
-361 -341 -573 -803 -599 -1302 -6 -115 -5 -124 19 -176 27 -58 69 -97 127
-117 25 -8 477 -11 1700 -9 916 0 1650 3 1631 5 -172 18 -376 79 -527 156
-602 307 -922 970 -788 1633 14 66 63 225 89 285 6 14 -4 19 -56 29 -62 12
-429 23 -478 14z"/>
</g>
</svg>
