<?xml version="1.0" standalone="no"?>
<!DOCTYPE svg PUBLIC "-//W3C//DTD SVG 20010904//EN"
 "http://www.w3.org/TR/2001/REC-SVG-20010904/DTD/svg10.dtd">
<svg version="1.0" xmlns="http://www.w3.org/2000/svg"
 width="512.000000pt" height="512.000000pt" viewBox="0 0 512.000000 512.000000"
 preserveAspectRatio="xMidYMid meet">

<g transform="translate(0.000000,512.000000) scale(0.100000,-0.100000)"
fill="#000000" stroke="none">
<path d="M2165 5104 c-219 -39 -412 -140 -571 -298 -144 -144 -237 -311 -291
-526 -15 -59 -17 -252 -23 -2030 l-5 -1965 -23 -75 c-13 -41 -38 -105 -57
-142 l-33 -68 1488 0 c1263 0 1500 2 1572 15 233 40 421 137 584 299 135 136
229 300 282 491 l27 100 3 1605 c2 1152 0 1627 -8 1684 -34 237 -136 442 -305
612 -160 161 -351 260 -579 299 -127 22 -1938 21 -2061 -1z m491 -861 c51 -27
90 -72 104 -121 7 -24 10 -131 8 -304 l-3 -266 -30 -44 c-17 -23 -51 -54 -75
-68 -45 -25 -45 -25 -316 -25 l-271 0 -48 30 c-36 22 -57 45 -77 84 l-28 53 0
257 0 257 26 53 c28 56 79 97 136 112 18 4 146 7 283 6 237 -2 252 -3 291 -24z
m1678 -415 c57 -17 119 -82 135 -141 27 -95 -13 -195 -97 -244 l-47 -28 -485
0 -485 0 -47 28 c-84 49 -124 150 -98 245 14 53 83 127 132 141 52 15 941 14
992 -1z m38 -871 c84 -49 124 -149 97 -244 -16 -59 -78 -124 -135 -141 -60
-18 -2208 -18 -2268 0 -81 25 -146 118 -146 210 0 82 78 178 162 198 18 5 530
7 1138 7 l1105 -2 47 -28z m-14 -846 c163 -84 161 -306 -3 -382 -38 -18 -91
-19 -1153 -19 -1218 0 -1150 -3 -1216 58 -107 101 -78 273 59 345 27 15 150
16 1153 17 1086 0 1124 -1 1160 -19z m-24 -843 c57 -17 119 -82 135 -141 27
-95 -13 -195 -97 -244 l-47 -28 -1125 0 -1125 0 -47 28 c-84 49 -124 150 -98
245 14 53 83 127 132 141 53 15 2220 14 2272 -1z"/>
<path d="M712 3829 c-175 -29 -320 -107 -457 -244 -141 -141 -215 -281 -244
-465 -7 -43 -11 -514 -11 -1405 0 -1454 -2 -1388 55 -1494 35 -63 116 -141
181 -174 193 -97 429 -34 545 146 74 115 69 -33 69 1904 l0 1743 -42 -1 c-24
-1 -67 -5 -96 -10z"/>
</g>
</svg>
