<?xml version="1.0" standalone="no"?>
<!DOCTYPE svg PUBLIC "-//W3C//DTD SVG 20010904//EN"
 "http://www.w3.org/TR/2001/REC-SVG-20010904/DTD/svg10.dtd">
<svg version="1.0" xmlns="http://www.w3.org/2000/svg"
 width="512.000000pt" height="512.000000pt" viewBox="0 0 512.000000 512.000000"
 preserveAspectRatio="xMidYMid meet">

<g transform="translate(0.000000,512.000000) scale(0.100000,-0.100000)"
fill="#000000" stroke="none">
<path d="M1200 5104 c-45 -20 -87 -59 -111 -106 -17 -34 -19 -61 -19 -276 l0
-239 -74 -66 c-149 -134 -268 -330 -324 -532 l-27 -100 0 -1440 0 -1440 27
-100 c106 -384 389 -666 775 -773 l98 -27 1015 0 1015 0 100 27 c384 106 666
389 773 775 l27 98 0 1440 0 1440 -27 98 c-57 205 -175 400 -324 534 l-74 66
0 239 c0 215 -2 242 -19 276 -67 131 -231 162 -334 64 -55 -52 -62 -75 -67
-237 -4 -127 -7 -149 -20 -146 -8 2 -104 6 -212 9 l-198 4 0 121 c0 145 -12
189 -65 243 -98 98 -262 77 -332 -44 -26 -44 -28 -56 -31 -184 l-4 -138 -208
0 -208 0 -4 139 c-3 133 -4 140 -33 187 -44 70 -118 108 -198 101 -70 -6 -125
-39 -164 -99 -27 -40 -28 -48 -31 -184 l-4 -142 -196 -4 c-109 -3 -204 -6
-212 -9 -13 -3 -16 19 -20 146 -5 162 -12 185 -67 237 -58 56 -151 73 -223 42z
m2268 -1486 c66 -16 135 -87 151 -154 24 -98 -20 -193 -110 -238 l-53 -26
-896 0 -896 0 -53 26 c-134 67 -158 244 -45 342 24 22 61 45 82 50 57 15 1760
15 1820 0z m30 -863 c152 -64 172 -273 34 -370 l-44 -30 -906 -3 c-626 -2
-918 0 -944 8 -147 42 -191 250 -76 357 58 54 20 52 996 53 793 0 907 -2 940
-15z m-853 -854 c158 -72 167 -295 15 -381 l-45 -25 -450 -3 c-526 -4 -535 -3
-605 67 -106 106 -81 269 51 335 l53 26 470 0 c434 0 474 -2 511 -19z"/>
</g>
</svg>
