<?xml version="1.0" standalone="no"?>
<!DOCTYPE svg PUBLIC "-//W3C//DTD SVG 20010904//EN"
 "http://www.w3.org/TR/2001/REC-SVG-20010904/DTD/svg10.dtd">
<svg version="1.0" xmlns="http://www.w3.org/2000/svg"
 width="96.000000pt" height="96.000000pt" viewBox="0 0 96.000000 96.000000"
 preserveAspectRatio="xMidYMid meet">

<g transform="translate(0.000000,96.000000) scale(0.100000,-0.100000)"
fill="#000000" stroke="none">
<path d="M211 866 c-49 -27 -50 -38 -51 -394 0 -361 2 -376 55 -400 41 -19
497 -17 534 3 47 24 52 51 49 285 -3 183 -5 215 -18 215 -13 0 -16 -34 -20
-223 -5 -207 -6 -225 -24 -238 -16 -11 -68 -14 -258 -14 -225 0 -239 1 -258
20 -19 19 -20 33 -20 350 0 317 1 331 20 350 18 18 33 20 170 20 l150 0 0 -85
c0 -78 2 -88 25 -110 22 -23 31 -25 124 -25 64 0 102 4 107 11 4 7 -41 60
-113 130 l-120 119 -164 0 c-117 -1 -171 -5 -188 -14z m458 -204 c-80 -4 -89
4 -89 86 l0 66 75 -74 76 -75 -62 -3z"/>
<path d="M257 443 c-4 -3 -7 -43 -7 -89 0 -61 4 -83 14 -87 19 -7 26 1 26 30
0 17 6 23 21 23 23 0 60 18 71 34 14 20 8 56 -12 76 -20 20 -98 29 -113 13z
m77 -29 c22 -8 20 -41 -3 -54 -32 -17 -41 -12 -41 25 0 36 10 42 44 29z"/>
<path d="M415 438 c-3 -8 -5 -48 -3 -89 l3 -74 52 -3 c45 -3 56 1 78 22 31 31
34 92 7 126 -23 29 -128 42 -137 18z m97 -35 c37 -34 16 -103 -32 -103 -30 0
-30 0 -30 60 0 55 2 60 22 60 12 0 30 -7 40 -17z"/>
<path d="M602 358 c2 -55 7 -92 13 -91 6 2 11 18 13 38 3 34 5 35 43 35 52 0
48 24 -4 28 -31 3 -37 7 -37 27 0 21 5 24 43 27 60 4 48 22 -18 26 l-56 3 3
-93z"/>
</g>
</svg>
