<?xml version="1.0" encoding="UTF-8"?>
<!DOCTYPE svg PUBLIC "-//W3C//DTD SVG 1.1//EN" "http://www.w3.org/Graphics/SVG/1.1/DTD/svg11.dtd">
<svg xmlns="http://www.w3.org/2000/svg" version="1.1" width="512px" height="512px" style="shape-rendering:geometricPrecision; text-rendering:geometricPrecision; image-rendering:optimizeQuality; fill-rule:evenodd; clip-rule:evenodd" xmlns:xlink="http://www.w3.org/1999/xlink">
<g><path style="opacity:0.987" fill="#000000" d="M 240.5,-0.5 C 250.5,-0.5 260.5,-0.5 270.5,-0.5C 317.23,1.14615 362.563,10.3128 406.5,27C 439.415,39.9469 467.248,59.7803 490,86.5C 501.202,102.623 508.369,120.289 511.5,139.5C 511.5,171.167 511.5,202.833 511.5,234.5C 496.485,234.833 481.485,234.499 466.5,233.5C 443.625,196.25 420.625,159.083 397.5,122C 352.727,99.8068 305.393,87.6401 255.5,85.5C 205.609,87.6395 158.276,99.8061 113.5,122C 90.3747,159.083 67.3747,196.25 44.5,233.5C 29.5148,234.499 14.5148,234.833 -0.5,234.5C -0.5,202.833 -0.5,171.167 -0.5,139.5C 4.45846,108.416 19.1251,82.9164 43.5,63C 73.2872,39.7743 106.621,23.441 143.5,14C 175.485,5.83637 207.819,1.00304 240.5,-0.5 Z"/></g>
<g><path style="opacity:0.992" fill="#000000" d="M 511.5,437.5 C 511.5,462.167 511.5,486.833 511.5,511.5C 340.833,511.5 170.167,511.5 -0.5,511.5C -0.5,486.5 -0.5,461.5 -0.5,436.5C 3.9734,397.91 15.8067,361.577 35,327.5C 71.3493,270.803 106.683,213.47 141,155.5C 217.335,118.167 293.668,118.167 370,155.5C 386.516,181.868 402.516,208.534 418,235.5C 437.667,266.833 457.333,298.167 477,329.5C 495.475,363.42 506.975,399.42 511.5,437.5 Z M 243.5,213.5 C 289.125,211.06 323.958,229.06 348,267.5C 369.078,309.857 365.411,349.857 337,387.5C 302.397,424.442 261.23,434.275 213.5,417C 177.067,399.893 155.901,371.393 150,331.5C 147.512,278.621 170.346,241.454 218.5,220C 226.838,217.333 235.172,215.167 243.5,213.5 Z"/></g>
<g><path style="opacity:0.982" fill="#000000" d="M 243.5,255.5 C 277.466,252.224 301.632,265.891 316,296.5C 325.302,326.811 317.802,351.977 293.5,372C 274.476,384.158 254.142,386.824 232.5,380C 201.736,365.652 188.236,341.486 192,307.5C 198.681,279.653 215.848,262.319 243.5,255.5 Z"/></g>
</svg>
