<?xml version="1.0" encoding="UTF-8"?>
<svg version="1.1" xmlns="http://www.w3.org/2000/svg" width="512" height="512">
<path d="M0 0 C3.97555216 0.00914976 7.95103737 -0.00496778 11.92657566 -0.01591969 C19.69066702 -0.0336049 27.45460275 -0.02990988 35.21869993 -0.01826912 C41.53487158 -0.00919539 47.85099994 -0.00802773 54.16717625 -0.01236439 C55.0698589 -0.01297732 55.97254156 -0.01359025 56.90257823 -0.01422176 C58.73698347 -0.0155008 60.57138869 -0.01679766 62.40579391 -0.01811212 C79.56315486 -0.02948863 96.72042999 -0.01645037 113.87777686 0.00508934 C128.56480139 0.02295765 143.25169941 0.01985271 157.93872166 0.0014143 C175.03925053 -0.02004437 192.1397044 -0.02839027 209.24024487 -0.01613665 C211.06749184 -0.0148626 212.89473882 -0.01360511 214.72198582 -0.01236439 C216.07016417 -0.01143873 216.07016417 -0.01143873 217.44557846 -0.01049438 C223.74618813 -0.00705644 230.04674979 -0.01283607 236.34735203 -0.0222826 C244.03712363 -0.0335597 251.72673214 -0.03034354 259.41648531 -0.00915962 C263.33174667 0.00127462 267.2467372 0.00560491 271.16199589 -0.00775623 C301.73904794 -0.10326944 328.23657831 4.07868436 352.44458103 24.52289867 C353.25669041 25.20094555 354.06879978 25.87899242 354.90551853 26.57758617 C374.26668781 43.31755099 387.24228801 67.058507 390.44458103 92.52289867 C391.12748954 102.35441146 391.00109486 112.22796109 390.96747971 122.07831764 C390.95832995 126.0538698 390.97244748 130.02935501 390.98339939 134.0048933 C391.0010846 141.76898466 390.99738959 149.53292039 390.98574883 157.29701757 C390.9766751 163.61318922 390.97550744 169.92931758 390.97984409 176.24549389 C390.98045703 177.14817654 390.98106996 178.0508592 390.98170146 178.98089588 C390.98298051 180.81530111 390.98427736 182.64970634 390.98559183 184.48411155 C390.99696833 201.6414725 390.98393008 218.79874763 390.96239036 235.9560945 C390.94452206 250.64311903 390.94762699 265.33001705 390.96606541 280.0170393 C390.98752408 297.11756817 390.99586997 314.21802205 390.98361635 331.31856251 C390.9823423 333.14580948 390.98108482 334.97305646 390.97984409 336.80030346 C390.97922699 337.69908903 390.97860989 338.5978746 390.97797409 339.5238961 C390.97453614 345.82450577 390.98031577 352.12506744 390.98976231 358.42566967 C391.00103941 366.11544127 390.99782325 373.80504978 390.97663933 381.49480295 C390.96620508 385.41006431 390.9618748 389.32505484 390.97523594 393.24031353 C391.08848711 429.48594293 383.1975598 457.5668075 357.93286228 484.16742992 C332.97520218 508.43713003 302.20185446 513.15947966 268.88916206 513.04579735 C264.9136099 513.03664759 260.9381247 513.05076512 256.9625864 513.06171703 C249.19849505 513.07940225 241.43455931 513.07570723 233.67046213 513.06406647 C227.35429049 513.05499274 221.03816212 513.05382508 214.72198582 513.05816174 C213.36796183 513.05908113 213.36796183 513.05908113 211.98658383 513.06001911 C210.15217859 513.06129815 208.31777337 513.062595 206.48336816 513.06390947 C189.32600721 513.07528598 172.16873207 513.06224772 155.0113852 513.04070801 C140.32436067 513.0228397 125.63746266 513.02594463 110.95044041 513.04438305 C93.84991153 513.06584172 76.74945766 513.07418761 59.6489172 513.06193399 C57.82167023 513.06065994 55.99442324 513.05940246 54.16717625 513.05816174 C53.26839068 513.05754463 52.3696051 513.05692753 51.44358361 513.05629173 C45.14297393 513.05285378 38.84241227 513.05863341 32.54181004 513.06807995 C24.85203844 513.07935705 17.16242993 513.07614089 9.47267675 513.05495697 C5.5574154 513.04452272 1.64242486 513.04019244 -2.27283382 513.05355358 C-38.51846323 513.16680476 -66.5993278 505.27587744 -93.19995022 480.01117992 C-117.46965032 455.05351982 -122.19199996 424.2801721 -122.07831764 390.96747971 C-122.06916789 386.99192755 -122.08328542 383.01644234 -122.09423733 379.04090405 C-122.11192254 371.27681269 -122.10822753 363.51287695 -122.09658676 355.74877977 C-122.08751303 349.43260813 -122.08634537 343.11647977 -122.09068203 336.80030346 C-122.09129496 335.8976208 -122.09190789 334.99493815 -122.0925394 334.06490147 C-122.09381844 332.23049624 -122.0951153 330.39609101 -122.09642977 328.5616858 C-122.10780627 311.40432485 -122.09476802 294.24704972 -122.0732283 277.08970284 C-122.05535999 262.40267832 -122.05846493 247.7157803 -122.07690334 233.02875805 C-122.09836201 215.92822917 -122.10670791 198.8277753 -122.09445429 181.72723484 C-122.09318024 179.89998787 -122.09192275 178.07274088 -122.09068203 176.24549389 C-122.09006493 175.34670832 -122.08944783 174.44792275 -122.08881202 173.52190125 C-122.08537408 167.22129158 -122.09115371 160.92072991 -122.10060024 154.62012768 C-122.11187734 146.93035608 -122.10866119 139.24074757 -122.08747727 131.5509944 C-122.07704302 127.63573304 -122.07271273 123.72074251 -122.08607388 119.80548382 C-122.19932505 83.55985441 -114.30839773 55.47898985 -89.04370022 28.87836742 C-64.08604011 4.60866732 -33.31269239 -0.11368232 0 0 Z M69.68286228 136.55805492 C56.22779715 152.72640633 47.71528783 174.29667225 49.44458103 195.52289867 C50.68310597 202.95404832 55.5249535 207.22258954 61.44458103 211.52289867 C66.92763234 213.35058244 73.37511738 213.6864862 78.83520603 211.61664867 C85.36102793 207.7310448 89.36469575 202.88181482 91.44458103 195.52289867 C91.78207812 193.11220522 92.07135054 190.69441243 92.31958103 188.27289867 C93.82934103 175.70029529 98.68451479 165.88151761 108.58911228 157.83539867 C111.68381109 155.64630647 114.94299073 153.96280497 118.44458103 152.52289867 C119.31598728 152.1645393 120.18739353 151.80617992 121.08520603 151.43696117 C131.73559476 148.53906471 145.79106941 149.02055984 155.44458103 154.52289867 C165.51386672 160.82232214 173.09320338 170.22711901 176.03051853 181.83930492 C178.06873088 195.04922833 176.09288352 207.45298718 168.44458103 218.52289867 C163.78490624 224.38142183 158.03208879 228.19984575 151.73559666 232.09492016 C146.05739997 235.65141687 141.18962207 239.78642269 136.44458103 244.52289867 C135.83356541 245.12231274 135.22254978 245.7217268 134.59301853 246.33930492 C121.44587119 260.23686022 113.91118516 279.28223544 113.13208103 298.27289867 C113.34166732 304.08891806 114.50421484 308.44883873 118.54223728 312.76508617 C124.86462269 318.5426156 128.88886669 319.89932294 137.43676853 319.79633617 C144.09030454 319.19146926 147.94976391 315.39361874 152.18286228 310.49946117 C154.98108516 306.11586744 155.65940068 301.48211202 156.19458103 296.39789867 C157.63042749 286.50525578 162.16992182 276.24352727 170.35498142 270.08564281 C172.56906733 268.60645364 174.81168324 267.18423181 177.06958103 265.77289867 C198.17581622 252.08558051 212.13648513 233.75164171 217.75317478 209.14399242 C222.04223377 186.68095468 218.20948043 164.16755055 205.36254978 145.08149242 C202.01355327 140.61389015 198.29760634 136.55642607 194.44458103 132.52289867 C193.90446384 131.90801586 193.36434666 131.29313305 192.80786228 130.65961742 C179.81398291 116.42199141 159.15430286 108.1336255 140.17504978 107.17133617 C113.25798797 106.45186261 87.7160971 116.10469066 69.68286228 136.55805492 Z M108.90942478 355.31977367 C102.89662672 363.2433443 102.3644084 371.82080755 103.44458103 381.52289867 C106.27080665 390.77529509 111.99772237 397.84265601 120.40161228 402.64008617 C128.8331491 406.49765204 137.31746484 406.41834343 145.99145603 403.55805492 C154.62684742 399.91413977 159.56389765 393.22801487 164.31958103 385.46039867 C167.05153496 378.34423126 166.71167957 368.59841229 163.88208103 361.58539867 C159.18497202 352.83394294 152.52220056 347.42358072 143.69458103 343.21039867 C129.48870652 340.20530984 118.23528675 344.40400649 108.90942478 355.31977367 Z " fill="#000000" transform="translate(121.55541896820068,-0.5228986740112305)"/>
</svg>
