<?xml version="1.0" standalone="no"?>
<!DOCTYPE svg PUBLIC "-//W3C//DTD SVG 20010904//EN"
 "http://www.w3.org/TR/2001/REC-SVG-20010904/DTD/svg10.dtd">
<svg version="1.0" xmlns="http://www.w3.org/2000/svg"
 width="512.000000pt" height="512.000000pt" viewBox="0 0 512.000000 512.000000"
 preserveAspectRatio="xMidYMid meet">

<g transform="translate(0.000000,512.000000) scale(0.100000,-0.100000)"
fill="#000000" stroke="none">
<path d="M2340 5113 c-94 -16 -269 -74 -915 -300 -401 -140 -746 -263 -765
-273 -97 -49 -179 -146 -210 -247 -61 -198 23 -412 199 -506 64 -34 1496 -532
1602 -557 193 -45 445 -43 635 5 54 14 382 124 729 245 347 121 636 220 643
220 9 0 12 -116 12 -490 0 -466 1 -493 19 -529 66 -128 226 -159 331 -65 74
67 71 28 68 889 l-3 770 -32 68 c-40 83 -118 164 -193 199 -108 50 -1505 536
-1602 557 -82 18 -129 21 -295 20 -109 -1 -209 -4 -223 -6z"/>
<path d="M1283 2958 c9 -226 46 -368 143 -558 218 -426 652 -690 1134 -690
340 0 655 128 892 363 109 107 176 198 242 327 98 192 134 331 143 557 l6 151
-365 -127 c-553 -194 -607 -206 -918 -205 -312 0 -365 11 -895 197 -181 63
-343 120 -359 126 l-29 12 6 -153z"/>
<path d="M2305 1475 c-589 -86 -1100 -454 -1350 -970 -72 -148 -108 -265 -99
-321 10 -68 53 -127 115 -158 l53 -26 1536 0 1536 0 53 26 c62 31 105 90 115
159 6 35 1 63 -23 134 -204 609 -764 1061 -1432 1156 -127 18 -380 18 -504 0z"/>
</g>
</svg>
