<?xml version="1.0" standalone="no"?>
<!DOCTYPE svg PUBLIC "-//W3C//DTD SVG 20010904//EN"
 "http://www.w3.org/TR/2001/REC-SVG-20010904/DTD/svg10.dtd">
<svg version="1.0" xmlns="http://www.w3.org/2000/svg"
 width="512.000000pt" height="512.000000pt" viewBox="0 0 512.000000 512.000000"
 preserveAspectRatio="xMidYMid meet">

<g transform="translate(0.000000,512.000000) scale(0.100000,-0.100000)"
fill="#000000" stroke="none">
<path d="M1551 5105 c-270 -61 -464 -289 -479 -562 -10 -190 52 -350 185 -481
l56 -54 -14 -76 c-8 -45 -13 -137 -13 -222 1 -121 6 -161 27 -243 118 -447
496 -784 993 -884 135 -27 395 -24 534 6 482 103 846 434 966 876 24 89 27
118 28 260 0 117 -4 177 -17 225 -16 64 -16 65 6 80 82 57 161 169 198 281 20
62 24 93 24 199 0 110 -3 134 -26 197 -34 91 -106 200 -172 258 -68 60 -187
119 -283 141 -203 45 -436 -31 -579 -188 l-54 -60 -68 16 c-127 29 -292 39
-420 27 -65 -7 -149 -19 -186 -27 l-68 -16 -54 60 c-143 157 -380 233 -584
187z m1147 -1500 c54 -16 123 -63 154 -106 53 -71 24 -175 -66 -234 -129 -86
-326 -85 -453 1 -103 71 -121 177 -45 257 89 94 256 127 410 82z"/>
<path d="M505 3624 c-11 -2 -45 -9 -75 -15 -141 -29 -302 -154 -368 -287 -80
-163 -80 -350 1 -508 14 -27 128 -197 254 -379 l228 -330 90 -7 c186 -16 385
-95 532 -213 64 -52 130 -124 303 -338 243 -298 313 -397 396 -559 148 -290
234 -592 251 -875 l6 -113 433 0 434 0 4 22 c3 13 7 86 10 163 17 431 156 833
378 1092 82 95 457 502 513 557 147 143 385 249 590 263 l90 6 230 334 c127
184 242 357 257 386 85 164 72 385 -31 546 -73 113 -210 211 -341 242 -123 30
-289 7 -394 -53 -39 -23 -40 -24 -62 -128 -195 -934 -1207 -1503 -2175 -1225
-534 154 -957 549 -1124 1049 -20 58 -44 145 -53 193 -17 85 -19 89 -57 110
-81 46 -253 82 -320 67z"/>
<path d="M475 1669 c-260 -33 -455 -243 -472 -509 -11 -179 32 -286 208 -520
203 -270 338 -391 564 -501 219 -107 384 -139 710 -139 l208 0 -6 103 c-13
250 -112 552 -260 794 -67 110 -426 561 -506 636 -110 103 -286 157 -446 136z"/>
<path d="M4495 1669 c-70 -9 -149 -37 -222 -79 -70 -40 -595 -610 -651 -707
-114 -197 -180 -448 -198 -757 l-7 -128 264 5 c238 4 275 7 371 30 261 62 514
205 679 385 98 107 300 381 332 451 102 226 60 487 -105 648 -118 115 -297
174 -463 152z"/>
</g>
</svg>
