<?xml version="1.0" encoding="UTF-8"?>
<svg version="1.1" xmlns="http://www.w3.org/2000/svg" width="512" height="512">
<path d="M0 0 C3.05680593 2.75290731 6.05781462 5.56064016 9.05078125 8.3828125 C9.83453125 9.11242187 10.61828125 9.84203125 11.42578125 10.59375 C44.67223988 42.53409776 64.2556523 90.2222014 65.54370117 135.96484375 C65.5666626 137.15464844 65.58962402 138.34445312 65.61328125 139.5703125 C65.65235596 140.7046875 65.69143066 141.8390625 65.73168945 143.0078125 C65.75616799 150.68610217 64.2698294 155.64821454 59.05078125 161.3828125 C54.43481901 165.37452479 50.19147226 166.50697639 44.17543507 166.51703358 C42.32419268 166.52372034 42.32419268 166.52372034 40.43555146 166.53054219 C39.05858154 166.53045289 37.68161162 166.53026304 36.30464172 166.52998352 C34.84757377 166.53328215 33.39050673 166.53700772 31.93344086 166.541125 C27.91950531 166.55115321 23.90558471 166.55486311 19.8916384 166.55751431 C15.56633786 166.56141493 11.24104919 166.57099343 6.91575623 166.57972717 C-3.53473273 166.59949837 -13.98522267 166.60955859 -24.43572566 166.61845496 C-29.35540866 166.62283676 -34.27509058 166.62820385 -39.19477272 166.63344383 C-55.54608658 166.6504567 -71.89739977 166.66495132 -88.24872112 166.67219257 C-92.49288115 166.67410251 -96.73704117 166.67602284 -100.98120117 166.67797852 C-102.56352513 166.67870413 -102.56352513 166.67870413 -104.17781524 166.6794444 C-121.26974944 166.68774633 -138.36161369 166.71308575 -155.45351734 166.74555919 C-172.99596486 166.77861729 -190.53837683 166.7966402 -208.08085567 166.79983681 C-217.93252036 166.80200306 -227.78408303 166.81076848 -237.63571739 166.83629799 C-246.02513004 166.8579879 -254.41441591 166.86606383 -262.80385341 166.85633121 C-267.08435271 166.85178155 -271.36459033 166.85371127 -275.64505386 166.87309265 C-279.56531487 166.89068979 -283.48512263 166.88975492 -287.40538821 166.87419536 C-288.82199151 166.87181402 -290.23862591 166.87617018 -291.65518161 166.88802401 C-299.51946209 166.94974536 -305.26515706 166.72189228 -311.94921875 162.3828125 C-314.0078125 160.34765625 -314.0078125 160.34765625 -315.38671875 158.3203125 C-316.09634766 157.31291016 -316.09634766 157.31291016 -316.8203125 156.28515625 C-325.78625175 141.17646277 -317.5560393 111.98165566 -313.6640625 95.953125 C-307.10459312 70.58141581 -295.2271506 46.88116186 -278.94921875 26.3828125 C-278.50465332 25.82255371 -278.06008789 25.26229492 -277.60205078 24.68505859 C-266.84798723 11.28275287 -254.84728448 -0.50254786 -240.94921875 -10.6171875 C-240.3857373 -11.03033203 -239.82225586 -11.44347656 -239.24169922 -11.86914062 C-167.64294336 -63.69456643 -66.00058423 -58.57005488 0 0 Z " fill="#000000" transform="translate(382.94921875,345.6171875)"/>
<path d="M0 0 C22.03852652 18.81159856 36.46579334 41.06373377 44.3515625 68.91015625 C44.69316406 70.08835937 45.03476562 71.2665625 45.38671875 72.48046875 C52.92056498 104.36791093 46.53869956 140.38566089 29.7109375 168.21484375 C19.22380228 184.89578124 5.20171214 199.62660904 -11.6484375 209.91015625 C-12.7209375 210.59335938 -13.7934375 211.2765625 -14.8984375 211.98046875 C-42.75922794 228.94201478 -78.25061189 233.92648545 -110.03027344 226.74707031 C-117.81941729 224.77736357 -125.2980262 222.14033195 -132.6484375 218.91015625 C-133.30263672 218.62688477 -133.95683594 218.34361328 -134.63085938 218.05175781 C-164.72593234 204.76588414 -188.43262339 179.18859339 -200.51953125 148.71386719 C-202.47890077 143.51521742 -204.1350825 138.25415274 -205.6484375 132.91015625 C-205.99003906 131.73195312 -206.33164063 130.55375 -206.68359375 129.33984375 C-214.21743998 97.45240157 -207.83557456 61.43465161 -191.0078125 33.60546875 C-172.71931393 4.51560818 -145.47270495 -14.79440926 -112.6484375 -24.08984375 C-111.47023438 -24.43144531 -110.29203125 -24.77304687 -109.078125 -25.125 C-71.91216204 -33.90596927 -29.43835184 -24.14652242 0 0 Z " fill="#000000" transform="translate(336.6484375,27.08984375)"/>
</svg>
