<?xml version="1.0" standalone="no"?>
<!DOCTYPE svg PUBLIC "-//W3C//DTD SVG 20010904//EN"
 "http://www.w3.org/TR/2001/REC-SVG-20010904/DTD/svg10.dtd">
<svg version="1.0" xmlns="http://www.w3.org/2000/svg"
 width="512.000000pt" height="512.000000pt" viewBox="0 0 512.000000 512.000000"
 preserveAspectRatio="xMidYMid meet">

<g transform="translate(0.000000,512.000000) scale(0.100000,-0.100000)"
fill="#000000" stroke="none">
<path d="M2480 5104 c-19 -8 -48 -27 -63 -42 -54 -51 -62 -76 -67 -227 l-5
-140 -400 -6 c-440 -6 -447 -7 -593 -75 -278 -128 -464 -396 -497 -715 l-6
-57 -93 -4 c-75 -3 -103 -9 -148 -31 -62 -30 -115 -83 -150 -149 -22 -42 -23
-53 -26 -334 -3 -275 -2 -293 18 -347 46 -122 158 -196 311 -205 l88 -5 6 -56
c35 -326 211 -578 497 -710 173 -80 102 -76 1208 -76 1106 0 1035 -4 1208 76
286 132 462 384 497 710 l6 56 88 5 c145 9 246 70 302 184 24 49 24 51 24 354
0 299 0 306 -23 348 -35 66 -88 119 -150 149 -45 22 -73 28 -148 31 l-93 4 -6
57 c-22 220 -111 407 -262 552 -81 79 -140 120 -236 164 -145 67 -152 68 -592
74 l-400 6 -5 140 c-5 151 -13 176 -67 227 -58 56 -151 73 -223 42z m-318
-1511 c197 -88 244 -357 91 -510 -66 -66 -123 -88 -228 -88 -78 0 -97 4 -141
27 -68 36 -136 113 -157 178 -38 116 -11 243 67 324 102 105 234 129 368 69z
m1064 3 c64 -30 123 -87 155 -152 20 -41 24 -64 24 -139 0 -78 -4 -97 -27
-140 -32 -60 -87 -114 -148 -146 -37 -20 -60 -24 -135 -24 -75 0 -98 4 -139
24 -158 78 -223 260 -152 419 74 161 261 232 422 158z"/>
<path d="M1704 1474 c-314 -52 -615 -237 -812 -499 -72 -95 -175 -308 -207
-425 -30 -112 -51 -305 -41 -373 9 -58 56 -122 111 -151 l40 -21 1745 -3
c1352 -2 1755 0 1790 10 60 16 122 79 140 141 9 34 11 76 6 145 -42 594 -485
1082 -1069 1177 -128 21 -1579 20 -1703 -1z"/>
</g>
</svg>
